<?xml version="1.0" encoding="utf-8"?>
<!-- Generator: Adobe Illustrator 22.1.0, SVG Export Plug-In . SVG Version: 6.00 Build 0)  -->
<!DOCTYPE svg PUBLIC "-//W3C//DTD SVG 1.0//EN" "http://www.w3.org/TR/2001/REC-SVG-20010904/DTD/svg10.dtd">
<svg version="1.0" id="Layer_1" xmlns="http://www.w3.org/2000/svg" xmlns:xlink="http://www.w3.org/1999/xlink" x="0px" y="0px"
	 viewBox="0 0 475.5 239.5" style="enable-background:new 0 0 475.5 239.5;" xml:space="preserve">
<style type="text/css">
	.st0{fill:#FFFFFF;}
	.st1{fill:#FFCD00;}
	.st2{fill:#CFCFCF;}
	.st3{fill:#E96651;}
	.st4{fill:#1D1D1B;}
</style>
<path class="st0" d="M295.5,53.9c6.1,12.2-1,29.2,0,44.5c8.4-2,14.5-10.8,22.7-18.3c10.5-9.7,21.5-26.6,36.7-13.1
	c-7,24.4-33.5,29.4-49.8,44.5c8.5,14.2,21.9,22.4,35.8,32.3c5.8,4.2,11,10.3,18.3,12.2c7.9-11.5-2.7-46.8,10.5-53.3
	c4.8-2.4,15.5-1,18.3,5.2c-6.4,14.5-7.7,34.2-8.7,54.2c-3.7,1.5-9.8,0.6-14.8,0.8c-0.1,8.1-6.2,14.3-14,14
	c-8.4-0.4-18.4-11.9-26.2-18.4c-9.5-7.8-15.7-17.5-23.6-20.9c-5.5,15,18,50.4-13.1,45.4c-7.5-19-12.7-54.3-14-82.1
	c-0.7-16-1.6-31.6,0.9-44.5C278.9,52.9,288.9,50.2,295.5,53.9"/>
<g>
	<path class="st1" d="M278.8,211.2l1.4,0.8c3.7,1.7,13.9,4.2,24.8-13.7l0,0l0,0l-93.8-190l-26.2,12.9L278.8,211.2
		C278.8,211.2,278.8,211.2,278.8,211.2z"/>
	<polygon class="st1" points="278.8,211.2 278.8,211.2 278.8,211.2 	"/>
</g>
<path class="st0" d="M361.8,81.8C355,59.7,391.6,56.4,395,70.5C399.3,88.2,370.3,98.6,361.8,81.8"/>
<path class="st0" d="M437.8,69.6c1.3,7.9-5.3,15-3.5,26.2c9.3,4.6,28.5-4.3,34.9,4.4c-1.4,13.9-23.2,9.5-35.8,9.6
	c-3.1,22.7,5,46.2,1.8,69c-30,15-15.5-48.5-24.5-68.1c-6.3,1.1-18.8,0.7-19.2-6.1c-0.3-6.8,12.3-9.2,20.1-7.9
	c2-5.9,0.4-15.4,0.9-22.7C415,67,431.1,64.3,437.8,69.6"/>
<rect x="190.8" y="15.7" transform="matrix(0.8968 -0.4425 0.4425 0.8968 8.1323 93.9714)" class="st2" width="29.3" height="27.8"/>
<path class="st3" d="M181.8,14.8c0.1,0.2,0.1,0.4,0.2,0.6c0.1,0.2,0.2,0.4,0.3,0.5l3.9,7.9l26.3-13l-3.9-7.9
	c-0.1-0.2-0.1-0.4-0.2-0.6c-0.1-0.2-0.2-0.4-0.3-0.5l0,0l0,0c-2.2-2.7-9-2.3-15.8,1.1C185.4,6.2,181,11.4,181.8,14.8L181.8,14.8z"/>
<path class="st0" d="M115.9,134.7c-1.4,9.8,11.9,19.3,25.3,15.7c3-5.4,2-18.6,0.9-25.3C131.3,122.9,117.1,126.4,115.9,134.7
	 M38.2,113.7c10.4,7.6,48.5-4.8,44.5,13.1c-2.6,11.7-28.2,5.4-39.3,9.6c-14.4,5.5-5.9,21.3-7,34.9c23,5,44.5-8.9,64.6-14.9
	c0.4-5.8-5.2-7.6-6.1-13.1c-5.1-30.3,42.4-27.1,50.6-41c5.7-9.5,0.2-34.9,16.6-34c15.7,0.8,4.8,23.7,1.7,35.8
	c-5.5,22.1-4.8,47.9-0.9,71.6c-8.6,5.3-17.5-0.8-20.1-7c-13.6,1.9-20.2-3.1-30.6-4.3c-3.1,1.8-2.9,7-5.2,9.6
	c-26.3,9.3-59.6,22.3-94.3,14.9c-8.6-12.7,0-32.8-3.5-49.8c-12.9-1.9-12.3-19.2,0.9-17.4c3.8-14.1-3.7-23.5-2.6-37.6
	c8.1-14.4,28.6-21.2,54.1-19.2C69,65.4,93.3,70.3,94,77.9c1.7,18.6-49.6-4-55.9,11.4C35.3,96.3,41.3,101.5,38.2,113.7"/>
<path class="st0" d="M187.5,108.5c7,13.6,1,60.5,21.8,61.1c13.7,0.4,19.8-19.6,17.5-36.7c-1.8-13.3-11.6-19-12.2-31.4
	c10.1-11.8,26.2,5.8,29.7,14.8c2,5.2,2.2,21,1.7,25.3c-2.3,23.5-27.1,65.8-56.7,41.9c-9.2-7.4-18.9-31.1-21-51.5
	C166.5,114.3,169.2,103.1,187.5,108.5"/>
<polygon class="st0" points="465.8,72.8 463.9,72.8 463.9,72.2 468.5,72.2 468.5,72.8 466.6,72.8 466.6,77.9 465.8,77.9 "/>
<path class="st0" d="M474.5,75.4c0-0.8-0.1-1.8-0.1-2.5h0c-0.2,0.7-0.5,1.4-0.8,2.2l-1.1,2.8h-0.6l-1-2.7c-0.3-0.8-0.5-1.6-0.7-2.2
	h0c0,0.7-0.1,1.7-0.1,2.5l-0.2,2.5H469l0.4-5.8h1l1.1,2.8c0.3,0.7,0.5,1.3,0.6,1.9h0c0.2-0.6,0.4-1.2,0.7-1.9l1.1-2.8h1l0.4,5.8
	h-0.8L474.5,75.4z"/>
<path class="st2" d="M305.1,198.3l2.2,41.2l-28.4-28.3C278.8,211.2,291.5,220.6,305.1,198.3"/>
<path class="st4" d="M307.2,239.5l-0.5-9.3c0,0,0,3.7-5.6,3.2L307.2,239.5z"/>
</svg>
