<?xml version="1.0" standalone="no"?><!DOCTYPE svg PUBLIC "-//W3C//DTD SVG 1.1//EN" "http://www.w3.org/Graphics/SVG/1.1/DTD/svg11.dtd" ><svg xmlns="http://www.w3.org/2000/svg"><metadata></metadata><defs><font id="JosBuivenga: Museo Sans Rounded 900: 2011" horiz-adv-x="1254"><font-face font-family="Museo Sans Rounded 900" font-weight="700" font-stretch="normal" units-per-em="1000" panose-1="2 0 0 0 0 0 0 0 0 0" ascent="940" descent="-260" x-height="0" bbox="-113 -230 1225 918" underline-thickness="50" underline-position="-75" unicode-range="U+0020-fb04" /><missing-glyph horiz-adv-x="604" d="M52 55 q0 -27 14 -41 q14 -14 41 -14 l390 0 q27 0 41 14 q14 14 14 41 l0 590 q0 27 -14 41 q-14 14 -41 14 l-390 0 q-27 0 -41 -14 q-14 -14 -14 -41 l0 -590 ZM302 395 l-170 255 l340 0 l-170 -255 ZM332 350 l170 255 l0 -510 l-170 255 ZM102 95 l0 510 l170 -255 l-170 -255 ZM132 50 l170 255 l170 -255 l-340 0 Z" /><glyph glyph-name="" unicode=" " d="" /><glyph glyph-name="" unicode="!" d="M123 221 l40 0 q26 0 41 14 q14 14 15 40 l12 384 q1 27 -13 42 q-14 14 -41 14 l-68 0 q-27 0 -41 -14 q-14 -15 -13 -42 l12 -384 q1 -26 15 -40 q15 -14 41 -14 l0 0 ZM64 55 q0 -27 14 -41 q14 -14 41 -14 l48 0 q27 0 41 14 q14 14 14 41 l0 40 q0 27 -14 41 q-14 14 -41 14 l-48 0 q-27 0 -41 -14 q-14 -14 -14 -41 l0 -40 Z" /><glyph glyph-name="" unicode="&quot;" d="M286 490 l12 0 q27 0 41 14 q14 14 14 41 l0 130 q0 27 -14 41 q-14 14 -41 14 l-12 0 q-27 0 -41 -14 q-14 -14 -14 -41 l0 -130 q0 -27 14 -41 q14 -14 41 -14 l0 0 ZM95 490 l12 0 q27 0 41 14 q14 14 14 41 l0 130 q0 27 -14 41 q-14 14 -41 14 l-12 0 q-27 0 -41 -14 q-14 -14 -14 -41 l0 -130 q0 -27 14 -41 q14 -14 41 -14 l0 0 Z" /><glyph glyph-name="" unicode="#" d="M104 59 q-4 -28 9 -43 q12 -16 41 -16 l23 0 q51 0 60 50 l22 130 l108 0 l-21 -121 q-4 -28 9 -43 q12 -16 41 -16 l23 0 q51 0 60 50 l22 130 l52 0 q51 0 59 50 l2 11 q4 28 -8 43 q-13 16 -42 16 l-43 0 l17 95 l54 0 q51 0 59 50 l2 11 q4 28 -8 43 q-13 16 -42 16 l-45 0 l25 141 q4 28 -8 43 q-13 16 -42 16 l-23 0 q-51 0 -60 -50 l-26 -150 l-108 0 l25 141 q4 28 -8 43 q-13 16 -42 16 l-23 0 q-51 0 -60 -50 l-26 -150 l-49 0 q-25 0 -39 -13 q-15 -12 -19 -37 l-2 -11 q-4 -28 9 -43 q12 -16 41 -16 l39 0 l-17 -95 l-50 0 q-51 0 -59 -50 l-2 -11 q-4 -28 9 -43 q12 -16 41 -16 l41 0 l-21 -121 ZM279 300 l17 95 l108 0 l-17 -95 l-108 0 Z" /><glyph glyph-name="" unicode="$" d="M65 57 q26 -19 67 -37 q41 -19 97 -28 l0 -46 q0 -22 13 -33 q12 -12 39 -12 l6 0 q26 0 39 14 q12 14 12 41 l0 36 q97 17 148 77 q52 60 52 141 q-20 156 -162 201 q-143 45 -163 99 q1 30 25 43 q23 13 51 13 q32 0 60 -9 q29 -10 50 -22 q25 -14 44 -10 q18 4 31 29 l24 47 q12 23 8 42 q-3 20 -25 33 q-23 15 -58 29 q-36 13 -85 19 l0 46 q0 22 -12 33 q-13 12 -39 12 l-6 0 q-27 0 -39 -14 q-13 -14 -13 -41 l0 -39 q-85 -17 -137 -72 q-52 -56 -54 -141 q20 -152 163 -202 q142 -49 162 -100 q-1 -32 -24 -45 q-23 -12 -51 -12 q-36 1 -69 13 q-33 12 -57 28 q-23 14 -42 12 q-19 -3 -35 -25 l-30 -44 q-15 -21 -13 -41 q2 -20 23 -35 l0 0 Z" /><glyph glyph-name="" unicode="%" d="M212 382 q77 2 128 50 q51 48 53 122 q-2 73 -53 122 q-51 49 -128 51 q-78 -2 -128 -51 q-51 -49 -53 -122 q2 -74 53 -122 q50 -48 128 -50 l0 0 ZM123 67 q-21 -28 -12 -47 q9 -19 45 -20 l25 0 q22 0 38 8 q16 8 29 25 l475 615 q21 28 12 47 q-9 19 -45 20 l-25 0 q-22 0 -38 -8 q-16 -8 -29 -25 l-475 -615 ZM212 502 q-23 1 -39 15 q-15 15 -16 38 q1 22 16 37 q16 14 39 15 q23 -1 39 -15 q15 -15 16 -37 q-1 -23 -16 -38 q-16 -14 -39 -15 l0 0 ZM458 160 q2 -74 53 -122 q50 -48 128 -50 q77 2 128 50 q51 48 53 122 q-2 73 -53 122 q-51 49 -128 51 q-78 -2 -128 -51 q-51 -49 -53 -122 l0 0 ZM584 161 q1 22 16 37 q16 14 39 15 q23 -1 39 -15 q15 -15 16 -37 q-1 -23 -16 -38 q-16 -14 -39 -15 q-23 1 -39 15 q-15 15 -16 38 l0 0 Z" /><glyph glyph-name="" unicode="&amp;" d="M30 207 q1 -94 72 -155 q70 -62 194 -64 q132 3 202 68 q70 66 71 164 l0 69 l34 0 q27 0 41 14 q14 14 14 41 l0 40 q0 27 -14 41 q-14 14 -41 14 l-34 0 l0 44 q0 22 -14 33 q-14 11 -41 11 l-62 0 q-27 0 -41 -14 q-14 -14 -14 -41 l0 -33 l-87 0 q-36 1 -54 21 q-19 20 -19 48 q0 28 17 51 q18 22 57 23 l21 0 q27 0 41 14 q14 14 14 41 l0 35 q0 27 -14 41 q-14 14 -41 14 l-36 0 q-93 1 -163 -44 q-69 -46 -73 -149 q5 -86 42 -120 q37 -35 42 -34 l0 -2 q-52 -22 -82 -68 q-31 -46 -32 -103 l0 0 ZM209 218 q1 40 28 56 q26 16 62 15 l98 0 l0 -59 q0 -36 -26 -59 q-25 -23 -75 -24 q-38 1 -62 21 q-24 20 -25 50 l0 0 Z" /><glyph glyph-name="" unicode="&#39;" d="M95 490 l15 0 q27 0 41 14 q14 14 14 41 l0 130 q0 27 -14 41 q-14 14 -41 14 l-15 0 q-27 0 -41 -14 q-14 -14 -14 -41 l0 -130 q0 -27 14 -41 q14 -14 41 -14 l0 0 Z" /><glyph glyph-name="" unicode="(" d="M137 -62 q10 -18 25 -25 q15 -8 37 -8 l28 0 q32 0 42 18 q11 17 -2 47 q-41 92 -61 187 q-21 95 -21 190 q0 87 20 172 q20 86 58 166 q14 30 4 47 q-11 18 -43 18 l-25 0 q-22 0 -39 -8 q-16 -9 -27 -29 q-49 -84 -75 -176 q-26 -92 -26 -190 q0 -115 28 -218 q27 -104 77 -191 l0 0 Z" /><glyph glyph-name="" unicode=")" d="M35 -27 q-13 -31 -3 -49 q10 -19 42 -19 l27 0 q22 0 38 9 q16 9 27 28 q48 87 75 189 q27 102 27 216 q0 98 -26 190 q-26 92 -75 176 q-11 20 -27 29 q-17 8 -39 8 l-28 0 q-32 0 -41 -18 q-9 -17 5 -47 q38 -80 58 -166 q20 -85 20 -172 q0 -95 -20 -189 q-21 -94 -60 -185 l0 0 Z" /><glyph glyph-name="" unicode="*" d="M128 343 q23 -16 42 -12 q20 4 34 29 l26 46 l2 0 l28 -48 q14 -23 33 -27 q19 -4 42 12 l28 21 q23 17 25 37 q2 20 -17 40 l-37 40 l0 2 l56 12 q26 5 36 23 q9 17 1 43 l-11 33 q-8 26 -27 34 q-18 8 -44 -3 l-50 -22 l6 56 q3 27 -11 42 q-13 14 -41 14 l-36 0 q-28 0 -41 -15 q-14 -15 -11 -43 l5 -54 l-51 23 q-25 10 -42 2 q-18 -9 -27 -35 l-10 -33 q-9 -26 2 -44 q10 -17 37 -23 l53 -11 l0 -2 l-37 -41 q-18 -20 -16 -40 q3 -19 25 -36 l28 -20 Z" /><glyph glyph-name="" unicode="+" d="M97 222 l150 0 l0 -167 q0 -27 14 -41 q14 -14 41 -14 l26 0 q27 0 41 14 q14 14 14 41 l0 167 l150 0 q27 0 41 14 q14 14 14 41 l0 20 q0 27 -14 41 q-14 14 -41 14 l-150 0 l0 168 q0 27 -14 41 q-14 14 -41 14 l-26 0 q-27 0 -41 -14 q-14 -14 -14 -41 l0 -168 l-150 0 q-27 0 -41 -14 q-14 -14 -14 -41 l0 -20 q0 -27 14 -41 q14 -14 41 -14 l0 0 Z" /><glyph glyph-name="" unicode="," d="M15 -49 q-8 -29 4 -46 q13 -16 43 -16 l17 0 q23 0 39 10 q16 11 24 33 l70 170 q12 29 0 46 q-12 18 -43 18 l-47 0 q-25 0 -40 -11 q-15 -12 -22 -36 l-45 -168 Z" /><glyph glyph-name="" unicode="-" d="M104 212 l204 0 q27 0 41 14 q14 14 14 41 l0 40 q0 27 -14 41 q-14 14 -41 14 l-204 0 q-27 0 -41 -14 q-14 -14 -14 -41 l0 -40 q0 -27 14 -41 q14 -14 41 -14 l0 0 Z" /><glyph glyph-name="" unicode="." d="M44 55 q0 -27 14 -41 q14 -14 41 -14 l54 0 q27 0 41 14 q14 14 14 41 l0 54 q0 27 -14 41 q-14 14 -41 14 l-54 0 q-27 0 -41 -14 q-14 -14 -14 -41 l0 -54 Z" /><glyph glyph-name="" unicode="/" d="M31 20 q-9 -29 4 -45 q12 -17 42 -17 l30 0 q25 0 40 11 q16 12 23 34 l221 684 q9 30 -3 46 q-13 17 -43 17 l-30 0 q-25 0 -40 -11 q-16 -11 -23 -34 l-221 -685 Z" /><glyph glyph-name="" unicode="0" d="M314 -12 q150 4 211 109 q60 104 58 262 q2 158 -58 261 q-61 103 -211 107 q-150 -4 -211 -107 q-60 -103 -58 -261 q-2 -158 58 -262 q61 -105 211 -109 l0 0 ZM314 148 q-51 2 -70 62 q-20 59 -19 149 q-1 89 19 148 q19 58 70 60 q51 -2 70 -60 q20 -59 19 -148 q1 -90 -19 -149 q-19 -60 -70 -62 l0 0 Z" /><glyph glyph-name="" unicode="1" d="M40 55 q0 -27 14 -41 q14 -14 41 -14 l366 0 q27 0 41 14 q14 14 14 41 l0 40 q0 27 -14 41 q-14 14 -41 14 l-98 0 l0 510 q0 27 -14 41 q-14 14 -41 14 l-57 0 q-21 0 -37 -6 q-16 -7 -31 -21 l-124 -116 q-20 -19 -20 -39 q-1 -19 18 -39 l26 -28 q18 -19 38 -20 q19 -1 39 17 l9 8 q9 9 16 20 q6 11 6 12 l2 0 q0 -1 0 -17 q-1 -17 -1 -38 l0 -298 l-97 0 q-27 0 -41 -14 q-14 -14 -14 -41 l0 -40 Z" /><glyph glyph-name="" unicode="2" d="M36 55 q1 -27 17 -41 q16 -14 42 -14 l389 0 q27 0 41 14 q14 14 14 41 l0 40 q0 27 -14 41 q-14 14 -41 14 l-254 0 q25 62 152 130 q128 68 146 228 q-4 113 -78 167 q-74 53 -166 52 q-89 -2 -143 -36 q-54 -34 -80 -71 q-16 -20 -11 -39 q4 -18 25 -35 l39 -31 q20 -16 40 -11 q19 4 38 23 q13 14 32 24 q20 11 44 11 q29 0 52 -17 q24 -17 25 -54 q-19 -69 -154 -147 q-136 -78 -155 -267 l0 -22 Z" /><glyph glyph-name="" unicode="3" d="M54 49 q30 -22 81 -41 q51 -19 124 -20 q134 4 200 76 q65 73 65 168 q-1 76 -47 132 q-46 56 -126 75 l120 138 q13 15 19 31 q6 16 6 37 l0 16 q0 26 -14 40 q-14 14 -41 14 l-341 0 q-27 0 -41 -14 q-14 -14 -14 -41 l0 -40 q0 -27 14 -41 q14 -14 41 -14 l116 0 q34 0 51 3 q17 2 17 2 l0 -2 q-1 0 -18 -18 q-18 -18 -44 -49 l-65 -79 q-15 -17 -18 -35 q-4 -19 5 -36 l5 -10 q10 -21 24 -29 q14 -9 38 -9 l4 0 q59 0 95 -18 q37 -19 38 -61 q0 -30 -27 -50 q-26 -20 -75 -21 q-30 0 -56 9 q-26 9 -46 21 q-23 15 -42 12 q-19 -3 -33 -26 l-27 -44 q-14 -22 -11 -41 q2 -20 23 -35 l0 0 Z" /><glyph glyph-name="" unicode="4" d="M69 173 l262 0 l0 -118 q0 -27 14 -41 q14 -14 41 -14 l63 0 q27 0 41 14 q14 14 14 41 l0 118 l43 0 q20 0 31 14 q11 14 11 41 l0 35 q0 27 -14 41 q-14 14 -41 14 l-30 0 l0 342 q0 27 -14 41 q-14 14 -41 14 l-116 0 q-22 0 -38 -9 q-16 -8 -28 -27 l-233 -369 q-11 -16 -16 -32 q-4 -16 -4 -36 l0 -14 q0 -27 14 -41 q14 -14 41 -14 l0 0 ZM192 318 l0 2 l108 164 q15 24 25 48 q10 24 10 26 l2 0 q0 -1 -3 -25 q-3 -24 -3 -55 l0 -160 l-139 0 Z" /><glyph glyph-name="" unicode="5" d="M64 50 q30 -22 82 -41 q51 -20 123 -21 q119 2 191 72 q72 70 74 183 q0 99 -64 166 q-64 66 -192 69 q-21 0 -36 -3 q-15 -4 -16 -4 l-2 0 q0 0 2 9 q2 8 2 19 l4 66 l193 0 q27 0 41 14 q14 14 14 41 l0 40 q0 27 -14 41 q-14 14 -41 14 l-292 0 q-52 0 -57 -53 l-21 -273 q-2 -24 8 -40 q10 -16 33 -25 l11 -4 q19 -7 37 -6 q17 1 37 7 q12 4 27 6 q15 3 32 3 q50 0 81 -23 q32 -24 33 -66 q-2 -44 -32 -66 q-31 -22 -68 -22 q-29 0 -55 9 q-25 9 -45 21 q-23 15 -42 12 q-19 -3 -33 -26 l-27 -44 q-14 -21 -11 -41 q2 -19 23 -34 l0 0 Z" /><glyph glyph-name="" unicode="6" d="M40 324 q5 -169 91 -252 q86 -84 199 -84 q118 4 181 81 q62 76 63 173 q-1 92 -58 160 q-58 69 -164 72 q-46 -1 -74 -13 q-29 -11 -39 -22 l-2 0 q16 55 53 91 q38 36 104 37 q15 0 27 -2 q11 -2 23 -4 q24 -5 40 2 q15 7 24 35 l15 47 q8 26 0 44 q-9 17 -34 25 q-19 5 -48 9 q-29 4 -59 4 q-166 -6 -254 -125 q-87 -118 -88 -278 l0 0 ZM220 280 q1 32 19 43 q18 11 47 10 q65 -2 91 -33 q26 -31 25 -69 q-1 -37 -20 -60 q-20 -22 -51 -23 q-47 3 -78 44 q-32 42 -33 88 l0 0 Z" /><glyph glyph-name="" unicode="7" d="M84 65 q-14 -29 -3 -47 q11 -17 43 -18 l65 0 q23 0 39 10 q16 9 26 30 l264 521 q9 17 13 33 q3 16 3 35 l0 31 q0 27 -14 41 q-14 14 -41 14 l-403 0 q-27 0 -41 -14 q-14 -14 -14 -41 l0 -40 q0 -27 14 -41 q14 -14 41 -14 l228 0 q26 0 35 2 q8 1 7 1 l0 -2 q0 1 -12 -14 q-11 -15 -30 -51 l-220 -436 Z" /><glyph glyph-name="" unicode="8" d="M39 204 q0 -84 68 -148 q67 -65 199 -68 q133 4 199 68 q67 65 67 148 q-1 52 -26 91 q-26 39 -67 64 q17 17 44 61 q27 45 30 108 q-3 94 -72 146 q-70 52 -176 53 q-122 -3 -180 -64 q-58 -62 -58 -140 q0 -47 21 -81 q20 -34 54 -60 q-24 -16 -62 -62 q-37 -46 -41 -116 l0 0 ZM358 419 q-55 21 -87 43 q-32 21 -33 57 q0 25 16 41 q17 16 53 17 q37 0 57 -18 q20 -19 20 -54 q0 -30 -8 -51 q-8 -21 -18 -35 l0 0 ZM214 224 q1 31 14 52 q13 22 27 36 q68 -28 103 -48 q35 -21 35 -54 q-1 -33 -24 -52 q-24 -20 -61 -20 q-43 1 -68 24 q-25 24 -26 62 l0 0 Z" /><glyph glyph-name="" unicode="9" d="M87 70 q-8 -26 1 -44 q8 -17 33 -25 q19 -5 48 -9 q29 -4 59 -4 q168 6 255 125 q87 120 87 278 q-5 169 -91 252 q-87 84 -200 84 q-116 -4 -179 -78 q-63 -74 -64 -170 q1 -94 59 -164 q58 -70 160 -74 q40 1 72 11 q31 11 44 24 l2 0 q-16 -55 -53 -91 q-38 -36 -104 -37 q-15 0 -26 2 q-12 2 -24 4 q-24 5 -39 -2 q-16 -7 -25 -35 l-15 -47 ZM324 382 q-65 2 -91 33 q-26 31 -25 69 q1 37 20 60 q20 22 51 23 q47 -3 78 -44 q32 -42 33 -88 q-1 -32 -19 -43 q-18 -11 -47 -10 l0 0 Z" /><glyph glyph-name="" unicode=":" d="M106 351 l54 0 q27 0 41 14 q14 14 14 41 l0 54 q0 27 -14 41 q-14 14 -41 14 l-54 0 q-27 0 -41 -14 q-14 -14 -14 -41 l0 -54 q0 -27 14 -41 q14 -14 41 -14 l0 0 ZM51 55 q0 -27 14 -41 q14 -14 41 -14 l54 0 q27 0 41 14 q14 14 14 41 l0 54 q0 27 -14 41 q-14 14 -41 14 l-54 0 q-27 0 -41 -14 q-14 -14 -14 -41 l0 -54 Z" /><glyph glyph-name="" unicode=";" d="M130 351 l48 0 q27 0 41 14 q14 14 14 41 l0 54 q0 27 -14 41 q-14 14 -41 14 l-48 0 q-27 0 -41 -14 q-14 -14 -14 -41 l0 -54 q0 -27 14 -41 q14 -14 41 -14 l0 0 ZM19 -50 q-6 -29 6 -45 q13 -16 42 -16 l19 0 q24 0 39 11 q16 11 24 33 l63 170 q11 29 -1 46 q-12 17 -43 17 l-49 0 q-49 0 -60 -48 l-40 -168 Z" /><glyph glyph-name="" unicode="&lt;" d="M93 216 l398 -177 q29 -12 46 -1 q18 11 18 43 l0 29 q0 23 -11 39 q-10 15 -32 24 l-287 113 l0 2 l287 114 q22 9 32 24 q11 16 11 39 l0 29 q0 31 -18 42 q-17 11 -46 -1 l-398 -176 q-22 -9 -32 -24 q-10 -16 -10 -40 l0 -15 q0 -24 10 -39 q10 -16 32 -25 l0 0 Z" /><glyph glyph-name="" unicode="=" d="M117 337 l396 0 q27 0 41 14 q14 14 14 41 l0 20 q0 27 -14 41 q-14 14 -41 14 l-396 0 q-27 0 -41 -14 q-14 -14 -14 -41 l0 -20 q0 -27 14 -41 q14 -14 41 -14 l0 0 ZM117 107 l396 0 q27 0 41 14 q14 14 14 41 l0 20 q0 27 -14 41 q-14 14 -41 14 l-396 0 q-27 0 -41 -14 q-14 -14 -14 -41 l0 -20 q0 -27 14 -41 q14 -14 41 -14 l0 0 Z" /><glyph glyph-name="" unicode="&gt;" d="M75 81 q0 -31 18 -42 q17 -11 46 1 l398 176 q22 9 32 25 q10 15 10 39 l0 15 q0 24 -10 40 q-10 15 -32 24 l-398 177 q-29 12 -46 1 q-18 -11 -18 -43 l0 -29 q0 -23 11 -39 q10 -15 32 -24 l287 -114 l0 -2 l-287 -113 q-22 -9 -32 -24 q-11 -16 -11 -39 l0 -29 Z" /><glyph glyph-name="" unicode="?" d="M171 221 l57 0 q23 0 35 8 q12 8 17 28 l3 12 q23 54 92 105 q69 51 78 160 q-4 97 -74 146 q-71 50 -159 50 q-56 -1 -98 -16 q-42 -15 -68 -33 q-22 -14 -23 -33 q-1 -18 14 -40 l24 -36 q15 -21 36 -23 q21 -2 45 10 q12 6 25 10 q13 4 27 4 q29 0 50 -17 q20 -16 21 -42 q-10 -55 -78 -103 q-69 -48 -79 -125 l0 -10 q0 -27 14 -41 q14 -14 41 -14 l0 0 ZM120 55 q0 -27 14 -41 q14 -14 41 -14 l48 0 q27 0 41 14 q14 14 14 41 l0 40 q0 27 -14 41 q-14 14 -41 14 l-48 0 q-27 0 -41 -14 q-14 -14 -14 -41 l0 -40 Z" /><glyph glyph-name="" unicode="@" d="M38 239 q1 -146 97 -246 q95 -101 267 -120 q28 -3 42 12 q15 14 15 41 l0 21 q0 26 -14 39 q-13 14 -39 18 q-98 19 -148 84 q-51 65 -51 151 q2 94 65 166 q63 71 162 75 q49 0 91 -16 q41 -16 44 -48 l-49 0 q-115 -3 -171 -55 q-56 -52 -56 -121 q0 -71 57 -125 q57 -54 170 -57 l228 0 q27 0 41 14 q14 14 14 41 l0 9 q0 27 -14 41 q-14 14 -41 14 l-19 0 l0 198 q2 100 -66 169 q-68 68 -232 71 q-172 -4 -281 -109 q-109 -105 -112 -267 l0 0 ZM464 244 q0 28 17 47 q17 19 51 20 l37 0 l0 -134 l-39 0 q-33 1 -49 20 q-17 19 -17 47 l0 0 Z" /><glyph glyph-name="" unicode="a" d="M13 63 q-9 -29 3 -46 q12 -17 42 -17 l66 0 q48 0 61 46 l30 104 l223 0 l30 -104 q7 -23 23 -35 q15 -11 39 -11 l66 0 q30 0 42 17 q12 17 3 46 l-207 607 q-7 23 -23 34 q-15 11 -39 11 l-90 0 q-24 0 -39 -11 q-16 -11 -23 -34 l-207 -607 ZM256 290 l41 139 q10 37 19 78 q9 42 10 45 l2 0 q1 -3 10 -45 q9 -41 19 -78 l40 -139 l-141 0 Z" /><glyph glyph-name="" unicode="b" d="M69 55 q0 -27 14 -41 q14 -14 41 -14 l208 0 q110 -1 189 48 q79 49 83 165 q1 49 -25 95 q-26 45 -87 66 l0 2 q41 24 62 65 q21 41 21 87 q-2 92 -68 140 q-66 47 -175 47 l-208 0 q-27 0 -41 -14 q-14 -14 -14 -41 l0 -605 ZM244 438 l0 127 l87 0 q35 -1 51 -18 q15 -18 15 -43 q0 -26 -15 -46 q-15 -19 -48 -20 l-90 0 ZM244 150 l0 148 l106 0 q38 -1 57 -21 q18 -21 18 -52 q0 -31 -19 -52 q-19 -22 -57 -23 l-105 0 Z" /><glyph glyph-name="" unicode="c" d="M32 359 q2 -162 101 -265 q100 -103 274 -106 q91 2 154 29 q62 28 96 56 q20 16 22 36 q1 20 -13 41 l-28 39 q-16 22 -35 24 q-19 2 -42 -14 q-26 -19 -63 -34 q-38 -16 -83 -17 q-103 4 -153 68 q-49 64 -49 147 q-1 80 47 141 q49 60 155 63 q40 -1 74 -13 q34 -12 59 -27 q23 -14 42 -11 q19 3 33 26 l25 41 q14 22 11 41 q-2 20 -23 35 q-32 23 -89 45 q-57 21 -140 23 q-168 -3 -270 -106 q-102 -102 -105 -262 l0 0 Z" /><glyph glyph-name="" unicode="d" d="M69 55 q0 -27 14 -41 q14 -14 41 -14 l199 0 q171 1 269 95 q98 94 100 264 q-2 170 -100 262 q-98 93 -269 94 l-199 0 q-27 0 -41 -14 q-14 -14 -14 -41 l0 -605 ZM244 150 l0 415 l72 0 q90 0 142 -52 q52 -52 53 -154 q-1 -103 -52 -156 q-51 -53 -143 -53 l-72 0 Z" /><glyph glyph-name="" unicode="e" d="M69 55 q0 -27 14 -41 q14 -14 41 -14 l352 0 q27 0 41 14 q14 14 14 41 l0 40 q0 27 -14 41 q-14 14 -41 14 l-232 0 l0 135 l163 0 q27 0 41 14 q14 14 14 41 l0 40 q0 27 -14 41 q-14 14 -41 14 l-163 0 l0 130 l218 0 q27 0 41 14 q14 14 14 41 l0 40 q0 27 -14 41 q-14 14 -41 14 l-338 0 q-27 0 -41 -14 q-14 -14 -14 -41 l0 -605 Z" /><glyph glyph-name="" unicode="f" d="M69 55 q0 -27 14 -41 q14 -14 41 -14 l65 0 q27 0 41 14 q14 14 14 41 l0 210 l163 0 q27 0 41 14 q14 14 14 41 l0 40 q0 27 -14 41 q-14 14 -41 14 l-163 0 l0 150 l208 0 q27 0 41 14 q14 14 14 41 l0 40 q0 27 -14 41 q-14 14 -41 14 l-328 0 q-27 0 -41 -14 q-14 -14 -14 -41 l0 -605 Z" /><glyph glyph-name="" unicode="g" d="M32 353 q5 -170 107 -267 q102 -96 245 -98 q95 4 143 34 q47 29 47 33 l2 0 q0 0 0 -3 q-1 -2 -1 -7 l0 -2 q0 -18 14 -30 q14 -13 41 -13 l33 0 q27 0 41 14 q14 14 14 41 l0 294 q0 27 -14 41 q-14 14 -41 14 l-146 0 q-27 0 -41 -14 q-14 -14 -14 -41 l0 -39 q0 -27 14 -41 q14 -14 41 -14 l46 0 l0 -49 q0 -4 -35 -29 q-36 -25 -112 -29 q-84 1 -142 58 q-59 57 -61 157 q-1 84 49 143 q50 58 157 61 q46 -1 77 -11 q32 -11 56 -24 q25 -13 43 -10 q19 3 33 25 l26 41 q14 23 11 41 q-3 19 -25 35 q-23 18 -84 39 q-61 22 -148 24 q-167 -3 -270 -105 q-103 -103 -106 -269 l0 0 Z" /><glyph glyph-name="" unicode="h" d="M69 55 q0 -27 14 -41 q14 -14 41 -14 l65 0 q27 0 41 14 q14 14 14 41 l0 225 l260 0 l0 -225 q0 -27 14 -41 q14 -14 41 -14 l65 0 q27 0 41 14 q14 14 14 41 l0 605 q0 27 -14 41 q-14 14 -41 14 l-65 0 q-27 0 -41 -14 q-14 -14 -14 -41 l0 -231 l-260 0 l0 231 q0 27 -14 41 q-14 14 -41 14 l-65 0 q-27 0 -41 -14 q-14 -14 -14 -41 l0 -605 Z" /><glyph glyph-name="" unicode="i" d="M69 55 q0 -27 14 -41 q14 -14 41 -14 l65 0 q27 0 41 14 q14 14 14 41 l0 605 q0 27 -14 41 q-14 14 -41 14 l-65 0 q-27 0 -41 -14 q-14 -14 -14 -41 l0 -605 Z" /><glyph glyph-name="" unicode="j" d="M13 217 q4 -113 75 -171 q71 -58 165 -58 q93 0 164 57 q71 57 75 175 l0 440 q0 27 -14 41 q-14 14 -41 14 l-257 0 q-27 0 -41 -14 q-14 -14 -14 -41 l0 -40 q0 -27 14 -41 q14 -14 41 -14 l137 0 l0 -341 q0 -39 -18 -57 q-17 -19 -46 -19 q-31 1 -47 23 q-15 21 -18 50 q-3 27 -14 39 q-12 12 -39 12 l-67 0 q-27 0 -41 -14 q-14 -14 -14 -41 l0 0 Z" /><glyph glyph-name="" unicode="k" d="M69 55 q0 -27 14 -41 q14 -14 41 -14 l65 0 q27 0 41 14 q14 14 14 41 l0 235 l72 0 l130 -251 q11 -20 27 -30 q16 -9 38 -9 l77 0 q33 1 44 19 q10 18 -5 47 l-168 305 l0 2 l156 276 q15 29 5 47 q-11 18 -44 19 l-68 0 q-22 0 -38 -9 q-16 -10 -27 -30 l-127 -237 l-72 0 l0 221 q0 27 -14 41 q-14 14 -41 14 l-65 0 q-27 0 -41 -14 q-14 -14 -14 -41 l0 -605 Z" /><glyph glyph-name="" unicode="l" d="M69 55 q0 -27 14 -41 q14 -14 41 -14 l357 0 q27 0 41 14 q14 14 14 41 l0 40 q0 27 -14 41 q-14 14 -41 14 l-237 0 l0 510 q0 27 -14 41 q-14 14 -41 14 l-65 0 q-27 0 -41 -14 q-14 -14 -14 -41 l0 -605 Z" /><glyph glyph-name="" unicode="m" d="M48 57 q-2 -27 11 -42 q14 -15 41 -15 l66 0 q53 0 57 53 l18 269 q3 43 2 80 q-2 38 -2 40 l2 0 q1 -3 14 -43 q13 -40 26 -77 l59 -163 q8 -22 24 -33 q15 -11 39 -11 l56 0 q24 0 39 11 q16 11 24 33 l59 163 q13 37 26 77 q13 40 14 43 l2 0 q0 -2 -1 -40 q-2 -37 1 -80 l18 -269 q5 -53 57 -53 l65 0 q27 0 41 15 q13 15 11 42 l-49 605 q-4 53 -57 53 l-90 0 q-24 0 -39 -11 q-16 -11 -23 -34 l-89 -257 q-13 -38 -24 -76 q-11 -39 -12 -42 l-2 0 q-1 3 -12 42 q-11 38 -24 76 l-89 257 q-7 23 -23 34 q-15 11 -39 11 l-90 0 q-52 0 -57 -53 l-50 -605 Z" /><glyph glyph-name="" unicode="n" d="M69 55 q0 -27 14 -41 q14 -14 41 -14 l65 0 q27 0 41 14 q14 14 14 41 l0 278 q0 37 -4 78 q-3 41 -4 44 l2 0 q1 -3 20 -43 q18 -41 40 -79 l177 -296 q11 -19 27 -28 q16 -9 38 -9 l78 0 q27 0 41 14 q14 14 14 41 l0 605 q0 27 -14 41 q-14 14 -41 14 l-65 0 q-27 0 -41 -14 q-14 -14 -14 -41 l0 -279 q1 -37 4 -78 q4 -41 4 -44 l-2 0 q-1 3 -19 43 q-19 41 -41 79 l-176 297 q-11 19 -27 28 q-16 9 -39 9 l-78 0 q-27 0 -41 -14 q-14 -14 -14 -41 l0 -605 Z" /><glyph glyph-name="" unicode="o" d="M32 362 q3 -161 104 -266 q101 -104 270 -108 q169 4 270 108 q101 105 104 266 q-3 157 -104 259 q-101 102 -270 106 q-169 -4 -270 -106 q-101 -102 -104 -259 l0 0 ZM213 362 q1 90 54 146 q53 57 139 59 q86 -2 139 -59 q53 -56 54 -146 q-1 -93 -54 -153 q-53 -59 -139 -61 q-86 2 -139 61 q-53 60 -54 153 l0 0 Z" /><glyph glyph-name="" unicode="p" d="M69 55 q0 -27 14 -41 q14 -14 41 -14 l65 0 q27 0 41 14 q14 14 14 41 l0 166 l122 0 q106 2 169 70 q62 68 64 178 q-2 110 -64 177 q-63 67 -169 69 l-242 0 q-27 0 -41 -14 q-14 -14 -14 -41 l0 -605 ZM244 371 l0 194 l89 0 q44 -1 66 -27 q22 -26 22 -69 q0 -44 -23 -70 q-22 -27 -68 -28 l-86 0 Z" /><glyph glyph-name="" unicode="q" d="M32 362 q3 -161 104 -266 q101 -104 270 -108 q59 0 111 15 q51 15 95 44 l37 -34 q17 -17 36 -15 q19 1 37 21 l25 28 q18 20 16 41 q-2 20 -23 37 l-31 25 q32 45 51 98 q20 53 20 114 q-3 157 -104 259 q-102 102 -270 106 q-169 -4 -270 -106 q-101 -102 -104 -259 l0 0 ZM213 362 q1 90 54 146 q53 57 139 59 q84 -2 138 -59 q53 -56 55 -146 q0 -25 -5 -48 q-5 -23 -14 -44 l-35 35 q-17 16 -36 14 q-19 -2 -37 -22 l-25 -28 q-17 -20 -16 -40 q1 -20 21 -37 l32 -28 q-17 -8 -37 -12 q-21 -4 -41 -4 q-86 2 -139 61 q-53 60 -54 153 l0 0 Z" /><glyph glyph-name="" unicode="r" d="M69 55 q0 -27 14 -41 q14 -14 41 -14 l65 0 q27 0 41 14 q14 14 14 41 l0 186 l82 0 l106 -202 q11 -20 27 -30 q16 -9 38 -9 l76 0 q33 1 43 19 q11 18 -5 47 l-102 184 q-13 22 -20 33 q-7 10 -7 10 l0 2 q53 29 80 83 q27 53 27 112 q-1 78 -36 131 q-35 53 -96 77 q-22 9 -54 13 q-31 4 -85 4 l-194 0 q-27 0 -41 -14 q-14 -14 -14 -41 l0 -605 ZM244 391 l0 174 l59 0 q22 0 38 -2 q16 -3 28 -8 q24 -10 33 -29 q9 -20 9 -47 q0 -43 -24 -65 q-25 -23 -67 -23 l-76 0 Z" /><glyph glyph-name="" unicode="s" d="M56 59 q30 -24 90 -47 q61 -22 137 -24 q121 3 186 67 q64 63 65 156 q-20 158 -158 198 q-138 41 -158 107 q0 22 18 36 q19 14 60 14 q35 -1 62 -10 q27 -10 51 -23 q21 -12 41 -10 q19 1 34 29 l24 47 q12 22 8 41 q-3 18 -25 34 q-27 19 -78 36 q-52 16 -115 17 q-111 -1 -182 -60 q-71 -59 -73 -159 q20 -157 158 -201 q138 -43 158 -108 q0 -21 -18 -35 q-19 -14 -58 -15 q-47 2 -80 18 q-33 15 -50 26 q-25 14 -43 11 q-18 -2 -33 -24 l-31 -45 q-18 -27 -13 -45 q6 -19 23 -31 l0 0 Z" /><glyph glyph-name="" unicode="t" d="M223 55 q0 -27 14 -41 q14 -14 41 -14 l65 0 q27 0 41 14 q14 14 14 41 l0 510 l162 0 q27 0 41 14 q14 14 14 41 l0 40 q0 27 -14 41 q-14 14 -41 14 l-499 0 q-27 0 -41 -14 q-14 -14 -14 -41 l0 -40 q0 -27 14 -41 q14 -14 41 -14 l162 0 l0 -510 Z" /><glyph glyph-name="" unicode="u" d="M62 263 q2 -123 82 -198 q80 -75 218 -77 q137 2 217 77 q79 75 81 198 l0 397 q0 27 -14 41 q-14 14 -41 14 l-65 0 q-27 0 -41 -14 q-14 -14 -14 -41 l0 -397 q-1 -56 -34 -86 q-33 -29 -90 -29 q-57 0 -90 29 q-33 30 -34 86 l0 397 q0 27 -14 41 q-14 14 -41 14 l-65 0 q-27 0 -41 -14 q-14 -14 -14 -41 l0 -397 Z" /><glyph glyph-name="" unicode="v" d="M223 44 q8 -22 24 -33 q15 -11 39 -11 l88 0 q24 0 39 11 q16 11 24 33 l214 608 q10 29 -2 46 q-12 17 -43 17 l-72 0 q-25 0 -40 -11 q-15 -12 -22 -35 l-114 -361 q-11 -37 -19 -74 q-8 -38 -8 -41 l-2 0 q0 3 -8 41 q-8 37 -19 74 l-112 361 q-7 23 -22 35 q-15 11 -40 11 l-75 0 q-31 0 -43 -17 q-12 -17 -2 -46 l215 -608 Z" /><glyph glyph-name="" unicode="w" d="M175 48 q12 -48 61 -48 l99 0 q49 0 61 48 l78 313 q8 35 11 59 q3 24 3 25 l2 0 q0 -1 3 -25 q3 -24 11 -59 l78 -313 q12 -48 61 -48 l97 0 q25 0 40 12 q15 11 21 35 l154 607 q7 29 -6 45 q-13 16 -42 16 l-68 0 q-51 0 -61 -48 l-87 -399 q-6 -34 -8 -54 q-1 -20 -1 -21 l-2 0 q0 1 -2 21 q-2 20 -10 54 l-96 399 q-10 48 -60 48 l-43 0 q-49 0 -61 -48 l-98 -399 q-8 -34 -10 -54 q-2 -20 -2 -21 l-2 0 q0 1 -1 21 q-2 20 -8 54 l-80 398 q-10 49 -60 49 l-71 0 q-29 0 -42 -16 q-13 -16 -6 -45 l147 -606 Z" /><glyph glyph-name="" unicode="x" d="M39 66 q-17 -29 -6 -47 q10 -18 44 -19 l72 0 q22 0 38 9 q16 10 27 30 l61 111 q19 35 31 61 q13 27 13 28 l2 0 q0 -1 13 -28 q12 -26 31 -61 l61 -111 q11 -20 27 -30 q16 -9 38 -9 l73 0 q34 1 44 19 q11 18 -7 47 l-177 289 l179 294 q17 29 7 47 q-11 18 -44 19 l-78 0 q-22 0 -38 -9 q-16 -10 -27 -30 l-58 -108 q-19 -36 -31 -63 q-13 -28 -13 -29 l-2 0 q0 2 -13 29 q-12 28 -31 63 l-57 108 q-11 20 -27 30 q-16 9 -38 9 l-78 0 q-33 -1 -44 -19 q-10 -18 7 -47 l178 -294 l-177 -289 Z" /><glyph glyph-name="" unicode="y" d="M213 55 q0 -27 14 -41 q14 -14 41 -14 l65 0 q27 0 41 14 q14 14 14 41 l0 238 l199 356 q16 29 5 47 q-10 18 -43 19 l-79 0 q-23 0 -39 -10 q-15 -10 -25 -31 l-61 -131 q-18 -39 -30 -70 q-12 -31 -13 -33 l-2 0 q-1 2 -13 33 q-12 31 -30 70 l-62 131 q-10 21 -25 31 q-16 10 -39 10 l-79 0 q-33 -1 -43 -19 q-11 -18 5 -47 l199 -356 l0 -238 Z" /><glyph glyph-name="" unicode="z" d="M30 55 q0 -27 14 -41 q14 -14 41 -14 l448 0 q27 0 41 14 q14 14 14 41 l0 40 q0 27 -14 41 q-14 14 -41 14 l-227 0 q-24 0 -39 -1 q-16 -2 -16 -2 l0 2 q1 0 16 16 q15 16 39 49 l255 362 q12 16 17 33 q5 16 5 36 l0 16 q0 26 -14 40 q-14 14 -41 14 l-430 0 q-27 0 -41 -14 q-14 -14 -14 -41 l0 -40 q0 -27 14 -41 q14 -14 41 -14 l208 0 q24 0 40 2 q15 1 15 1 l0 -2 q-1 0 -16 -16 q-15 -16 -39 -49 l-254 -360 q-12 -16 -17 -33 q-5 -16 -5 -36 l0 -17 Z" /><glyph glyph-name="" unicode="[" d="M61 -40 q0 -27 14 -41 q14 -14 41 -14 l136 0 q27 0 41 14 q14 14 14 41 l0 10 q0 27 -14 41 q-14 14 -41 14 l-47 0 l0 605 l51 0 q25 0 38 14 q13 14 13 41 l0 10 q0 27 -14 41 q-14 14 -41 14 l-136 0 q-27 0 -41 -14 q-14 -14 -14 -41 l0 -735 Z" /><glyph glyph-name="" unicode="\" d="M252 3 q7 -22 23 -34 q15 -11 40 -11 l30 0 q30 0 43 17 q12 16 3 45 l-221 685 q-7 23 -23 34 q-15 11 -40 11 l-30 0 q-30 0 -42 -17 q-13 -16 -4 -46 l221 -684 Z" /><glyph glyph-name="" unicode="]" d="M25 -30 l0 -10 q0 -27 14 -41 q14 -14 41 -14 l136 0 q27 0 41 14 q14 14 14 41 l0 735 q0 27 -14 41 q-14 14 -41 14 l-136 0 q-27 0 -41 -14 q-14 -14 -14 -41 l0 -10 q0 -27 14 -41 q14 -14 41 -14 l47 0 l0 -605 l-47 0 q-27 0 -41 -14 q-14 -14 -14 -41 l0 0 Z" /><glyph glyph-name="" unicode="^" d="M128 241 l28 0 q24 0 39 11 q16 11 24 33 l95 256 l96 -256 q8 -22 24 -33 q15 -11 39 -11 l28 0 q32 0 43 18 q12 17 0 46 l-158 368 q-9 22 -24 32 q-16 10 -40 10 l-15 0 q-24 0 -39 -10 q-16 -10 -25 -32 l-158 -368 q-12 -29 0 -46 q11 -18 43 -18 l0 0 Z" /><glyph glyph-name="" unicode="_" d="M-6 -55 l0 -20 q0 -27 14 -41 q14 -14 41 -14 l486 0 q27 0 41 14 q14 14 14 41 l0 20 q0 27 -14 41 q-14 14 -41 14 l-486 0 q-27 0 -41 -14 q-14 -14 -14 -41 l0 0 Z" /><glyph glyph-name="" unicode="`" d="M275 761 l36 0 q27 1 32 19 q5 18 -7 41 l-28 51 q-11 20 -27 30 q-16 9 -38 9 l-46 0 q-35 -1 -42 -20 q-8 -19 14 -47 l39 -50 q13 -17 29 -25 q16 -8 38 -8 l0 0 Z" /><glyph glyph-name="" unicode="a" d="M16 145 q1 -68 47 -112 q46 -44 121 -45 q77 5 115 41 q37 36 37 41 l2 0 q0 0 0 -3 q-1 -2 -1 -7 l0 -4 q0 -28 14 -42 q14 -14 41 -14 l48 0 q27 0 41 14 q14 14 14 41 l0 262 q-1 99 -62 154 q-60 55 -168 56 q-56 -1 -100 -13 q-44 -13 -73 -27 q-23 -12 -28 -31 q-5 -20 6 -43 l12 -25 q12 -24 31 -29 q18 -6 43 5 q20 9 44 16 q24 7 49 7 q30 0 51 -12 q21 -13 22 -45 l0 -9 l-15 0 q-102 2 -193 -36 q-92 -38 -98 -140 l0 0 ZM187 161 q3 35 41 48 q38 14 80 13 l16 0 l0 -14 q-1 -33 -25 -61 q-25 -28 -63 -30 q-24 1 -36 13 q-13 13 -13 31 l0 0 Z" /><glyph glyph-name="" unicode="b" d="M52 55 q0 -27 14 -41 q14 -14 41 -14 l49 0 q27 0 41 13 q14 12 14 33 l0 4 q0 5 0 7 q-1 3 -1 3 l2 0 q-1 -4 33 -36 q33 -31 114 -36 q102 1 168 74 q67 72 69 198 q-2 120 -64 192 q-62 73 -165 75 q-72 -4 -107 -32 q-35 -29 -35 -33 l-2 0 q0 0 1 12 q1 12 1 32 l0 154 q0 27 -14 41 q-14 14 -41 14 l-63 0 q-27 0 -41 -14 q-14 -14 -14 -41 l0 -605 ZM220 259 q1 61 31 92 q30 30 71 30 q45 -1 72 -35 q27 -34 28 -91 q-1 -60 -30 -92 q-29 -32 -73 -32 q-49 2 -74 38 q-25 37 -25 90 l0 0 Z" /><glyph glyph-name="" unicode="c" d="M22 258 q1 -110 75 -188 q73 -78 212 -82 q64 1 110 18 q46 17 73 36 q20 14 23 33 q3 19 -8 42 l-13 25 q-13 25 -31 29 q-19 4 -44 -10 q-19 -12 -43 -20 q-24 -9 -50 -9 q-65 2 -97 41 q-32 39 -32 87 q0 48 31 84 q31 37 92 39 q23 0 42 -6 q19 -5 34 -13 q24 -12 42 -10 q18 3 32 26 l17 26 q14 22 11 42 q-2 19 -23 33 q-25 17 -66 31 q-42 14 -100 15 q-139 -4 -213 -83 q-73 -79 -74 -186 l0 0 Z" /><glyph glyph-name="" unicode="d" d="M24 258 q1 -122 64 -195 q62 -73 168 -75 q79 5 114 38 q36 32 35 37 l2 0 q0 0 0 -3 q-1 -2 -1 -4 l0 -6 q0 -25 14 -37 q14 -13 41 -13 l52 0 q27 0 41 14 q14 14 14 41 l0 605 q0 27 -14 41 q-14 14 -41 14 l-63 0 q-27 0 -41 -14 q-14 -14 -14 -41 l0 -161 q0 -10 1 -16 q0 -7 0 -7 l-2 0 q1 3 -28 26 q-30 22 -107 25 q-105 -2 -169 -73 q-64 -72 -66 -196 l0 0 ZM198 258 q1 60 30 91 q29 32 71 32 q51 -2 76 -38 q25 -37 25 -85 q-1 -66 -31 -97 q-30 -30 -70 -30 q-46 1 -73 35 q-27 34 -28 92 l0 0 Z" /><glyph glyph-name="" unicode="e" d="M22 258 q0 -107 73 -186 q72 -80 210 -84 q59 1 104 15 q45 14 73 31 q22 13 27 32 q4 20 -8 43 l-14 26 q-13 24 -31 28 q-18 5 -43 -7 q-20 -10 -44 -17 q-24 -7 -50 -7 q-42 0 -76 22 q-33 23 -44 70 l271 0 q26 1 42 18 q16 18 16 39 q-1 106 -62 175 q-61 69 -176 71 q-126 -3 -196 -78 q-71 -75 -72 -191 l0 0 ZM203 323 q6 32 26 54 q20 22 57 23 q33 -1 52 -23 q19 -22 19 -54 l-154 0 Z" /><glyph glyph-name="" unicode="f" d="M86 55 q0 -27 14 -41 q14 -14 41 -14 l63 0 q27 0 41 14 q14 14 14 41 l0 316 l40 0 q27 0 41 14 q14 14 14 41 l0 25 q0 27 -14 41 q-14 14 -41 14 l-40 0 l0 16 q2 32 22 41 q20 9 38 9 q27 2 41 15 q14 13 14 40 l0 37 q0 27 -14 41 q-14 14 -41 14 l-17 0 q-49 4 -128 -32 q-80 -37 -88 -156 l0 -25 l-13 0 q-27 0 -41 -14 q-14 -14 -14 -41 l0 -25 q0 -27 14 -41 q14 -14 41 -14 l13 0 l0 -316 Z" /><glyph glyph-name="" unicode="g" d="M104 -84 l-11 -30 q-10 -26 -3 -43 q8 -18 33 -28 q24 -10 66 -17 q41 -8 87 -8 q104 -2 191 58 q88 60 93 199 l0 413 q0 27 -14 41 q-14 14 -41 14 l-47 0 q-27 0 -41 -12 q-14 -13 -14 -31 l0 -2 q0 -5 1 -7 q0 -3 0 -3 l-2 0 q2 4 -29 34 q-31 29 -112 33 q-120 -4 -178 -77 q-58 -74 -58 -176 q0 -103 58 -179 q59 -76 177 -80 q45 0 75 16 q30 16 51 47 l2 0 q0 -1 0 -7 q-1 -7 -1 -12 l0 -26 q-1 -56 -36 -78 q-35 -22 -85 -21 q-30 0 -52 4 q-22 4 -40 10 q-27 9 -44 1 q-17 -8 -26 -33 l0 0 ZM298 159 q-51 2 -75 37 q-24 34 -24 84 q0 45 23 74 q23 28 69 29 q40 2 70 -21 q29 -23 30 -90 q-2 -66 -30 -90 q-28 -24 -63 -23 l0 0 Z" /><glyph glyph-name="" unicode="h" d="M52 55 q0 -27 14 -41 q14 -14 41 -14 l63 0 q27 0 41 14 q14 14 14 41 l0 177 q0 60 28 99 q28 38 84 39 q29 0 43 -16 q14 -16 14 -52 l0 -247 q0 -27 14 -41 q14 -14 41 -14 l63 0 q27 0 41 14 q14 14 14 41 l0 279 q-2 107 -53 151 q-52 44 -132 42 q-52 0 -93 -22 q-42 -21 -64 -60 l-2 0 q0 0 1 12 q1 12 1 32 l0 171 q0 27 -14 41 q-14 14 -41 14 l-63 0 q-27 0 -41 -14 q-14 -14 -14 -41 l0 -605 Z" /><glyph glyph-name="" unicode="i" d="M108 580 l59 0 q27 0 41 14 q14 14 14 41 l0 25 q0 27 -14 41 q-14 14 -41 14 l-59 0 q-27 0 -41 -14 q-14 -14 -14 -41 l0 -25 q0 -27 14 -41 q14 -14 41 -14 l0 0 ZM51 55 q0 -27 14 -41 q14 -14 41 -14 l63 0 q27 0 41 14 q14 14 14 41 l0 405 q0 27 -14 41 q-14 14 -41 14 l-63 0 q-27 0 -41 -14 q-14 -14 -14 -41 l0 -405 Z" /><glyph glyph-name="" unicode="j" d="M109 580 l59 0 q27 0 41 14 q14 14 14 41 l0 25 q0 27 -14 41 q-14 14 -41 14 l-59 0 q-27 0 -41 -14 q-14 -14 -14 -41 l0 -25 q0 -27 14 -41 q14 -14 41 -14 l0 0 ZM52 4 q-1 -36 -20 -49 q-19 -13 -40 -15 q-21 -2 -38 -12 q-16 -11 -17 -43 l0 -38 q0 -27 14 -41 q14 -14 41 -14 l18 0 q48 -3 127 37 q79 40 88 162 l0 469 q0 27 -14 41 q-14 14 -41 14 l-63 0 q-27 0 -41 -14 q-14 -14 -14 -41 l0 -456 Z" /><glyph glyph-name="" unicode="k" d="M52 55 q0 -27 14 -41 q14 -14 41 -14 l63 0 q27 0 41 14 q14 14 14 41 l0 145 l54 0 l88 -161 q11 -20 27 -30 q16 -9 38 -9 l75 0 q34 1 44 19 q10 18 -7 47 l-131 213 l0 2 l108 168 q18 28 8 47 q-10 18 -44 19 l-66 0 q-22 0 -38 -9 q-16 -9 -27 -28 l-80 -133 l-49 0 l0 315 q0 27 -14 41 q-14 14 -41 14 l-63 0 q-27 0 -41 -14 q-14 -14 -14 -41 l0 -605 Z" /><glyph glyph-name="" unicode="l" d="M49 190 q3 -126 60 -162 q56 -37 126 -33 q30 0 43 15 q13 15 13 41 l0 49 q0 22 -11 34 q-11 11 -29 13 q-12 1 -20 12 q-9 10 -9 39 l0 462 q0 27 -14 41 q-14 14 -41 14 l-63 0 q-27 0 -41 -14 q-14 -14 -14 -41 l0 -470 Z" /><glyph glyph-name="" unicode="m" d="M51 55 q0 -27 14 -41 q14 -14 41 -14 l63 0 q27 0 41 14 q14 14 14 41 l0 163 q-1 56 20 103 q21 46 79 49 q24 0 32 -18 q9 -18 8 -47 l0 -250 q0 -27 14 -41 q14 -14 41 -14 l63 0 q27 0 41 14 q14 14 14 41 l0 163 q-1 60 21 105 q23 45 78 47 q24 0 32 -18 q9 -18 8 -47 l0 -250 q0 -27 14 -41 q14 -14 41 -14 l63 0 q27 0 41 14 q14 14 14 41 l0 279 q-2 105 -48 150 q-47 44 -119 43 q-58 -1 -101 -27 q-43 -26 -64 -60 l-2 0 q-21 44 -58 65 q-37 22 -86 22 q-60 -2 -98 -31 q-37 -29 -55 -58 l-2 0 q0 0 1 5 q0 4 0 8 l0 9 q0 55 -54 55 l-56 0 q-27 0 -41 -14 q-14 -14 -14 -41 l0 -405 Z" /><glyph glyph-name="" unicode="n" d="M51 55 q0 -27 14 -41 q14 -14 41 -14 l63 0 q27 0 41 14 q14 14 14 41 l0 178 q0 56 27 96 q27 39 85 41 q29 0 43 -16 q14 -16 14 -52 l0 -247 q0 -27 14 -41 q14 -14 41 -14 l63 0 q27 0 41 14 q14 14 14 41 l0 279 q-2 107 -53 151 q-52 44 -132 42 q-68 -2 -107 -29 q-40 -28 -57 -60 l-2 0 q0 0 1 5 q0 4 0 8 l0 9 q0 55 -54 55 l-56 0 q-27 0 -41 -14 q-14 -14 -14 -41 l0 -405 Z" /><glyph glyph-name="" unicode="o" d="M22 256 q3 -122 85 -194 q82 -72 207 -74 q125 2 207 74 q82 72 85 194 q-3 123 -85 196 q-83 73 -208 75 q-124 -2 -206 -75 q-82 -73 -85 -196 l0 0 ZM197 256 q1 59 35 93 q33 33 82 34 q49 -1 82 -34 q34 -34 35 -93 q-1 -58 -35 -91 q-33 -32 -82 -33 q-49 1 -82 33 q-34 33 -35 91 l0 0 Z" /><glyph glyph-name="" unicode="p" d="M52 -145 q0 -27 14 -41 q14 -14 41 -14 l63 0 q27 0 41 14 q14 14 14 41 l0 148 q0 20 -1 32 q-1 12 -1 12 l2 0 q-1 -4 31 -29 q31 -26 100 -30 q105 2 171 73 q67 72 69 196 q-1 122 -63 195 q-63 73 -169 75 q-81 -5 -119 -39 q-37 -34 -37 -39 l-2 0 q0 0 1 3 q0 3 0 7 l0 11 q0 20 -14 32 q-14 13 -41 13 l-45 0 q-27 0 -41 -14 q-14 -14 -14 -41 l0 -605 ZM220 254 q1 66 31 97 q30 30 70 30 q46 -1 73 -35 q27 -34 28 -92 q-1 -60 -30 -91 q-29 -32 -71 -32 q-51 2 -76 38 q-25 37 -25 85 l0 0 Z" /><glyph glyph-name="" unicode="q" d="M24 258 q2 -122 64 -195 q62 -73 163 -75 q80 4 113 34 q32 29 31 33 l2 0 q0 0 -1 -12 q-1 -12 -1 -32 l0 -156 q0 -27 14 -41 q14 -14 41 -14 l63 0 q27 0 41 14 q14 14 14 41 l0 605 q0 27 -14 41 q-14 14 -41 14 l-47 0 q-27 0 -41 -12 q-14 -13 -14 -31 l0 -4 q0 -5 1 -7 q0 -3 0 -3 l-2 0 q1 4 -32 35 q-33 30 -116 34 q-106 -2 -171 -73 q-65 -72 -67 -196 l0 0 ZM198 258 q1 60 30 91 q29 32 71 32 q51 -2 76 -38 q25 -37 25 -85 q-1 -66 -31 -97 q-30 -30 -70 -30 q-46 1 -73 35 q-27 34 -28 92 l0 0 Z" /><glyph glyph-name="" unicode="r" d="M51 55 q0 -27 14 -41 q14 -14 41 -14 l63 0 q27 0 41 14 q14 14 14 41 l0 145 q0 65 30 109 q31 43 92 45 q27 0 41 14 q14 14 14 41 l0 56 q0 27 -10 41 q-11 14 -37 14 q-50 -3 -86 -42 q-37 -39 -51 -82 l-2 0 q0 0 1 10 q1 9 1 22 l0 32 q0 27 -14 41 q-14 14 -41 14 l-56 0 q-27 0 -41 -14 q-14 -14 -14 -41 l0 -405 Z" /><glyph glyph-name="" unicode="s" d="M51 35 q27 -17 70 -31 q43 -15 101 -16 q100 2 156 49 q55 46 56 120 q-15 125 -120 149 q-106 24 -121 59 q-1 11 9 19 q10 8 37 8 q26 0 48 -7 q22 -6 40 -13 q25 -10 44 -5 q18 5 29 29 l12 24 q12 24 7 43 q-4 19 -27 31 q-24 12 -61 22 q-36 10 -85 11 q-91 0 -152 -42 q-60 -41 -62 -121 q15 -126 121 -151 q105 -25 120 -61 q0 -12 -10 -20 q-11 -9 -37 -9 q-31 1 -55 9 q-24 9 -43 18 q-25 12 -43 9 q-18 -3 -33 -25 l-15 -23 q-14 -23 -11 -43 q3 -20 25 -33 l0 0 Z" /><glyph glyph-name="" unicode="t" d="M86 183 q6 -112 80 -151 q74 -40 137 -37 q35 0 53 12 q18 13 18 43 l0 45 q0 28 -12 40 q-13 12 -43 15 q-24 3 -42 18 q-17 14 -18 47 l0 156 l54 0 q26 0 40 14 q14 14 14 41 l0 25 q0 27 -14 41 q-14 14 -41 14 l-53 0 l0 93 q0 27 -14 41 q-14 14 -41 14 l-58 0 q-27 0 -41 -14 q-14 -14 -14 -41 l0 -93 l-19 0 q-27 0 -41 -14 q-14 -14 -14 -41 l0 -25 q0 -27 14 -41 q14 -14 40 -14 l15 0 l0 -188 Z" /><glyph glyph-name="" unicode="u" d="M45 181 q2 -107 53 -151 q52 -44 130 -42 q53 0 96 24 q43 23 65 65 l2 0 q0 0 0 -5 q-1 -4 -1 -8 l0 -9 q0 -54 54 -55 l56 0 q27 0 41 14 q14 14 14 41 l0 405 q0 27 -14 41 q-14 14 -41 14 l-63 0 q-27 0 -41 -14 q-14 -14 -14 -41 l0 -173 q0 -59 -27 -100 q-27 -40 -82 -42 q-27 0 -41 16 q-14 16 -14 52 l0 247 q0 27 -14 41 q-14 14 -41 14 l-63 0 q-27 0 -41 -14 q-14 -14 -14 -41 l0 -279 Z" /><glyph glyph-name="" unicode="v" d="M157 45 q7 -23 23 -34 q15 -11 39 -11 l117 0 q24 0 39 11 q16 11 23 34 l139 407 q9 29 -3 46 q-12 17 -42 17 l-69 0 q-48 0 -61 -46 l-66 -228 q-8 -28 -13 -57 q-6 -30 -6 -32 l-2 0 q0 2 -6 32 q-5 30 -13 57 l-67 228 q-13 46 -61 46 l-67 0 q-31 0 -43 -17 q-12 -17 -2 -46 l141 -407 Z" /><glyph glyph-name="" unicode="w" d="M135 47 q7 -24 22 -35 q15 -12 39 -12 l98 0 q49 0 61 48 l46 190 q5 22 8 38 q2 16 2 17 l2 0 q0 -1 2 -17 q3 -16 8 -38 l46 -190 q12 -48 61 -48 l96 0 q24 0 39 12 q15 11 22 35 l114 406 q7 29 -5 45 q-13 17 -42 17 l-66 0 q-25 0 -40 -12 q-15 -12 -20 -37 l-54 -255 q-4 -22 -6 -37 q-1 -16 -1 -17 l-2 0 q0 1 -1 17 q-2 15 -7 37 l-60 256 q-10 48 -60 48 l-50 0 q-49 0 -60 -48 l-60 -256 q-5 -22 -7 -37 q-2 -16 -2 -17 l-2 0 q0 1 -1 17 q-1 15 -5 37 l-54 255 q-5 25 -20 37 q-15 12 -40 12 l-68 0 q-29 0 -42 -17 q-12 -16 -5 -45 l114 -406 Z" /><glyph glyph-name="" unicode="x" d="M39 66 q-18 -28 -7 -47 q10 -18 44 -19 l67 0 q22 0 38 9 q16 10 27 30 l40 77 q4 8 8 16 q4 9 4 10 l2 0 q0 -1 4 -10 q4 -8 8 -16 l41 -77 q11 -20 27 -30 q16 -9 38 -9 l67 0 q34 1 44 19 q11 19 -7 47 l-120 189 l123 194 q18 28 7 47 q-10 18 -44 19 l-71 0 q-23 0 -39 -10 q-16 -10 -26 -30 l-36 -75 q-5 -11 -10 -22 q-6 -11 -6 -12 l-2 0 q0 1 -5 12 q-5 11 -11 22 l-36 75 q-10 20 -26 30 q-16 10 -39 10 l-71 0 q-34 -1 -44 -19 q-11 -19 7 -47 l124 -194 l-120 -189 Z" /><glyph glyph-name="" unicode="y" d="M30 -96 l-13 -29 q-11 -24 -4 -44 q6 -19 31 -28 q15 -5 33 -9 q19 -4 39 -4 q63 -1 122 34 q59 36 93 121 l188 507 q10 29 -2 46 q-12 17 -42 17 l-73 0 q-25 0 -40 -11 q-15 -12 -22 -36 l-52 -193 q-6 -23 -11 -49 q-6 -26 -6 -28 l-2 0 q0 2 -6 30 q-6 27 -13 50 l-61 192 q-7 23 -23 34 q-15 11 -40 11 l-78 0 q-32 0 -43 -18 q-11 -17 1 -46 l191 -441 l-10 -24 q-9 -23 -28 -39 q-19 -15 -43 -16 q-9 0 -16 2 q-8 1 -14 3 q-16 4 -31 -3 q-14 -6 -25 -29 l0 0 Z" /><glyph glyph-name="" unicode="z" d="M24 43 q0 -21 14 -32 q14 -11 41 -11 l363 0 q27 0 41 14 q14 14 14 41 l0 35 q0 27 -14 41 q-14 14 -41 14 l-138 0 q-25 0 -35 -1 q-11 -2 -11 -2 l0 2 q1 0 14 12 q13 12 32 35 l164 207 q13 16 18 29 q6 13 6 32 l0 13 q0 21 -14 32 q-14 11 -41 11 l-350 0 q-27 0 -41 -14 q-14 -14 -14 -41 l0 -35 q0 -27 14 -41 q14 -14 41 -14 l126 0 q24 0 35 1 q10 1 10 1 l0 -2 q0 0 -13 -11 q-12 -12 -32 -36 l-165 -206 q-13 -16 -18 -29 q-6 -13 -6 -32 l0 -13 Z" /><glyph glyph-name="" unicode="{" d="M104 62 q6 -97 66 -131 q60 -33 103 -31 l18 0 q27 0 41 14 q14 14 14 41 l0 20 q0 27 -14 41 q-14 14 -41 14 q-15 -1 -29 9 q-13 11 -14 44 l0 122 q-5 77 -42 102 q-37 26 -42 24 l0 2 q5 -2 42 25 q37 27 42 102 l0 112 q1 34 14 44 q14 10 29 9 q27 0 41 14 q14 14 14 41 l0 20 q0 27 -14 41 q-14 14 -41 14 l-18 0 q-43 2 -103 -31 q-60 -34 -66 -131 l0 -88 q-1 -36 -13 -56 q-12 -20 -28 -29 q-20 -12 -32 -25 q-12 -13 -12 -36 l0 -56 q0 -23 12 -36 q12 -13 33 -24 q16 -9 28 -29 q11 -20 12 -54 l0 -98 Z" /><glyph glyph-name="" unicode="|" d="M60 -110 q0 -27 14 -41 q14 -14 41 -14 l34 0 q27 0 41 14 q14 14 14 41 l0 857 q0 27 -14 41 q-14 14 -41 14 l-34 0 q-27 0 -41 -14 q-14 -14 -14 -41 l0 -857 Z" /><glyph glyph-name="" unicode="}" d="M25 -25 l0 -20 q0 -27 14 -41 q14 -14 41 -14 l18 0 q43 -2 103 31 q60 34 66 131 l0 98 q1 34 13 54 q11 20 27 29 q21 11 33 24 q12 13 12 36 l0 56 q0 23 -12 36 q-12 13 -32 25 q-16 9 -28 29 q-12 20 -13 56 l0 88 q-6 97 -66 131 q-60 33 -103 31 l-18 0 q-27 0 -41 -14 q-14 -14 -14 -41 l0 -20 q0 -27 14 -41 q14 -14 41 -14 q15 1 29 -9 q13 -10 14 -44 l0 -112 q5 -75 42 -102 q37 -27 42 -25 l0 -2 q-5 2 -42 -24 q-37 -25 -42 -102 l0 -122 q-1 -33 -14 -44 q-14 -10 -29 -9 q-27 0 -41 -14 q-14 -14 -14 -41 l0 0 Z" /><glyph glyph-name="" unicode="~" d="M90 191 l28 0 q24 0 36 13 q12 13 23 36 q15 27 44 27 q37 -5 72 -40 q34 -35 101 -40 q73 0 115 37 q43 36 54 108 q4 28 -10 43 q-15 15 -43 15 l-27 0 q-24 0 -36 -13 q-12 -13 -23 -36 q-8 -13 -19 -20 q-12 -7 -26 -7 q-36 5 -71 40 q-34 35 -101 40 q-71 0 -113 -35 q-42 -34 -55 -102 q-6 -32 9 -49 q14 -17 42 -17 l0 0 Z" /><glyph glyph-name="" unicode="¡" d="M158 294 l-40 0 q-26 0 -41 -14 q-14 -14 -15 -40 l-12 -384 q-1 -27 13 -41 q14 -15 41 -15 l68 0 q27 0 41 15 q14 14 13 41 l-12 384 q-1 26 -15 40 q-15 14 -41 14 l0 0 ZM217 460 q0 27 -14 41 q-14 14 -41 14 l-48 0 q-27 0 -41 -14 q-14 -14 -14 -41 l0 -40 q0 -27 14 -41 q14 -14 41 -14 l48 0 q27 0 41 14 q14 14 14 41 l0 40 Z" /><glyph glyph-name="" unicode="¢" d="M246 43 q0 -27 13 -41 q12 -14 39 -14 l6 0 q27 0 40 14 q12 14 12 41 l0 32 q58 9 104 47 q47 39 65 74 q13 25 5 43 q-8 18 -34 29 l-54 21 q-27 10 -43 0 q-16 -9 -29 -26 q-13 -16 -28 -23 q-16 -8 -35 -8 q-42 0 -71 32 q-28 32 -29 90 q2 63 32 96 q30 34 69 34 q35 0 62 -31 q14 -19 29 -27 q15 -9 43 2 l54 21 q28 11 35 29 q7 18 -5 42 q-20 38 -67 73 q-47 36 -103 48 l0 43 q0 20 -12 31 q-13 11 -40 11 l-6 0 q-27 0 -39 -14 q-13 -14 -13 -41 l0 -30 q-91 -22 -151 -98 q-60 -77 -62 -185 q2 -109 62 -185 q60 -76 151 -98 l0 -32 Z" /><glyph glyph-name="" unicode="£" d="M50 55 q0 -27 14 -41 q14 -14 41 -14 l419 0 q27 0 41 14 q14 14 14 41 l0 40 q0 27 -14 41 q-14 14 -41 14 l-235 0 l0 149 l110 0 q27 0 41 13 q14 13 14 40 l0 6 q0 27 -14 40 q-14 13 -41 13 l-110 0 l0 95 q1 30 21 47 q20 17 49 17 q14 0 27 -4 q13 -4 24 -10 q23 -12 42 -11 q19 1 35 22 l27 35 q17 21 16 41 q-1 20 -23 35 q-26 18 -64 33 q-39 15 -89 16 q-108 -1 -175 -60 q-67 -58 -69 -156 l0 -100 l-10 0 q-27 0 -38 -13 q-12 -13 -12 -40 l0 -6 q0 -27 12 -40 q11 -13 38 -13 l10 0 l0 -149 l-5 0 q-27 0 -41 -14 q-14 -14 -14 -41 l0 -40 Z" /><glyph glyph-name="" unicode="¥" d="M111 167 l108 0 l0 -112 q0 -27 14 -41 q14 -14 41 -14 l69 0 q27 0 41 14 q14 14 14 41 l0 112 l109 0 q27 0 41 11 q14 11 14 34 l0 6 q0 23 -14 34 q-14 11 -41 11 l-109 0 l0 28 l24 49 l85 0 q27 0 41 11 q14 11 14 34 l0 6 q0 23 -14 34 q-14 11 -41 11 l-38 0 l106 214 q14 29 3 47 q-11 18 -44 18 l-81 0 q-24 0 -39 -11 q-16 -11 -24 -33 l-37 -99 q-18 -52 -30 -91 q-13 -40 -13 -42 l-2 0 q0 2 -12 42 q-13 39 -31 91 l-37 99 q-8 22 -24 33 q-15 11 -39 11 l-82 0 q-32 0 -43 -18 q-11 -18 3 -47 l105 -214 l-46 0 q-23 0 -34 -11 q-12 -11 -12 -34 l0 -6 q0 -23 14 -34 q14 -11 41 -11 l84 0 l24 -49 l0 -28 l-108 0 q-27 0 -41 -11 q-14 -11 -14 -34 l0 -6 q0 -23 14 -34 q14 -11 41 -11 l0 0 Z" /><glyph glyph-name="" unicode="§" d="M122 226 q7 -24 22 -35 q15 -12 39 -12 l19 0 q30 0 42 17 q12 16 5 45 l-55 198 q-10 39 -10 67 q1 49 28 66 q28 18 70 17 q26 0 48 -6 q21 -5 38 -13 q24 -12 42 -8 q18 3 33 24 l14 20 q15 22 12 42 q-2 20 -24 34 q-26 17 -68 30 q-41 14 -97 15 q-115 -2 -173 -57 q-58 -56 -58 -143 q0 -36 10 -75 l63 -226 ZM52 59 q-13 -22 -10 -42 q3 -19 25 -33 q26 -17 68 -31 q42 -14 98 -15 q116 2 173 57 q58 56 58 143 q0 36 -10 75 l-61 226 q-7 24 -22 36 q-15 11 -40 11 l-18 0 q-29 0 -42 -17 q-12 -16 -4 -45 l50 -178 q7 -23 10 -42 q3 -19 3 -35 q-1 -52 -29 -74 q-28 -21 -69 -20 q-26 0 -50 7 q-23 7 -41 17 q-24 12 -42 9 q-19 -3 -33 -26 l-14 -23 Z" /><glyph glyph-name="" unicode="¨" d="M339 771 l16 0 q27 0 41 14 q14 14 14 41 l0 30 q0 27 -14 41 q-14 14 -41 14 l-16 0 q-27 0 -41 -14 q-14 -14 -14 -41 l0 -30 q0 -27 14 -41 q14 -14 41 -14 l0 0 ZM130 771 l16 0 q27 0 41 14 q14 14 14 41 l0 30 q0 27 -14 41 q-14 14 -41 14 l-16 0 q-27 0 -41 -14 q-14 -14 -14 -41 l0 -30 q0 -27 14 -41 q14 -14 41 -14 l0 0 Z" /><glyph glyph-name="" unicode="©" d="M37 358 q4 -157 105 -261 q101 -105 255 -109 q154 4 256 109 q102 104 106 261 q-4 157 -106 261 q-102 103 -256 107 q-154 -4 -255 -107 q-101 -104 -105 -261 l0 0 ZM150 358 q2 114 71 188 q68 74 176 77 q108 -3 178 -77 q70 -74 72 -188 q-2 -114 -72 -189 q-70 -75 -178 -78 q-107 3 -176 78 q-69 75 -71 189 l0 0 ZM226 355 q2 -81 51 -133 q50 -52 125 -54 q50 2 83 22 q33 20 47 40 q10 13 11 28 q1 15 -16 30 l-18 15 q-14 11 -27 9 q-14 -3 -27 -17 q-6 -7 -17 -14 q-11 -7 -34 -8 q-28 0 -44 21 q-17 20 -17 58 q1 41 19 63 q17 22 42 22 q18 0 27 -6 q9 -6 15 -13 q13 -15 31 -19 q17 -5 32 7 l19 16 q10 8 14 23 q3 14 -9 33 q-15 23 -49 43 q-34 20 -82 21 q-75 -2 -125 -54 q-49 -52 -51 -133 l0 0 Z" /><glyph glyph-name="" unicode="ª" d="M148 383 q52 4 74 31 q21 26 20 30 l2 0 l0 -4 q0 -24 13 -37 q12 -13 36 -13 l3 0 q24 0 37 14 q12 14 12 41 l0 145 q0 62 -37 98 q-37 36 -108 37 q-29 0 -52 -5 q-23 -4 -37 -10 q-26 -11 -33 -25 q-7 -14 0 -29 l4 -10 q6 -16 21 -20 q15 -4 36 4 q9 3 21 6 q12 2 21 2 q19 0 32 -8 q13 -8 14 -28 l0 -8 l-5 0 q-42 3 -108 -15 q-66 -18 -73 -93 q1 -48 33 -75 q31 -28 74 -28 l0 0 ZM181 472 q-9 0 -16 5 q-7 5 -7 15 q1 17 18 24 q17 6 40 6 l10 0 l0 -5 q-1 -18 -13 -31 q-13 -13 -32 -14 l0 0 ZM99 268 l195 0 q27 0 41 10 q14 9 14 30 l0 6 q0 20 -14 30 q-14 9 -41 9 l-195 0 q-27 0 -41 -9 q-14 -10 -14 -30 l0 -6 q0 -21 14 -30 q14 -10 41 -10 l0 0 Z" /><glyph glyph-name="" unicode="«" d="M309 243 l107 -134 q13 -16 29 -24 q16 -8 38 -8 l38 0 q33 1 40 20 q7 19 -15 47 l-110 138 l110 139 q22 28 13 47 q-9 19 -45 20 l-31 0 q-22 0 -38 -8 q-16 -8 -29 -24 l-107 -135 q-31 -39 0 -78 l0 0 ZM156 109 q13 -16 29 -24 q16 -8 38 -8 l38 0 q33 1 40 20 q7 19 -15 47 l-110 138 l110 139 q22 28 13 47 q-9 19 -45 20 l-31 0 q-22 0 -38 -8 q-16 -8 -29 -24 l-107 -135 q-31 -39 0 -78 l107 -134 Z" /><glyph glyph-name="" unicode="¬" d="M90 337 l316 0 l0 -150 q0 -27 14 -41 q14 -14 41 -14 l25 0 q27 0 41 14 q14 14 14 41 l0 225 q0 27 -14 41 q-14 14 -41 14 l-396 0 q-27 0 -41 -14 q-14 -14 -14 -41 l0 -20 q0 -27 14 -41 q14 -14 41 -14 l0 0 Z" /><glyph glyph-name="" unicode="®" d="M37 358 q4 -157 105 -261 q102 -105 254 -109 q155 4 257 109 q102 104 106 261 q-4 157 -106 261 q-102 103 -257 107 q-152 -4 -254 -107 q-101 -104 -105 -261 l0 0 ZM150 358 q2 114 71 188 q68 74 175 77 q109 -3 179 -77 q70 -74 72 -188 q-2 -114 -72 -189 q-70 -75 -179 -78 q-107 3 -175 78 q-69 75 -71 189 l0 0 ZM266 242 q0 -27 12 -41 q13 -14 39 -14 l6 0 q26 0 39 14 q12 14 12 41 l0 63 l28 0 l31 -76 q9 -22 25 -32 q15 -10 39 -10 l13 0 q26 1 33 18 q7 18 -8 47 l-29 56 q-6 12 -9 16 q-4 4 -4 4 l0 2 q15 4 35 25 q21 22 23 64 q-1 53 -33 84 q-32 30 -89 31 l-108 0 q-27 0 -41 -14 q-14 -14 -14 -41 l0 -237 ZM374 377 l0 83 l29 0 q18 0 28 -10 q10 -10 10 -31 q0 -20 -10 -31 q-10 -11 -30 -11 l-27 0 Z" /><glyph glyph-name="" unicode="¯" d="M160 782 l165 0 q27 0 41 13 q14 12 14 39 l0 8 q0 27 -14 40 q-14 12 -41 12 l-165 0 q-27 0 -41 -12 q-14 -13 -14 -40 l0 -8 q0 -27 14 -39 q14 -13 41 -13 l0 0 Z" /><glyph glyph-name="" unicode="°" d="M204 385 q77 2 128 50 q51 48 53 122 q-2 73 -53 122 q-51 49 -128 51 q-78 -2 -128 -51 q-51 -49 -53 -122 q2 -74 53 -122 q50 -48 128 -50 l0 0 ZM204 505 q-23 1 -39 15 q-15 15 -16 38 q1 22 16 37 q16 14 39 15 q23 -1 39 -15 q15 -15 16 -37 q-1 -23 -16 -38 q-16 -14 -39 -15 l0 0 Z" /><glyph glyph-name="" unicode="±" d="M97 222 l150 0 l0 -167 q0 -27 14 -41 q14 -14 41 -14 l26 0 q27 0 41 14 q14 14 14 41 l0 167 l150 0 q27 0 41 14 q14 14 14 41 l0 20 q0 27 -14 41 q-14 14 -41 14 l-150 0 l0 168 q0 27 -14 41 q-14 14 -41 14 l-26 0 q-27 0 -41 -14 q-14 -14 -14 -41 l0 -168 l-150 0 q-27 0 -41 -14 q-14 -14 -14 -41 l0 -20 q0 -27 14 -41 q14 -14 41 -14 l0 0 ZM107 -70 q-27 0 -41 -14 q-14 -14 -14 -41 l0 -20 q0 -27 14 -41 q14 -14 41 -14 l416 0 q27 0 41 14 q14 14 14 41 l0 20 q0 27 -14 41 q-14 14 -41 14 l-416 0 Z" /><glyph glyph-name="" unicode="²" d="M77 423 l222 0 q27 0 41 12 q14 13 14 39 l0 6 q0 26 -14 39 q-14 12 -41 12 l-136 0 q18 27 96 64 q78 36 89 136 q-3 75 -53 109 q-50 34 -110 34 q-44 -1 -76 -15 q-32 -15 -52 -33 q-19 -18 -18 -37 q1 -19 21 -37 l7 -6 q19 -16 36 -13 q18 2 39 16 q8 5 16 7 q9 3 18 3 q18 0 31 -8 q13 -9 14 -26 q-12 -42 -99 -84 q-88 -43 -100 -166 q0 -25 14 -38 q14 -14 41 -14 l0 0 Z" /><glyph glyph-name="" unicode="³" d="M167 413 q86 2 129 49 q44 46 44 106 q0 46 -23 79 q-23 34 -74 47 l57 62 q13 15 20 29 q6 14 6 33 l0 7 q0 19 -14 29 q-14 10 -41 10 l-184 0 q-27 0 -41 -12 q-14 -13 -14 -39 l0 -6 q0 -27 14 -39 q14 -13 41 -13 l55 0 q11 0 22 1 q11 1 12 1 l0 -2 q-1 -1 -9 -8 q-9 -8 -15 -15 l-32 -35 q-16 -17 -20 -32 q-4 -16 2 -30 q6 -15 18 -22 q12 -7 31 -7 l7 0 q22 0 38 -10 q16 -9 17 -26 q0 -18 -14 -30 q-14 -12 -40 -12 q-15 0 -27 3 q-13 4 -23 9 q-23 12 -40 10 q-17 -2 -31 -24 l-5 -8 q-14 -21 -11 -39 q2 -17 24 -31 q19 -14 50 -24 q30 -10 71 -11 l0 0 Z" /><glyph glyph-name="" unicode="´" d="M180 761 l29 0 q22 0 38 8 q16 8 29 25 l39 50 q22 28 15 47 q-8 19 -43 20 l-46 0 q-22 0 -38 -9 q-16 -10 -27 -30 l-28 -50 q-14 -25 -5 -43 q9 -17 37 -18 l0 0 Z" /><glyph glyph-name="" unicode="µ" d="M66 -145 q0 -27 14 -41 q14 -14 41 -14 l37 0 q27 0 41 14 q14 14 14 41 l0 49 q0 32 -4 59 q-3 27 -4 29 l2 0 q0 0 12 -2 q11 -2 30 -2 q53 0 96 24 q43 23 65 65 l2 0 q0 0 0 -5 q-1 -4 -1 -8 l0 -9 q0 -54 54 -55 l56 0 q27 0 41 14 q14 14 14 41 l0 405 q0 27 -14 41 q-14 14 -41 14 l-63 0 q-27 0 -41 -14 q-14 -14 -14 -41 l0 -173 q0 -59 -27 -100 q-27 -40 -82 -42 q-27 0 -41 16 q-14 16 -14 52 l0 247 q0 27 -14 41 q-14 14 -41 14 l-63 0 q-27 0 -41 -14 q-14 -14 -14 -41 l0 -605 Z" /><glyph glyph-name="" unicode="¶" d="M264 5 q0 -27 14 -41 q14 -14 41 -14 l10 0 q27 0 41 14 q14 14 14 41 l0 560 l182 0 q27 0 41 14 q14 14 14 41 l0 40 q0 27 -14 41 q-14 14 -41 14 l-302 0 q-99 -2 -165 -68 q-66 -65 -68 -168 q2 -103 68 -169 q66 -67 165 -69 l0 -236 ZM446 5 q0 -27 14 -41 q14 -14 41 -14 l10 0 q27 0 41 14 q14 14 14 41 l0 455 q0 27 -14 41 q-14 14 -41 14 l-10 0 q-27 0 -41 -14 q-14 -14 -14 -41 l0 -455 Z" /><glyph glyph-name="" unicode="·" d="M105 213 l48 0 q27 0 41 14 q14 14 14 41 l0 54 q0 27 -14 41 q-14 14 -41 14 l-48 0 q-27 0 -41 -14 q-14 -14 -14 -41 l0 -54 q0 -27 14 -41 q14 -14 41 -14 l0 0 Z" /><glyph glyph-name="" unicode="¸" d="M176 -44 q-5 -17 -2 -26 q3 -9 16 -10 q18 -1 30 -6 q11 -6 11 -18 q0 -11 -7 -18 q-7 -6 -20 -6 q-5 0 -11 1 q-7 1 -14 1 q-9 0 -16 -10 q-8 -11 -8 -33 q1 -26 22 -34 q20 -8 42 -7 q45 -1 80 20 q35 21 37 74 q-1 39 -22 58 q-22 19 -53 22 l13 58 l-77 0 l-21 -66 Z" /><glyph glyph-name="" unicode="¹" d="M82 423 l195 0 q27 0 41 12 q14 13 14 39 l0 6 q0 26 -14 39 q-14 12 -41 12 l-35 0 l0 278 q0 27 -14 41 q-14 14 -41 14 l-14 0 q-21 0 -37 -6 q-16 -7 -31 -21 l-55 -52 q-20 -18 -22 -37 q-3 -20 15 -38 l16 -16 q10 -10 22 -11 q11 -1 20 6 l7 6 q5 4 7 7 q2 4 2 4 l2 0 q0 0 -1 -9 q-2 -9 -2 -23 l0 -143 l-44 0 q-22 0 -33 -12 q-12 -13 -12 -39 l0 -6 q0 -26 14 -39 q14 -12 41 -12 l0 0 Z" /><glyph glyph-name="" unicode="º" d="M219 385 q78 1 129 47 q52 45 54 123 q-2 78 -54 123 q-52 46 -130 47 q-76 -1 -128 -47 q-51 -45 -53 -123 q2 -78 54 -123 q51 -46 128 -47 l0 0 ZM219 488 q-26 0 -44 18 q-18 17 -19 49 q1 31 19 49 q18 19 44 19 q26 0 44 -19 q18 -18 19 -49 q-1 -32 -19 -49 q-18 -18 -44 -18 l0 0 ZM105 268 l228 0 q27 0 41 10 q14 9 14 30 l0 6 q0 20 -14 30 q-14 9 -41 9 l-228 0 q-27 0 -41 -9 q-14 -10 -14 -30 l0 -6 q0 -21 14 -30 q14 -10 41 -10 l0 0 Z" /><glyph glyph-name="" unicode="»" d="M315 144 q-21 -28 -12 -47 q8 -19 44 -20 l31 0 q22 0 38 8 q16 8 29 24 l107 134 q32 39 0 78 l-107 135 q-13 16 -29 24 q-16 8 -38 8 l-38 0 q-33 -1 -40 -20 q-7 -19 15 -47 l110 -139 l-110 -138 ZM87 77 l31 0 q22 0 38 8 q16 8 29 24 l107 134 q32 39 0 78 l-107 135 q-13 16 -29 24 q-16 8 -38 8 l-38 0 q-33 -1 -40 -20 q-7 -19 15 -47 l110 -139 l-110 -138 q-21 -28 -12 -47 q8 -19 44 -20 l0 0 Z" /><glyph glyph-name="" unicode="¼" d="M845 0 l14 0 q27 0 41 14 q14 14 14 41 l0 32 l12 0 q25 0 36 14 q10 13 10 37 l0 6 q0 23 -10 37 q-11 13 -36 13 l-12 0 l0 192 q0 27 -14 41 q-14 14 -41 14 l-52 0 q-22 0 -38 -9 q-16 -8 -28 -27 l-128 -203 q-11 -16 -16 -28 q-4 -12 -4 -31 l0 -14 q0 -20 14 -31 q14 -11 41 -11 l142 0 l0 -32 q0 -27 14 -41 q14 -14 41 -14 l0 0 ZM712 194 l0 2 l59 92 q9 15 15 30 q6 15 6 16 l2 0 q0 -1 -2 -16 q-2 -14 -2 -34 l0 -90 l-78 0 ZM401 41 l287 609 q13 30 6 47 q-7 18 -33 18 l-17 0 q-23 0 -39 -10 q-15 -10 -25 -31 l-287 -609 q-13 -30 -6 -47 q7 -18 33 -18 l17 0 q23 0 39 10 q15 10 25 31 l0 0 ZM96 274 l195 0 q27 0 41 12 q14 13 14 39 l0 6 q0 26 -14 39 q-14 12 -41 12 l-35 0 l0 278 q0 27 -14 41 q-14 14 -41 14 l-14 0 q-21 0 -37 -6 q-16 -7 -31 -21 l-55 -52 q-20 -18 -22 -37 q-3 -20 15 -38 l16 -16 q10 -10 22 -11 q11 -1 20 6 l7 6 q5 4 7 7 q2 4 2 4 l2 0 q0 0 -1 -9 q-2 -9 -2 -23 l0 -143 l-44 0 q-22 0 -33 -12 q-12 -13 -12 -39 l0 -6 q0 -26 14 -39 q14 -12 41 -12 l0 0 Z" /><glyph glyph-name="" unicode="½" d="M400 41 l287 609 q13 30 6 47 q-7 18 -33 18 l-17 0 q-23 0 -39 -10 q-15 -10 -25 -31 l-287 -609 q-13 -30 -6 -47 q7 -18 33 -18 l17 0 q23 0 39 10 q15 10 25 31 l0 0 ZM91 274 l195 0 q27 0 41 12 q14 13 14 39 l0 6 q0 26 -14 39 q-14 12 -41 12 l-35 0 l0 278 q0 27 -14 41 q-14 14 -41 14 l-14 0 q-21 0 -37 -6 q-16 -7 -31 -21 l-55 -52 q-20 -18 -22 -37 q-3 -20 15 -38 l16 -16 q10 -10 22 -11 q11 -1 20 6 l7 6 q5 4 7 7 q2 4 2 4 l2 0 q0 0 -1 -9 q-2 -9 -2 -23 l0 -143 l-44 0 q-22 0 -33 -12 q-12 -13 -12 -39 l0 -6 q0 -26 14 -39 q14 -12 41 -12 l0 0 ZM675 0 l222 0 q27 0 41 12 q14 13 14 39 l0 6 q0 26 -14 39 q-14 12 -41 12 l-136 0 q18 27 96 64 q78 36 89 136 q-3 75 -53 109 q-50 34 -110 34 q-44 -1 -76 -15 q-32 -15 -52 -33 q-19 -18 -18 -37 q1 -19 21 -37 l7 -6 q19 -16 36 -13 q18 2 39 16 q8 5 16 7 q9 3 18 3 q18 0 31 -8 q13 -9 14 -26 q-12 -42 -99 -84 q-88 -43 -100 -166 q0 -25 14 -38 q14 -14 41 -14 l0 0 Z" /><glyph glyph-name="" unicode="¾" d="M182 264 q86 2 129 49 q44 46 44 106 q0 46 -23 79 q-23 34 -74 47 l57 62 q13 15 20 29 q6 14 6 33 l0 7 q0 19 -14 29 q-14 10 -41 10 l-184 0 q-27 0 -41 -12 q-14 -13 -14 -39 l0 -6 q0 -27 14 -39 q14 -13 41 -13 l55 0 q11 0 22 1 q11 1 12 1 l0 -2 q-1 -1 -9 -8 q-9 -8 -15 -15 l-32 -35 q-16 -17 -20 -32 q-4 -16 2 -30 q6 -15 18 -22 q12 -7 31 -7 l7 0 q22 0 38 -10 q16 -9 17 -26 q0 -18 -14 -30 q-14 -12 -40 -12 q-15 0 -27 3 q-13 4 -23 9 q-23 12 -40 10 q-17 -2 -31 -24 l-5 -8 q-14 -21 -11 -39 q2 -17 24 -31 q19 -14 50 -24 q30 -10 71 -11 l0 0 ZM407 41 l287 609 q13 30 6 47 q-7 18 -33 18 l-17 0 q-23 0 -39 -10 q-15 -10 -25 -31 l-287 -609 q-13 -30 -6 -47 q7 -18 33 -18 l17 0 q23 0 39 10 q15 10 25 31 l0 0 ZM851 0 l14 0 q27 0 41 14 q14 14 14 41 l0 32 l12 0 q25 0 36 14 q10 13 10 37 l0 6 q0 23 -10 37 q-11 13 -36 13 l-12 0 l0 192 q0 27 -14 41 q-14 14 -41 14 l-52 0 q-22 0 -38 -9 q-16 -8 -28 -27 l-128 -203 q-11 -16 -16 -28 q-4 -12 -4 -31 l0 -14 q0 -20 14 -31 q14 -11 41 -11 l142 0 l0 -32 q0 -27 14 -41 q14 -14 41 -14 l0 0 ZM718 194 l0 2 l59 92 q9 15 15 30 q6 15 6 16 l2 0 q0 -1 -2 -16 q-2 -14 -2 -34 l0 -90 l-78 0 Z" /><glyph glyph-name="" unicode="¿" d="M310 294 l-57 0 q-23 0 -35 -8 q-12 -8 -17 -28 l-3 -12 q-23 -53 -92 -105 q-69 -51 -78 -160 q4 -97 75 -146 q70 -50 158 -50 q56 1 98 16 q42 15 68 33 q22 14 23 33 q1 18 -14 40 l-24 36 q-15 21 -36 23 q-21 2 -45 -10 q-12 -6 -25 -10 q-13 -4 -27 -4 q-29 1 -50 17 q-20 16 -21 42 q10 56 79 104 q68 48 78 124 l0 10 q0 27 -14 41 q-14 14 -41 14 l0 0 ZM361 460 q0 27 -14 41 q-14 14 -41 14 l-48 0 q-27 0 -41 -14 q-14 -14 -14 -41 l0 -40 q0 -27 14 -41 q14 -14 41 -14 l48 0 q27 0 41 14 q14 14 14 41 l0 40 Z" /><glyph glyph-name="" unicode="à" d="M13 63 q-9 -29 3 -46 q12 -17 42 -17 l66 0 q48 0 61 46 l30 104 l223 0 l30 -104 q7 -23 23 -35 q15 -11 39 -11 l66 0 q30 0 42 17 q12 17 3 46 l-207 607 q-7 23 -23 34 q-15 11 -39 11 l-90 0 q-24 0 -39 -11 q-16 -11 -23 -34 l-207 -607 ZM256 290 l41 139 q10 37 19 78 q9 42 10 45 l2 0 q1 -3 10 -45 q9 -41 19 -78 l40 -139 l-141 0 ZM306 761 l36 0 q27 1 32 19 q5 18 -7 41 l-28 51 q-11 20 -27 30 q-16 9 -38 9 l-46 0 q-35 -1 -42 -20 q-8 -19 14 -47 l39 -50 q13 -17 29 -25 q16 -8 38 -8 l0 0 Z" /><glyph glyph-name="" unicode="á" d="M13 63 q-9 -29 3 -46 q12 -17 42 -17 l66 0 q48 0 61 46 l30 104 l223 0 l30 -104 q7 -23 23 -35 q15 -11 39 -11 l66 0 q30 0 42 17 q12 17 3 46 l-207 607 q-7 23 -23 34 q-15 11 -39 11 l-90 0 q-24 0 -39 -11 q-16 -11 -23 -34 l-207 -607 ZM256 290 l41 139 q10 37 19 78 q9 42 10 45 l2 0 q1 -3 10 -45 q9 -41 19 -78 l40 -139 l-141 0 ZM319 761 l29 0 q22 0 38 8 q16 8 29 25 l39 50 q22 28 15 47 q-8 19 -43 20 l-46 0 q-22 0 -38 -9 q-16 -10 -27 -30 l-28 -50 q-14 -25 -5 -43 q9 -17 37 -18 l0 0 Z" /><glyph glyph-name="" unicode="â" d="M13 63 q-9 -29 3 -46 q12 -17 42 -17 l66 0 q48 0 61 46 l30 104 l223 0 l30 -104 q7 -23 23 -35 q15 -11 39 -11 l66 0 q30 0 42 17 q12 17 3 46 l-207 607 q-7 23 -23 34 q-15 11 -39 11 l-90 0 q-24 0 -39 -11 q-16 -11 -23 -34 l-207 -607 ZM256 290 l41 139 q10 37 19 78 q9 42 10 45 l2 0 q1 -3 10 -45 q9 -41 19 -78 l40 -139 l-141 0 ZM211 761 l34 0 q22 0 34 9 q12 10 22 29 l25 44 l2 0 l25 -44 q10 -19 22 -29 q12 -9 34 -9 l34 0 q29 1 35 19 q7 19 -12 48 l-31 47 q-13 19 -29 27 q-16 9 -38 9 l-82 0 q-22 0 -38 -9 q-16 -8 -29 -27 l-31 -47 q-19 -29 -12 -48 q6 -18 35 -19 l0 0 Z" /><glyph glyph-name="" unicode="ã" d="M13 63 q-9 -29 3 -46 q12 -17 42 -17 l66 0 q48 0 61 46 l30 104 l223 0 l30 -104 q7 -23 23 -35 q15 -11 39 -11 l66 0 q30 0 42 17 q12 17 3 46 l-207 607 q-7 23 -23 34 q-15 11 -39 11 l-90 0 q-24 0 -39 -11 q-16 -11 -23 -34 l-207 -607 ZM256 290 l41 139 q10 37 19 78 q9 42 10 45 l2 0 q1 -3 10 -45 q9 -41 19 -78 l40 -139 l-141 0 ZM179 761 l12 0 q18 0 29 7 q12 6 14 18 q2 14 12 23 q9 9 24 9 q27 -4 56 -30 q29 -26 87 -30 q50 1 80 31 q30 30 31 79 q0 22 -12 33 q-12 10 -36 10 l-12 0 q-20 0 -32 -7 q-12 -8 -14 -20 q-2 -16 -10 -23 q-9 -7 -23 -7 q-27 4 -56 30 q-29 26 -86 30 q-50 -1 -81 -32 q-30 -32 -31 -75 q0 -23 13 -35 q12 -11 35 -11 l0 0 Z" /><glyph glyph-name="" unicode="ä" d="M13 63 q-9 -29 3 -46 q12 -17 42 -17 l66 0 q48 0 61 46 l30 104 l223 0 l30 -104 q7 -23 23 -35 q15 -11 39 -11 l66 0 q30 0 42 17 q12 17 3 46 l-207 607 q-7 23 -23 34 q-15 11 -39 11 l-90 0 q-24 0 -39 -11 q-16 -11 -23 -34 l-207 -607 ZM256 290 l41 139 q10 37 19 78 q9 42 10 45 l2 0 q1 -3 10 -45 q9 -41 19 -78 l40 -139 l-141 0 ZM424 771 l16 0 q27 0 41 14 q14 14 14 41 l0 30 q0 27 -14 41 q-14 14 -41 14 l-16 0 q-27 0 -41 -14 q-14 -14 -14 -41 l0 -30 q0 -27 14 -41 q14 -14 41 -14 l0 0 ZM215 771 l16 0 q27 0 41 14 q14 14 14 41 l0 30 q0 27 -14 41 q-14 14 -41 14 l-16 0 q-27 0 -41 -14 q-14 -14 -14 -41 l0 -30 q0 -27 14 -41 q14 -14 41 -14 l0 0 Z" /><glyph glyph-name="" unicode="å" d="M13 63 q-9 -29 3 -46 q12 -17 42 -17 l66 0 q48 0 61 46 l30 104 l223 0 l30 -104 q7 -23 23 -35 q15 -11 39 -11 l66 0 q30 0 42 17 q12 17 3 46 l-207 607 q-7 23 -23 34 q-15 11 -39 11 l-90 0 q-24 0 -39 -11 q-16 -11 -23 -34 l-207 -607 ZM256 290 l41 139 q10 37 19 78 q9 42 10 45 l2 0 q1 -3 10 -45 q9 -41 19 -78 l40 -139 l-141 0 ZM327 747 q42 0 75 20 q33 21 35 65 q-2 44 -35 65 q-33 21 -75 21 q-42 0 -74 -21 q-33 -21 -35 -65 q2 -44 35 -65 q32 -20 74 -20 l0 0 ZM327 797 q-16 0 -25 10 q-9 9 -9 25 q0 17 10 26 q9 10 24 10 q16 0 25 -10 q10 -9 10 -26 q0 -16 -10 -25 q-9 -10 -25 -10 l0 0 Z" /><glyph glyph-name="" unicode="æ" d="M5 64 q-12 -29 0 -46 q11 -18 42 -18 l67 0 q23 0 39 11 q15 10 24 32 l94 245 l168 0 l0 -233 q0 -27 14 -41 q14 -14 41 -14 l351 0 q27 0 41 14 q14 14 14 41 l0 40 q0 27 -14 41 q-14 14 -41 14 l-231 0 l0 135 l163 0 q27 0 41 14 q14 14 14 41 l0 40 q0 27 -14 41 q-14 14 -41 14 l-163 0 l0 130 l218 0 q27 0 41 14 q14 14 14 41 l0 40 q0 27 -14 41 q-14 14 -41 14 l-509 0 q-24 0 -39 -10 q-16 -10 -25 -32 l-254 -609 ZM325 428 l53 137 l61 0 l0 -137 l-114 0 Z" /><glyph glyph-name="" unicode="ç" d="M342 -44 q-5 -17 -2 -26 q3 -9 16 -10 q18 -1 30 -6 q11 -6 11 -18 q0 -11 -7 -18 q-7 -6 -20 -6 q-5 0 -11 1 q-7 1 -14 1 q-9 0 -16 -10 q-8 -11 -8 -33 q1 -26 22 -34 q20 -8 42 -7 q45 -1 80 20 q35 21 37 74 q-1 39 -22 58 q-22 19 -53 22 l5 25 q81 6 138 32 q56 26 88 52 q20 16 22 36 q1 20 -13 41 l-28 39 q-16 22 -35 24 q-19 2 -42 -14 q-26 -19 -63 -34 q-38 -16 -83 -17 q-103 4 -153 68 q-49 64 -49 147 q-1 80 47 141 q49 60 155 63 q40 -1 74 -13 q34 -12 59 -27 q23 -14 42 -11 q19 3 33 26 l25 41 q14 22 11 41 q-2 20 -23 35 q-32 23 -89 45 q-57 21 -140 23 q-168 -3 -270 -106 q-102 -102 -105 -262 q1 -149 86 -248 q84 -100 234 -120 l-11 -35 Z" /><glyph glyph-name="" unicode="è" d="M69 55 q0 -27 14 -41 q14 -14 41 -14 l352 0 q27 0 41 14 q14 14 14 41 l0 40 q0 27 -14 41 q-14 14 -41 14 l-232 0 l0 135 l163 0 q27 0 41 14 q14 14 14 41 l0 40 q0 27 -14 41 q-14 14 -41 14 l-163 0 l0 130 l218 0 q27 0 41 14 q14 14 14 41 l0 40 q0 27 -14 41 q-14 14 -41 14 l-338 0 q-27 0 -41 -14 q-14 -14 -14 -41 l0 -605 ZM280 761 l36 0 q27 1 32 19 q5 18 -7 41 l-28 51 q-11 20 -27 30 q-16 9 -38 9 l-46 0 q-35 -1 -42 -20 q-8 -19 14 -47 l39 -50 q13 -17 29 -25 q16 -8 38 -8 l0 0 Z" /><glyph glyph-name="" unicode="é" d="M69 55 q0 -27 14 -41 q14 -14 41 -14 l352 0 q27 0 41 14 q14 14 14 41 l0 40 q0 27 -14 41 q-14 14 -41 14 l-232 0 l0 135 l163 0 q27 0 41 14 q14 14 14 41 l0 40 q0 27 -14 41 q-14 14 -41 14 l-163 0 l0 130 l218 0 q27 0 41 14 q14 14 14 41 l0 40 q0 27 -14 41 q-14 14 -41 14 l-338 0 q-27 0 -41 -14 q-14 -14 -14 -41 l0 -605 ZM293 761 l29 0 q22 0 38 8 q16 8 29 25 l39 50 q22 28 15 47 q-8 19 -43 20 l-46 0 q-22 0 -38 -9 q-16 -10 -27 -30 l-28 -50 q-14 -25 -5 -43 q9 -17 37 -18 l0 0 Z" /><glyph glyph-name="" unicode="ê" d="M69 55 q0 -27 14 -41 q14 -14 41 -14 l352 0 q27 0 41 14 q14 14 14 41 l0 40 q0 27 -14 41 q-14 14 -41 14 l-232 0 l0 135 l163 0 q27 0 41 14 q14 14 14 41 l0 40 q0 27 -14 41 q-14 14 -41 14 l-163 0 l0 130 l218 0 q27 0 41 14 q14 14 14 41 l0 40 q0 27 -14 41 q-14 14 -41 14 l-338 0 q-27 0 -41 -14 q-14 -14 -14 -41 l0 -605 ZM185 761 l34 0 q22 0 34 9 q12 10 22 29 l25 44 l2 0 l25 -44 q10 -19 22 -29 q12 -9 34 -9 l34 0 q29 1 35 19 q7 19 -12 48 l-31 47 q-13 19 -29 27 q-16 9 -38 9 l-82 0 q-22 0 -38 -9 q-16 -8 -29 -27 l-31 -47 q-19 -29 -12 -48 q6 -18 35 -19 l0 0 Z" /><glyph glyph-name="" unicode="ë" d="M69 55 q0 -27 14 -41 q14 -14 41 -14 l352 0 q27 0 41 14 q14 14 14 41 l0 40 q0 27 -14 41 q-14 14 -41 14 l-232 0 l0 135 l163 0 q27 0 41 14 q14 14 14 41 l0 40 q0 27 -14 41 q-14 14 -41 14 l-163 0 l0 130 l218 0 q27 0 41 14 q14 14 14 41 l0 40 q0 27 -14 41 q-14 14 -41 14 l-338 0 q-27 0 -41 -14 q-14 -14 -14 -41 l0 -605 ZM398 771 l16 0 q27 0 41 14 q14 14 14 41 l0 30 q0 27 -14 41 q-14 14 -41 14 l-16 0 q-27 0 -41 -14 q-14 -14 -14 -41 l0 -30 q0 -27 14 -41 q14 -14 41 -14 l0 0 ZM189 771 l16 0 q27 0 41 14 q14 14 14 41 l0 30 q0 27 -14 41 q-14 14 -41 14 l-16 0 q-27 0 -41 -14 q-14 -14 -14 -41 l0 -30 q0 -27 14 -41 q14 -14 41 -14 l0 0 Z" /><glyph glyph-name="" unicode="ì" d="M69 55 q0 -27 14 -41 q14 -14 41 -14 l65 0 q27 0 41 14 q14 14 14 41 l0 605 q0 27 -14 41 q-14 14 -41 14 l-65 0 q-27 0 -41 -14 q-14 -14 -14 -41 l0 -605 ZM136 761 l36 0 q27 1 32 19 q5 18 -7 41 l-28 51 q-11 20 -27 30 q-16 9 -38 9 l-46 0 q-35 -1 -42 -20 q-8 -19 14 -47 l39 -50 q13 -17 29 -25 q16 -8 38 -8 l0 0 Z" /><glyph glyph-name="" unicode="í" d="M69 55 q0 -27 14 -41 q14 -14 41 -14 l65 0 q27 0 41 14 q14 14 14 41 l0 605 q0 27 -14 41 q-14 14 -41 14 l-65 0 q-27 0 -41 -14 q-14 -14 -14 -41 l0 -605 ZM149 761 l29 0 q22 0 38 8 q16 8 29 25 l39 50 q22 28 15 47 q-8 19 -43 20 l-46 0 q-22 0 -38 -9 q-16 -10 -27 -30 l-28 -50 q-14 -25 -5 -43 q9 -17 37 -18 l0 0 Z" /><glyph glyph-name="" unicode="î" d="M69 55 q0 -27 14 -41 q14 -14 41 -14 l65 0 q27 0 41 14 q14 14 14 41 l0 605 q0 27 -14 41 q-14 14 -41 14 l-65 0 q-27 0 -41 -14 q-14 -14 -14 -41 l0 -605 ZM41 761 l34 0 q22 0 34 9 q12 10 22 29 l25 44 l2 0 l25 -44 q10 -19 22 -29 q12 -9 34 -9 l34 0 q29 1 35 19 q7 19 -12 48 l-31 47 q-13 19 -29 27 q-16 9 -38 9 l-82 0 q-22 0 -38 -9 q-16 -8 -29 -27 l-31 -47 q-19 -29 -12 -48 q6 -18 35 -19 l0 0 Z" /><glyph glyph-name="" unicode="ï" d="M69 55 q0 -27 14 -41 q14 -14 41 -14 l65 0 q27 0 41 14 q14 14 14 41 l0 605 q0 27 -14 41 q-14 14 -41 14 l-65 0 q-27 0 -41 -14 q-14 -14 -14 -41 l0 -605 ZM254 771 l16 0 q27 0 41 14 q14 14 14 41 l0 30 q0 27 -14 41 q-14 14 -41 14 l-16 0 q-27 0 -41 -14 q-14 -14 -14 -41 l0 -30 q0 -27 14 -41 q14 -14 41 -14 l0 0 ZM45 771 l16 0 q27 0 41 14 q14 14 14 41 l0 30 q0 27 -14 41 q-14 14 -41 14 l-16 0 q-27 0 -41 -14 q-14 -14 -14 -41 l0 -30 q0 -27 14 -41 q14 -14 41 -14 l0 0 Z" /><glyph glyph-name="" unicode="ð" d="M71 55 q0 -27 14 -41 q14 -14 41 -14 l199 0 q171 1 269 95 q98 94 100 264 q-2 170 -100 262 q-98 93 -269 94 l-199 0 q-27 0 -41 -14 q-14 -14 -14 -41 l0 -236 l-28 0 q-14 0 -22 -14 q-7 -14 -7 -41 l0 -30 q0 -27 14 -41 q14 -14 41 -14 l2 0 l0 -229 ZM246 150 l0 134 l52 0 q26 0 39 14 q13 14 13 41 l0 30 q0 27 -14 41 q-14 14 -41 14 l-49 0 l0 141 l72 0 q90 0 142 -52 q52 -52 53 -154 q-1 -103 -52 -156 q-51 -53 -143 -53 l-72 0 Z" /><glyph glyph-name="" unicode="ñ" d="M69 55 q0 -27 14 -41 q14 -14 41 -14 l65 0 q27 0 41 14 q14 14 14 41 l0 278 q0 37 -4 78 q-3 41 -4 44 l2 0 q1 -3 20 -43 q18 -41 40 -79 l177 -296 q11 -19 27 -28 q16 -9 38 -9 l78 0 q27 0 41 14 q14 14 14 41 l0 605 q0 27 -14 41 q-14 14 -41 14 l-65 0 q-27 0 -41 -14 q-14 -14 -14 -41 l0 -279 q1 -37 4 -78 q4 -41 4 -44 l-2 0 q-1 3 -19 43 q-19 41 -41 79 l-176 297 q-11 19 -27 28 q-16 9 -39 9 l-78 0 q-27 0 -41 -14 q-14 -14 -14 -41 l0 -605 ZM223 761 l12 0 q18 0 29 7 q12 6 14 18 q2 14 12 23 q9 9 24 9 q27 -4 56 -30 q29 -26 87 -30 q50 1 80 31 q30 30 31 79 q0 22 -12 33 q-12 10 -36 10 l-12 0 q-20 0 -32 -7 q-12 -8 -14 -20 q-2 -16 -10 -23 q-9 -7 -23 -7 q-27 4 -56 30 q-29 26 -86 30 q-50 -1 -81 -32 q-30 -32 -31 -75 q0 -23 13 -35 q12 -11 35 -11 l0 0 Z" /><glyph glyph-name="" unicode="ò" d="M32 362 q3 -161 104 -266 q101 -104 270 -108 q169 4 270 108 q101 105 104 266 q-3 157 -104 259 q-101 102 -270 106 q-169 -4 -270 -106 q-101 -102 -104 -259 l0 0 ZM213 362 q1 90 54 146 q53 57 139 59 q86 -2 139 -59 q53 -56 54 -146 q-1 -93 -54 -153 q-53 -59 -139 -61 q-86 2 -139 61 q-53 60 -54 153 l0 0 ZM385 761 l36 0 q27 1 32 19 q5 18 -7 41 l-28 51 q-11 20 -27 30 q-16 9 -38 9 l-46 0 q-35 -1 -42 -20 q-8 -19 14 -47 l39 -50 q13 -17 29 -25 q16 -8 38 -8 l0 0 Z" /><glyph glyph-name="" unicode="ó" d="M32 362 q3 -161 104 -266 q101 -104 270 -108 q169 4 270 108 q101 105 104 266 q-3 157 -104 259 q-101 102 -270 106 q-169 -4 -270 -106 q-101 -102 -104 -259 l0 0 ZM213 362 q1 90 54 146 q53 57 139 59 q86 -2 139 -59 q53 -56 54 -146 q-1 -93 -54 -153 q-53 -59 -139 -61 q-86 2 -139 61 q-53 60 -54 153 l0 0 ZM398 761 l29 0 q22 0 38 8 q16 8 29 25 l39 50 q22 28 15 47 q-8 19 -43 20 l-46 0 q-22 0 -38 -9 q-16 -10 -27 -30 l-28 -50 q-14 -25 -5 -43 q9 -17 37 -18 l0 0 Z" /><glyph glyph-name="" unicode="ô" d="M32 362 q3 -161 104 -266 q101 -104 270 -108 q169 4 270 108 q101 105 104 266 q-3 157 -104 259 q-101 102 -270 106 q-169 -4 -270 -106 q-101 -102 -104 -259 l0 0 ZM213 362 q1 90 54 146 q53 57 139 59 q86 -2 139 -59 q53 -56 54 -146 q-1 -93 -54 -153 q-53 -59 -139 -61 q-86 2 -139 61 q-53 60 -54 153 l0 0 ZM290 761 l34 0 q22 0 34 9 q12 10 22 29 l25 44 l2 0 l25 -44 q10 -19 22 -29 q12 -9 34 -9 l34 0 q29 1 35 19 q7 19 -12 48 l-31 47 q-13 19 -29 27 q-16 9 -38 9 l-82 0 q-22 0 -38 -9 q-16 -8 -29 -27 l-31 -47 q-19 -29 -12 -48 q6 -18 35 -19 l0 0 Z" /><glyph glyph-name="" unicode="õ" d="M32 362 q3 -161 104 -266 q101 -104 270 -108 q169 4 270 108 q101 105 104 266 q-3 157 -104 259 q-101 102 -270 106 q-169 -4 -270 -106 q-101 -102 -104 -259 l0 0 ZM213 362 q1 90 54 146 q53 57 139 59 q86 -2 139 -59 q53 -56 54 -146 q-1 -93 -54 -153 q-53 -59 -139 -61 q-86 2 -139 61 q-53 60 -54 153 l0 0 ZM258 761 l12 0 q18 0 29 7 q12 6 14 18 q2 14 12 23 q9 9 24 9 q27 -4 56 -30 q29 -26 87 -30 q50 1 80 31 q30 30 31 79 q0 22 -12 33 q-12 10 -36 10 l-12 0 q-20 0 -32 -7 q-12 -8 -14 -20 q-2 -16 -10 -23 q-9 -7 -23 -7 q-27 4 -56 30 q-29 26 -86 30 q-50 -1 -81 -32 q-30 -32 -31 -75 q0 -23 13 -35 q12 -11 35 -11 l0 0 Z" /><glyph glyph-name="" unicode="ö" d="M32 362 q3 -161 104 -266 q101 -104 270 -108 q169 4 270 108 q101 105 104 266 q-3 157 -104 259 q-101 102 -270 106 q-169 -4 -270 -106 q-101 -102 -104 -259 l0 0 ZM213 362 q1 90 54 146 q53 57 139 59 q86 -2 139 -59 q53 -56 54 -146 q-1 -93 -54 -153 q-53 -59 -139 -61 q-86 2 -139 61 q-53 60 -54 153 l0 0 ZM503 771 l16 0 q27 0 41 14 q14 14 14 41 l0 30 q0 27 -14 41 q-14 14 -41 14 l-16 0 q-27 0 -41 -14 q-14 -14 -14 -41 l0 -30 q0 -27 14 -41 q14 -14 41 -14 l0 0 ZM294 771 l16 0 q27 0 41 14 q14 14 14 41 l0 30 q0 27 -14 41 q-14 14 -41 14 l-16 0 q-27 0 -41 -14 q-14 -14 -14 -41 l0 -30 q0 -27 14 -41 q14 -14 41 -14 l0 0 Z" /><glyph glyph-name="" unicode="×" d="M81 54 l14 -14 q20 -20 40 -19 q20 0 38 20 l141 151 l142 -151 q18 -20 38 -20 q20 -1 40 19 l14 14 q19 19 19 39 q0 19 -18 39 l-146 155 l146 156 q18 20 18 39 q0 20 -19 39 l-14 14 q-20 20 -40 19 q-20 0 -38 -20 l-142 -152 l-141 152 q-18 20 -38 20 q-20 1 -40 -19 l-14 -14 q-19 -19 -19 -39 q0 -19 18 -39 l145 -156 l-145 -155 q-18 -20 -18 -39 q0 -20 19 -39 l0 0 Z" /><glyph glyph-name="" unicode="ø" d="M124 53 q-12 -16 -9 -30 q3 -15 20 -27 q17 -12 34 -7 q17 5 33 27 l14 20 q41 -23 89 -36 q48 -12 101 -12 q165 4 268 108 q103 105 106 266 q-1 85 -34 157 q-33 71 -93 122 l20 28 q10 13 6 26 q-4 13 -21 25 q-17 11 -34 6 q-17 -5 -33 -26 l-9 -13 q-38 20 -83 30 q-44 10 -93 10 q-165 -4 -268 -106 q-103 -102 -106 -259 q0 -84 31 -154 q30 -71 85 -122 l-24 -33 ZM252 230 q-19 26 -29 60 q-10 34 -10 72 q2 91 56 147 q55 56 137 58 q42 0 78 -17 l-232 -320 ZM314 172 l237 327 q23 -26 35 -61 q13 -35 13 -76 q-2 -95 -56 -153 q-55 -59 -137 -61 q-25 0 -48 6 q-24 7 -44 18 l0 0 Z" /><glyph glyph-name="" unicode="ù" d="M62 263 q2 -123 82 -198 q80 -75 218 -77 q137 2 217 77 q79 75 81 198 l0 397 q0 27 -14 41 q-14 14 -41 14 l-65 0 q-27 0 -41 -14 q-14 -14 -14 -41 l0 -397 q-1 -56 -34 -86 q-33 -29 -90 -29 q-57 0 -90 29 q-33 30 -34 86 l0 397 q0 27 -14 41 q-14 14 -41 14 l-65 0 q-27 0 -41 -14 q-14 -14 -14 -41 l0 -397 ZM340 761 l36 0 q27 1 32 19 q5 18 -7 41 l-28 51 q-11 20 -27 30 q-16 9 -38 9 l-46 0 q-35 -1 -42 -20 q-8 -19 14 -47 l39 -50 q13 -17 29 -25 q16 -8 38 -8 l0 0 Z" /><glyph glyph-name="" unicode="ú" d="M62 263 q2 -123 82 -198 q80 -75 218 -77 q137 2 217 77 q79 75 81 198 l0 397 q0 27 -14 41 q-14 14 -41 14 l-65 0 q-27 0 -41 -14 q-14 -14 -14 -41 l0 -397 q-1 -56 -34 -86 q-33 -29 -90 -29 q-57 0 -90 29 q-33 30 -34 86 l0 397 q0 27 -14 41 q-14 14 -41 14 l-65 0 q-27 0 -41 -14 q-14 -14 -14 -41 l0 -397 ZM353 761 l29 0 q22 0 38 8 q16 8 29 25 l39 50 q22 28 15 47 q-8 19 -43 20 l-46 0 q-22 0 -38 -9 q-16 -10 -27 -30 l-28 -50 q-14 -25 -5 -43 q9 -17 37 -18 l0 0 Z" /><glyph glyph-name="" unicode="û" d="M62 263 q2 -123 82 -198 q80 -75 218 -77 q137 2 217 77 q79 75 81 198 l0 397 q0 27 -14 41 q-14 14 -41 14 l-65 0 q-27 0 -41 -14 q-14 -14 -14 -41 l0 -397 q-1 -56 -34 -86 q-33 -29 -90 -29 q-57 0 -90 29 q-33 30 -34 86 l0 397 q0 27 -14 41 q-14 14 -41 14 l-65 0 q-27 0 -41 -14 q-14 -14 -14 -41 l0 -397 ZM245 761 l34 0 q22 0 34 9 q12 10 22 29 l25 44 l2 0 l25 -44 q10 -19 22 -29 q12 -9 34 -9 l34 0 q29 1 35 19 q7 19 -12 48 l-31 47 q-13 19 -29 27 q-16 9 -38 9 l-82 0 q-22 0 -38 -9 q-16 -8 -29 -27 l-31 -47 q-19 -29 -12 -48 q6 -18 35 -19 l0 0 Z" /><glyph glyph-name="" unicode="ü" d="M62 263 q2 -123 82 -198 q80 -75 218 -77 q137 2 217 77 q79 75 81 198 l0 397 q0 27 -14 41 q-14 14 -41 14 l-65 0 q-27 0 -41 -14 q-14 -14 -14 -41 l0 -397 q-1 -56 -34 -86 q-33 -29 -90 -29 q-57 0 -90 29 q-33 30 -34 86 l0 397 q0 27 -14 41 q-14 14 -41 14 l-65 0 q-27 0 -41 -14 q-14 -14 -14 -41 l0 -397 ZM458 771 l16 0 q27 0 41 14 q14 14 14 41 l0 30 q0 27 -14 41 q-14 14 -41 14 l-16 0 q-27 0 -41 -14 q-14 -14 -14 -41 l0 -30 q0 -27 14 -41 q14 -14 41 -14 l0 0 ZM249 771 l16 0 q27 0 41 14 q14 14 14 41 l0 30 q0 27 -14 41 q-14 14 -41 14 l-16 0 q-27 0 -41 -14 q-14 -14 -14 -41 l0 -30 q0 -27 14 -41 q14 -14 41 -14 l0 0 Z" /><glyph glyph-name="" unicode="ý" d="M213 55 q0 -27 14 -41 q14 -14 41 -14 l65 0 q27 0 41 14 q14 14 14 41 l0 238 l199 356 q16 29 5 47 q-10 18 -43 19 l-79 0 q-23 0 -39 -10 q-15 -10 -25 -31 l-61 -131 q-18 -39 -30 -70 q-12 -31 -13 -33 l-2 0 q-1 2 -13 33 q-12 31 -30 70 l-62 131 q-10 21 -25 31 q-16 10 -39 10 l-79 0 q-33 -1 -43 -19 q-11 -18 5 -47 l199 -356 l0 -238 ZM293 761 l29 0 q22 0 38 8 q16 8 29 25 l39 50 q22 28 15 47 q-8 19 -43 20 l-46 0 q-22 0 -38 -9 q-16 -10 -27 -30 l-28 -50 q-14 -25 -5 -43 q9 -17 37 -18 l0 0 Z" /><glyph glyph-name="" unicode="þ" d="M69 55 q0 -27 14 -41 q14 -14 41 -14 l65 0 q27 0 41 14 q14 14 14 41 l0 60 l122 0 q106 2 169 70 q62 68 64 178 q-2 110 -64 177 q-63 67 -169 69 l-122 0 l0 53 q0 26 -14 39 q-14 14 -41 14 l-65 0 q-27 0 -41 -14 q-14 -14 -14 -41 l0 -605 ZM244 265 l0 194 l89 0 q44 -1 66 -27 q22 -26 22 -69 q0 -44 -23 -70 q-22 -27 -68 -28 l-86 0 Z" /><glyph glyph-name="" unicode="ß" d="M52 55 q0 -27 14 -41 q14 -14 41 -14 l63 0 q27 0 41 14 q14 14 14 41 l0 460 q1 38 23 54 q22 15 54 14 q29 0 46 -15 q16 -14 16 -38 q-4 -37 -36 -72 q-31 -34 -36 -88 q8 -80 68 -120 q59 -39 67 -71 q-1 -24 -15 -33 q-15 -9 -35 -9 q-13 0 -25 1 q-12 2 -23 4 q-23 5 -35 -7 q-12 -12 -12 -41 l0 -33 q0 -24 11 -40 q10 -16 34 -21 q14 -3 34 -5 q20 -2 45 -2 q79 0 135 44 q56 43 59 131 q-8 92 -67 132 q-59 41 -67 74 q5 39 36 70 q32 32 36 90 q-3 88 -70 140 q-67 52 -161 53 q-101 0 -176 -50 q-75 -51 -79 -150 l0 -472 Z" /><glyph glyph-name="" unicode="à" d="M16 145 q1 -68 47 -112 q46 -44 121 -45 q77 5 115 41 q37 36 37 41 l2 0 q0 0 0 -3 q-1 -2 -1 -7 l0 -4 q0 -28 14 -42 q14 -14 41 -14 l48 0 q27 0 41 14 q14 14 14 41 l0 262 q-1 99 -62 154 q-60 55 -168 56 q-56 -1 -100 -13 q-44 -13 -73 -27 q-23 -12 -28 -31 q-5 -20 6 -43 l12 -25 q12 -24 31 -29 q18 -6 43 5 q20 9 44 16 q24 7 49 7 q30 0 51 -12 q21 -13 22 -45 l0 -9 l-15 0 q-102 2 -193 -36 q-92 -38 -98 -140 l0 0 ZM187 161 q3 35 41 48 q38 14 80 13 l16 0 l0 -14 q-1 -33 -25 -61 q-25 -28 -63 -30 q-24 1 -36 13 q-13 13 -13 31 l0 0 ZM250 565 l36 0 q27 1 32 19 q5 18 -7 41 l-28 51 q-11 20 -27 30 q-16 9 -38 9 l-46 0 q-35 -1 -42 -20 q-8 -19 14 -47 l39 -50 q13 -17 29 -25 q16 -8 38 -8 l0 0 Z" /><glyph glyph-name="" unicode="á" d="M16 145 q1 -68 47 -112 q46 -44 121 -45 q77 5 115 41 q37 36 37 41 l2 0 q0 0 0 -3 q-1 -2 -1 -7 l0 -4 q0 -28 14 -42 q14 -14 41 -14 l48 0 q27 0 41 14 q14 14 14 41 l0 262 q-1 99 -62 154 q-60 55 -168 56 q-56 -1 -100 -13 q-44 -13 -73 -27 q-23 -12 -28 -31 q-5 -20 6 -43 l12 -25 q12 -24 31 -29 q18 -6 43 5 q20 9 44 16 q24 7 49 7 q30 0 51 -12 q21 -13 22 -45 l0 -9 l-15 0 q-102 2 -193 -36 q-92 -38 -98 -140 l0 0 ZM187 161 q3 35 41 48 q38 14 80 13 l16 0 l0 -14 q-1 -33 -25 -61 q-25 -28 -63 -30 q-24 1 -36 13 q-13 13 -13 31 l0 0 ZM262 565 l29 0 q22 0 38 8 q16 8 29 25 l39 50 q22 28 15 47 q-8 19 -43 20 l-46 0 q-22 0 -38 -9 q-16 -10 -27 -30 l-28 -50 q-14 -25 -5 -43 q9 -17 37 -18 l0 0 Z" /><glyph glyph-name="" unicode="â" d="M16 145 q1 -68 47 -112 q46 -44 121 -45 q77 5 115 41 q37 36 37 41 l2 0 q0 0 0 -3 q-1 -2 -1 -7 l0 -4 q0 -28 14 -42 q14 -14 41 -14 l48 0 q27 0 41 14 q14 14 14 41 l0 262 q-1 99 -62 154 q-60 55 -168 56 q-56 -1 -100 -13 q-44 -13 -73 -27 q-23 -12 -28 -31 q-5 -20 6 -43 l12 -25 q12 -24 31 -29 q18 -6 43 5 q20 9 44 16 q24 7 49 7 q30 0 51 -12 q21 -13 22 -45 l0 -9 l-15 0 q-102 2 -193 -36 q-92 -38 -98 -140 l0 0 ZM187 161 q3 35 41 48 q38 14 80 13 l16 0 l0 -14 q-1 -33 -25 -61 q-25 -28 -63 -30 q-24 1 -36 13 q-13 13 -13 31 l0 0 ZM154 565 l34 0 q22 0 34 9 q12 10 22 29 l25 44 l2 0 l25 -44 q10 -19 22 -29 q12 -9 34 -9 l34 0 q29 1 35 19 q7 19 -12 48 l-31 47 q-13 19 -29 27 q-16 9 -38 9 l-82 0 q-22 0 -38 -9 q-16 -8 -29 -27 l-31 -47 q-19 -29 -12 -48 q6 -18 35 -19 l0 0 Z" /><glyph glyph-name="" unicode="ã" d="M16 145 q1 -68 47 -112 q46 -44 121 -45 q77 5 115 41 q37 36 37 41 l2 0 q0 0 0 -3 q-1 -2 -1 -7 l0 -4 q0 -28 14 -42 q14 -14 41 -14 l48 0 q27 0 41 14 q14 14 14 41 l0 262 q-1 99 -62 154 q-60 55 -168 56 q-56 -1 -100 -13 q-44 -13 -73 -27 q-23 -12 -28 -31 q-5 -20 6 -43 l12 -25 q12 -24 31 -29 q18 -6 43 5 q20 9 44 16 q24 7 49 7 q30 0 51 -12 q21 -13 22 -45 l0 -9 l-15 0 q-102 2 -193 -36 q-92 -38 -98 -140 l0 0 ZM187 161 q3 35 41 48 q38 14 80 13 l16 0 l0 -14 q-1 -33 -25 -61 q-25 -28 -63 -30 q-24 1 -36 13 q-13 13 -13 31 l0 0 ZM122 565 l12 0 q18 0 29 7 q12 6 14 18 q2 14 12 23 q9 9 24 9 q27 -4 56 -30 q29 -26 87 -30 q50 1 80 31 q30 30 31 79 q0 22 -12 33 q-12 10 -36 10 l-12 0 q-20 0 -32 -7 q-12 -8 -14 -20 q-2 -16 -10 -23 q-9 -7 -23 -7 q-27 4 -56 30 q-29 26 -86 30 q-50 -1 -81 -32 q-30 -32 -31 -75 q0 -23 13 -35 q12 -11 35 -11 l0 0 Z" /><glyph glyph-name="" unicode="ä" d="M16 145 q1 -68 47 -112 q46 -44 121 -45 q77 5 115 41 q37 36 37 41 l2 0 q0 0 0 -3 q-1 -2 -1 -7 l0 -4 q0 -28 14 -42 q14 -14 41 -14 l48 0 q27 0 41 14 q14 14 14 41 l0 262 q-1 99 -62 154 q-60 55 -168 56 q-56 -1 -100 -13 q-44 -13 -73 -27 q-23 -12 -28 -31 q-5 -20 6 -43 l12 -25 q12 -24 31 -29 q18 -6 43 5 q20 9 44 16 q24 7 49 7 q30 0 51 -12 q21 -13 22 -45 l0 -9 l-15 0 q-102 2 -193 -36 q-92 -38 -98 -140 l0 0 ZM187 161 q3 35 41 48 q38 14 80 13 l16 0 l0 -14 q-1 -33 -25 -61 q-25 -28 -63 -30 q-24 1 -36 13 q-13 13 -13 31 l0 0 ZM367 575 l16 0 q27 0 41 14 q14 14 14 41 l0 30 q0 27 -14 41 q-14 14 -41 14 l-16 0 q-27 0 -41 -14 q-14 -14 -14 -41 l0 -30 q0 -27 14 -41 q14 -14 41 -14 l0 0 ZM158 575 l16 0 q27 0 41 14 q14 14 14 41 l0 30 q0 27 -14 41 q-14 14 -41 14 l-16 0 q-27 0 -41 -14 q-14 -14 -14 -41 l0 -30 q0 -27 14 -41 q14 -14 41 -14 l0 0 Z" /><glyph glyph-name="" unicode="å" d="M16 145 q1 -68 47 -112 q46 -44 121 -45 q77 5 115 41 q37 36 37 41 l2 0 q0 0 0 -3 q-1 -2 -1 -7 l0 -4 q0 -28 14 -42 q14 -14 41 -14 l48 0 q27 0 41 14 q14 14 14 41 l0 262 q-1 99 -62 154 q-60 55 -168 56 q-56 -1 -100 -13 q-44 -13 -73 -27 q-23 -12 -28 -31 q-5 -20 6 -43 l12 -25 q12 -24 31 -29 q18 -6 43 5 q20 9 44 16 q24 7 49 7 q30 0 51 -12 q21 -13 22 -45 l0 -9 l-15 0 q-102 2 -193 -36 q-92 -38 -98 -140 l0 0 ZM187 161 q3 35 41 48 q38 14 80 13 l16 0 l0 -14 q-1 -33 -25 -61 q-25 -28 -63 -30 q-24 1 -36 13 q-13 13 -13 31 l0 0 ZM270 551 q42 0 75 20 q33 21 35 65 q-2 44 -35 65 q-33 21 -75 21 q-42 0 -74 -21 q-33 -21 -35 -65 q2 -44 35 -65 q32 -20 74 -20 l0 0 ZM270 601 q-16 0 -25 10 q-9 9 -9 25 q0 17 10 26 q9 10 24 10 q16 0 25 -10 q10 -9 10 -26 q0 -16 -10 -25 q-9 -10 -25 -10 l0 0 Z" /><glyph glyph-name="" unicode="æ" d="M18 154 q2 -77 52 -120 q49 -44 123 -45 q91 3 137 36 q47 32 56 53 l2 0 q33 -42 83 -66 q50 -24 124 -24 q59 1 104 15 q45 14 73 31 q22 13 27 32 q4 20 -8 43 l-14 25 q-13 24 -31 28 q-18 5 -43 -7 q-20 -9 -44 -16 q-24 -7 -50 -7 q-42 0 -76 22 q-33 22 -44 70 l271 0 q26 1 42 18 q16 18 16 39 q-1 106 -62 175 q-61 69 -176 71 q-49 0 -87 -13 q-38 -14 -67 -38 l-2 0 q-26 24 -65 38 q-39 13 -98 13 q-54 -1 -97 -13 q-43 -13 -71 -28 q-23 -12 -28 -31 q-5 -19 6 -43 l12 -24 q12 -24 31 -30 q18 -5 43 6 q20 9 44 16 q23 7 47 7 q33 0 54 -12 q21 -13 22 -45 l0 -7 l-4 0 q-73 4 -182 -27 q-109 -30 -120 -142 l0 0 ZM493 323 q8 33 29 53 q21 20 58 21 q29 -1 46 -23 q18 -22 18 -51 l-151 0 ZM192 163 q2 31 38 46 q37 15 80 15 l17 0 l0 -12 q-1 -33 -24 -62 q-24 -28 -60 -30 q-27 0 -39 13 q-12 12 -12 30 l0 0 Z" /><glyph glyph-name="" unicode="ç" d="M241 -44 q-5 -17 -2 -26 q3 -9 16 -10 q18 -1 30 -6 q11 -6 11 -18 q0 -11 -7 -18 q-7 -6 -20 -6 q-5 0 -11 1 q-7 1 -14 1 q-9 0 -16 -10 q-8 -11 -8 -33 q1 -26 22 -34 q20 -8 42 -7 q45 -1 80 20 q35 21 37 74 q-1 39 -22 58 q-22 19 -53 22 l5 25 q56 4 96 20 q41 16 66 33 q20 14 23 33 q3 19 -8 42 l-13 25 q-13 25 -31 29 q-19 4 -44 -10 q-19 -12 -43 -20 q-24 -9 -50 -9 q-65 2 -97 41 q-32 39 -32 87 q0 48 31 84 q31 37 92 39 q23 0 42 -6 q19 -5 34 -13 q24 -12 42 -10 q18 3 32 26 l17 26 q14 22 11 42 q-2 19 -23 33 q-25 17 -66 31 q-42 14 -100 15 q-139 -4 -213 -83 q-73 -79 -74 -186 q1 -98 59 -171 q59 -74 170 -94 l-11 -37 Z" /><glyph glyph-name="" unicode="è" d="M22 258 q0 -107 73 -186 q72 -80 210 -84 q59 1 104 15 q45 14 73 31 q22 13 27 32 q4 20 -8 43 l-14 26 q-13 24 -31 28 q-18 5 -43 -7 q-20 -10 -44 -17 q-24 -7 -50 -7 q-42 0 -76 22 q-33 23 -44 70 l271 0 q26 1 42 18 q16 18 16 39 q-1 106 -62 175 q-61 69 -176 71 q-126 -3 -196 -78 q-71 -75 -72 -191 l0 0 ZM203 323 q6 32 26 54 q20 22 57 23 q33 -1 52 -23 q19 -22 19 -54 l-154 0 ZM266 565 l36 0 q27 1 32 19 q5 18 -7 41 l-28 51 q-11 20 -27 30 q-16 9 -38 9 l-46 0 q-35 -1 -42 -20 q-8 -19 14 -47 l39 -50 q13 -17 29 -25 q16 -8 38 -8 l0 0 Z" /><glyph glyph-name="" unicode="é" d="M22 258 q0 -107 73 -186 q72 -80 210 -84 q59 1 104 15 q45 14 73 31 q22 13 27 32 q4 20 -8 43 l-14 26 q-13 24 -31 28 q-18 5 -43 -7 q-20 -10 -44 -17 q-24 -7 -50 -7 q-42 0 -76 22 q-33 23 -44 70 l271 0 q26 1 42 18 q16 18 16 39 q-1 106 -62 175 q-61 69 -176 71 q-126 -3 -196 -78 q-71 -75 -72 -191 l0 0 ZM203 323 q6 32 26 54 q20 22 57 23 q33 -1 52 -23 q19 -22 19 -54 l-154 0 ZM278 565 l29 0 q22 0 38 8 q16 8 29 25 l39 50 q22 28 15 47 q-8 19 -43 20 l-46 0 q-22 0 -38 -9 q-16 -10 -27 -30 l-28 -50 q-14 -25 -5 -43 q9 -17 37 -18 l0 0 Z" /><glyph glyph-name="" unicode="ê" d="M22 258 q0 -107 73 -186 q72 -80 210 -84 q59 1 104 15 q45 14 73 31 q22 13 27 32 q4 20 -8 43 l-14 26 q-13 24 -31 28 q-18 5 -43 -7 q-20 -10 -44 -17 q-24 -7 -50 -7 q-42 0 -76 22 q-33 23 -44 70 l271 0 q26 1 42 18 q16 18 16 39 q-1 106 -62 175 q-61 69 -176 71 q-126 -3 -196 -78 q-71 -75 -72 -191 l0 0 ZM203 323 q6 32 26 54 q20 22 57 23 q33 -1 52 -23 q19 -22 19 -54 l-154 0 ZM170 565 l34 0 q22 0 34 9 q12 10 22 29 l25 44 l2 0 l25 -44 q10 -19 22 -29 q12 -9 34 -9 l34 0 q29 1 35 19 q7 19 -12 48 l-31 47 q-13 19 -29 27 q-16 9 -38 9 l-82 0 q-22 0 -38 -9 q-16 -8 -29 -27 l-31 -47 q-19 -29 -12 -48 q6 -18 35 -19 l0 0 Z" /><glyph glyph-name="" unicode="ë" d="M22 258 q0 -107 73 -186 q72 -80 210 -84 q59 1 104 15 q45 14 73 31 q22 13 27 32 q4 20 -8 43 l-14 26 q-13 24 -31 28 q-18 5 -43 -7 q-20 -10 -44 -17 q-24 -7 -50 -7 q-42 0 -76 22 q-33 23 -44 70 l271 0 q26 1 42 18 q16 18 16 39 q-1 106 -62 175 q-61 69 -176 71 q-126 -3 -196 -78 q-71 -75 -72 -191 l0 0 ZM203 323 q6 32 26 54 q20 22 57 23 q33 -1 52 -23 q19 -22 19 -54 l-154 0 ZM383 575 l16 0 q27 0 41 14 q14 14 14 41 l0 30 q0 27 -14 41 q-14 14 -41 14 l-16 0 q-27 0 -41 -14 q-14 -14 -14 -41 l0 -30 q0 -27 14 -41 q14 -14 41 -14 l0 0 ZM174 575 l16 0 q27 0 41 14 q14 14 14 41 l0 30 q0 27 -14 41 q-14 14 -41 14 l-16 0 q-27 0 -41 -14 q-14 -14 -14 -41 l0 -30 q0 -27 14 -41 q14 -14 41 -14 l0 0 Z" /><glyph glyph-name="" unicode="ì" d="M51 55 q0 -27 14 -41 q14 -14 41 -14 l63 0 q27 0 41 14 q14 14 14 41 l0 405 q0 27 -14 41 q-14 14 -41 14 l-63 0 q-27 0 -41 -14 q-14 -14 -14 -41 l0 -405 ZM116 565 l36 0 q27 1 32 19 q5 18 -7 41 l-28 51 q-11 20 -27 30 q-16 9 -38 9 l-46 0 q-35 -1 -42 -20 q-8 -19 14 -47 l39 -50 q13 -17 29 -25 q16 -8 38 -8 l0 0 Z" /><glyph glyph-name="" unicode="í" d="M51 55 q0 -27 14 -41 q14 -14 41 -14 l63 0 q27 0 41 14 q14 14 14 41 l0 405 q0 27 -14 41 q-14 14 -41 14 l-63 0 q-27 0 -41 -14 q-14 -14 -14 -41 l0 -405 ZM129 565 l29 0 q22 0 38 8 q16 8 29 25 l39 50 q22 28 15 47 q-8 19 -43 20 l-46 0 q-22 0 -38 -9 q-16 -10 -27 -30 l-28 -50 q-14 -25 -5 -43 q9 -17 37 -18 l0 0 Z" /><glyph glyph-name="" unicode="î" d="M51 55 q0 -27 14 -41 q14 -14 41 -14 l63 0 q27 0 41 14 q14 14 14 41 l0 405 q0 27 -14 41 q-14 14 -41 14 l-63 0 q-27 0 -41 -14 q-14 -14 -14 -41 l0 -405 ZM21 565 l34 0 q22 0 34 9 q12 10 22 29 l25 44 l2 0 l25 -44 q10 -19 22 -29 q12 -9 34 -9 l34 0 q29 1 35 19 q7 19 -12 48 l-31 47 q-13 19 -29 27 q-16 9 -38 9 l-82 0 q-22 0 -38 -9 q-16 -8 -29 -27 l-31 -47 q-19 -29 -12 -48 q6 -18 35 -19 l0 0 Z" /><glyph glyph-name="" unicode="ï" d="M51 55 q0 -27 14 -41 q14 -14 41 -14 l63 0 q27 0 41 14 q14 14 14 41 l0 405 q0 27 -14 41 q-14 14 -41 14 l-63 0 q-27 0 -41 -14 q-14 -14 -14 -41 l0 -405 ZM234 575 l16 0 q27 0 41 14 q14 14 14 41 l0 30 q0 27 -14 41 q-14 14 -41 14 l-16 0 q-27 0 -41 -14 q-14 -14 -14 -41 l0 -30 q0 -27 14 -41 q14 -14 41 -14 l0 0 ZM25 575 l16 0 q27 0 41 14 q14 14 14 41 l0 30 q0 27 -14 41 q-14 14 -41 14 l-16 0 q-27 0 -41 -14 q-14 -14 -14 -41 l0 -30 q0 -27 14 -41 q14 -14 41 -14 l0 0 Z" /><glyph glyph-name="" unicode="ð" d="M24 241 q1 -101 66 -175 q66 -74 188 -78 q149 6 210 96 q62 90 60 199 q-1 95 -34 171 q-33 76 -93 133 l52 22 q21 9 30 21 q10 12 2 28 l-9 19 q-7 15 -18 20 q-12 4 -40 -8 l-97 -40 q-41 25 -86 44 q-45 19 -95 33 q-25 7 -43 -3 q-17 -10 -26 -34 l-11 -32 q-9 -26 0 -43 q10 -17 36 -26 q20 -6 40 -15 l-61 -25 q-22 -9 -32 -21 q-10 -12 -1 -33 l6 -14 q7 -20 20 -23 q12 -3 40 8 l128 53 q25 -14 46 -34 q21 -20 32 -39 l-2 0 q0 1 -20 10 q-20 8 -57 9 q-109 -3 -169 -68 q-61 -65 -62 -155 l0 0 ZM198 236 q0 39 23 67 q23 28 70 29 q40 -1 61 -23 q22 -22 22 -59 q1 -45 -21 -80 q-21 -36 -72 -38 q-45 2 -64 32 q-20 31 -19 72 l0 0 Z" /><glyph glyph-name="" unicode="ñ" d="M51 55 q0 -27 14 -41 q14 -14 41 -14 l63 0 q27 0 41 14 q14 14 14 41 l0 178 q0 56 27 96 q27 39 85 41 q29 0 43 -16 q14 -16 14 -52 l0 -247 q0 -27 14 -41 q14 -14 41 -14 l63 0 q27 0 41 14 q14 14 14 41 l0 279 q-2 107 -53 151 q-52 44 -132 42 q-68 -2 -107 -29 q-40 -28 -57 -60 l-2 0 q0 0 1 5 q0 4 0 8 l0 9 q0 55 -54 55 l-56 0 q-27 0 -41 -14 q-14 -14 -14 -41 l0 -405 ZM164 565 l12 0 q18 0 29 7 q12 6 14 18 q2 14 12 23 q9 9 24 9 q27 -4 56 -30 q29 -26 87 -30 q50 1 80 31 q30 30 31 79 q0 22 -12 33 q-12 10 -36 10 l-12 0 q-20 0 -32 -7 q-12 -8 -14 -20 q-2 -16 -10 -23 q-9 -7 -23 -7 q-27 4 -56 30 q-29 26 -86 30 q-50 -1 -81 -32 q-30 -32 -31 -75 q0 -23 13 -35 q12 -11 35 -11 l0 0 Z" /><glyph glyph-name="" unicode="ò" d="M22 256 q3 -122 85 -194 q82 -72 207 -74 q125 2 207 74 q82 72 85 194 q-3 123 -85 196 q-83 73 -208 75 q-124 -2 -206 -75 q-82 -73 -85 -196 l0 0 ZM197 256 q1 59 35 93 q33 33 82 34 q49 -1 82 -34 q34 -34 35 -93 q-1 -58 -35 -91 q-33 -32 -82 -33 q-49 1 -82 33 q-34 33 -35 91 l0 0 ZM293 565 l36 0 q27 1 32 19 q5 18 -7 41 l-28 51 q-11 20 -27 30 q-16 9 -38 9 l-46 0 q-35 -1 -42 -20 q-8 -19 14 -47 l39 -50 q13 -17 29 -25 q16 -8 38 -8 l0 0 Z" /><glyph glyph-name="" unicode="ó" d="M22 256 q3 -122 85 -194 q82 -72 207 -74 q125 2 207 74 q82 72 85 194 q-3 123 -85 196 q-83 73 -208 75 q-124 -2 -206 -75 q-82 -73 -85 -196 l0 0 ZM197 256 q1 59 35 93 q33 33 82 34 q49 -1 82 -34 q34 -34 35 -93 q-1 -58 -35 -91 q-33 -32 -82 -33 q-49 1 -82 33 q-34 33 -35 91 l0 0 ZM306 565 l29 0 q22 0 38 8 q16 8 29 25 l39 50 q22 28 15 47 q-8 19 -43 20 l-46 0 q-22 0 -38 -9 q-16 -10 -27 -30 l-28 -50 q-14 -25 -5 -43 q9 -17 37 -18 l0 0 Z" /><glyph glyph-name="" unicode="ô" d="M22 256 q3 -122 85 -194 q82 -72 207 -74 q125 2 207 74 q82 72 85 194 q-3 123 -85 196 q-83 73 -208 75 q-124 -2 -206 -75 q-82 -73 -85 -196 l0 0 ZM197 256 q1 59 35 93 q33 33 82 34 q49 -1 82 -34 q34 -34 35 -93 q-1 -58 -35 -91 q-33 -32 -82 -33 q-49 1 -82 33 q-34 33 -35 91 l0 0 ZM198 565 l34 0 q22 0 34 9 q12 10 22 29 l25 44 l2 0 l25 -44 q10 -19 22 -29 q12 -9 34 -9 l34 0 q29 1 35 19 q7 19 -12 48 l-31 47 q-13 19 -29 27 q-16 9 -38 9 l-82 0 q-22 0 -38 -9 q-16 -8 -29 -27 l-31 -47 q-19 -29 -12 -48 q6 -18 35 -19 l0 0 Z" /><glyph glyph-name="" unicode="õ" d="M22 256 q3 -122 85 -194 q82 -72 207 -74 q125 2 207 74 q82 72 85 194 q-3 123 -85 196 q-83 73 -208 75 q-124 -2 -206 -75 q-82 -73 -85 -196 l0 0 ZM197 256 q1 59 35 93 q33 33 82 34 q49 -1 82 -34 q34 -34 35 -93 q-1 -58 -35 -91 q-33 -32 -82 -33 q-49 1 -82 33 q-34 33 -35 91 l0 0 ZM166 565 l12 0 q18 0 29 7 q12 6 14 18 q2 14 12 23 q9 9 24 9 q27 -4 56 -30 q29 -26 87 -30 q50 1 80 31 q30 30 31 79 q0 22 -12 33 q-12 10 -36 10 l-12 0 q-20 0 -32 -7 q-12 -8 -14 -20 q-2 -16 -10 -23 q-9 -7 -23 -7 q-27 4 -56 30 q-29 26 -86 30 q-50 -1 -81 -32 q-30 -32 -31 -75 q0 -23 13 -35 q12 -11 35 -11 l0 0 Z" /><glyph glyph-name="" unicode="ö" d="M22 256 q3 -122 85 -194 q82 -72 207 -74 q125 2 207 74 q82 72 85 194 q-3 123 -85 196 q-83 73 -208 75 q-124 -2 -206 -75 q-82 -73 -85 -196 l0 0 ZM197 256 q1 59 35 93 q33 33 82 34 q49 -1 82 -34 q34 -34 35 -93 q-1 -58 -35 -91 q-33 -32 -82 -33 q-49 1 -82 33 q-34 33 -35 91 l0 0 ZM411 575 l16 0 q27 0 41 14 q14 14 14 41 l0 30 q0 27 -14 41 q-14 14 -41 14 l-16 0 q-27 0 -41 -14 q-14 -14 -14 -41 l0 -30 q0 -27 14 -41 q14 -14 41 -14 l0 0 ZM202 575 l16 0 q27 0 41 14 q14 14 14 41 l0 30 q0 27 -14 41 q-14 14 -41 14 l-16 0 q-27 0 -41 -14 q-14 -14 -14 -41 l0 -30 q0 -27 14 -41 q14 -14 41 -14 l0 0 Z" /><glyph glyph-name="" unicode="÷" d="M297 440 l36 0 q27 0 41 14 q14 14 14 41 l0 25 q0 27 -14 41 q-14 14 -41 14 l-36 0 q-27 0 -41 -14 q-14 -14 -14 -41 l0 -25 q0 -27 14 -41 q14 -14 41 -14 l0 0 ZM97 222 l436 0 q27 0 41 14 q14 14 14 41 l0 20 q0 27 -14 41 q-14 14 -41 14 l-436 0 q-27 0 -41 -14 q-14 -14 -14 -41 l0 -20 q0 -27 14 -41 q14 -14 41 -14 l0 0 ZM242 55 q0 -27 14 -41 q14 -14 41 -14 l36 0 q27 0 41 14 q14 14 14 41 l0 25 q0 27 -14 41 q-14 14 -41 14 l-36 0 q-27 0 -41 -14 q-14 -14 -14 -41 l0 -25 Z" /><glyph glyph-name="" unicode="ø" d="M101 24 q-10 -14 -6 -27 q3 -13 19 -24 q33 -22 65 21 l12 17 q28 -11 59 -17 q31 -6 65 -6 q125 2 207 74 q82 72 85 194 q0 64 -25 115 q-25 52 -69 88 l20 28 q10 13 6 26 q-3 13 -19 24 q-33 21 -65 -22 l-10 -14 q-60 26 -131 26 q-124 -2 -206 -75 q-82 -73 -85 -196 q0 -65 26 -117 q26 -52 71 -88 l-19 -27 ZM217 185 q-9 14 -14 32 q-5 18 -5 39 q1 59 35 93 q33 33 82 34 q10 0 20 -2 q10 -2 20 -5 l-138 -191 ZM281 136 l135 187 q8 -14 12 -31 q4 -17 4 -36 q-1 -58 -35 -91 q-33 -32 -82 -33 q-18 0 -34 4 l0 0 Z" /><glyph glyph-name="" unicode="ù" d="M45 181 q2 -107 53 -151 q52 -44 130 -42 q53 0 96 24 q43 23 65 65 l2 0 q0 0 0 -5 q-1 -4 -1 -8 l0 -9 q0 -54 54 -55 l56 0 q27 0 41 14 q14 14 14 41 l0 405 q0 27 -14 41 q-14 14 -41 14 l-63 0 q-27 0 -41 -14 q-14 -14 -14 -41 l0 -173 q0 -59 -27 -100 q-27 -40 -82 -42 q-27 0 -41 16 q-14 16 -14 52 l0 247 q0 27 -14 41 q-14 14 -41 14 l-63 0 q-27 0 -41 -14 q-14 -14 -14 -41 l0 -279 ZM279 565 l36 0 q27 1 32 19 q5 18 -7 41 l-28 51 q-11 20 -27 30 q-16 9 -38 9 l-46 0 q-35 -1 -42 -20 q-8 -19 14 -47 l39 -50 q13 -17 29 -25 q16 -8 38 -8 l0 0 Z" /><glyph glyph-name="" unicode="ú" d="M45 181 q2 -107 53 -151 q52 -44 130 -42 q53 0 96 24 q43 23 65 65 l2 0 q0 0 0 -5 q-1 -4 -1 -8 l0 -9 q0 -54 54 -55 l56 0 q27 0 41 14 q14 14 14 41 l0 405 q0 27 -14 41 q-14 14 -41 14 l-63 0 q-27 0 -41 -14 q-14 -14 -14 -41 l0 -173 q0 -59 -27 -100 q-27 -40 -82 -42 q-27 0 -41 16 q-14 16 -14 52 l0 247 q0 27 -14 41 q-14 14 -41 14 l-63 0 q-27 0 -41 -14 q-14 -14 -14 -41 l0 -279 ZM292 565 l29 0 q22 0 38 8 q16 8 29 25 l39 50 q22 28 15 47 q-8 19 -43 20 l-46 0 q-22 0 -38 -9 q-16 -10 -27 -30 l-28 -50 q-14 -25 -5 -43 q9 -17 37 -18 l0 0 Z" /><glyph glyph-name="" unicode="û" d="M45 181 q2 -107 53 -151 q52 -44 130 -42 q53 0 96 24 q43 23 65 65 l2 0 q0 0 0 -5 q-1 -4 -1 -8 l0 -9 q0 -54 54 -55 l56 0 q27 0 41 14 q14 14 14 41 l0 405 q0 27 -14 41 q-14 14 -41 14 l-63 0 q-27 0 -41 -14 q-14 -14 -14 -41 l0 -173 q0 -59 -27 -100 q-27 -40 -82 -42 q-27 0 -41 16 q-14 16 -14 52 l0 247 q0 27 -14 41 q-14 14 -41 14 l-63 0 q-27 0 -41 -14 q-14 -14 -14 -41 l0 -279 ZM184 565 l34 0 q22 0 34 9 q12 10 22 29 l25 44 l2 0 l25 -44 q10 -19 22 -29 q12 -9 34 -9 l34 0 q29 1 35 19 q7 19 -12 48 l-31 47 q-13 19 -29 27 q-16 9 -38 9 l-82 0 q-22 0 -38 -9 q-16 -8 -29 -27 l-31 -47 q-19 -29 -12 -48 q6 -18 35 -19 l0 0 Z" /><glyph glyph-name="" unicode="ü" d="M45 181 q2 -107 53 -151 q52 -44 130 -42 q53 0 96 24 q43 23 65 65 l2 0 q0 0 0 -5 q-1 -4 -1 -8 l0 -9 q0 -54 54 -55 l56 0 q27 0 41 14 q14 14 14 41 l0 405 q0 27 -14 41 q-14 14 -41 14 l-63 0 q-27 0 -41 -14 q-14 -14 -14 -41 l0 -173 q0 -59 -27 -100 q-27 -40 -82 -42 q-27 0 -41 16 q-14 16 -14 52 l0 247 q0 27 -14 41 q-14 14 -41 14 l-63 0 q-27 0 -41 -14 q-14 -14 -14 -41 l0 -279 ZM397 575 l16 0 q27 0 41 14 q14 14 14 41 l0 30 q0 27 -14 41 q-14 14 -41 14 l-16 0 q-27 0 -41 -14 q-14 -14 -14 -41 l0 -30 q0 -27 14 -41 q14 -14 41 -14 l0 0 ZM188 575 l16 0 q27 0 41 14 q14 14 14 41 l0 30 q0 27 -14 41 q-14 14 -41 14 l-16 0 q-27 0 -41 -14 q-14 -14 -14 -41 l0 -30 q0 -27 14 -41 q14 -14 41 -14 l0 0 Z" /><glyph glyph-name="" unicode="ý" d="M30 -96 l-13 -29 q-11 -24 -4 -44 q6 -19 31 -28 q15 -5 33 -9 q19 -4 39 -4 q63 -1 122 34 q59 36 93 121 l188 507 q10 29 -2 46 q-12 17 -42 17 l-73 0 q-25 0 -40 -11 q-15 -12 -22 -36 l-52 -193 q-6 -23 -11 -49 q-6 -26 -6 -28 l-2 0 q0 2 -6 30 q-6 27 -13 50 l-61 192 q-7 23 -23 34 q-15 11 -40 11 l-78 0 q-32 0 -43 -18 q-11 -17 1 -46 l191 -441 l-10 -24 q-9 -23 -28 -39 q-19 -15 -43 -16 q-9 0 -16 2 q-8 1 -14 3 q-16 4 -31 -3 q-14 -6 -25 -29 l0 0 ZM262 564 l29 0 q22 0 38 8 q16 8 29 25 l39 50 q22 28 15 47 q-8 19 -43 20 l-46 0 q-22 0 -38 -9 q-16 -10 -27 -30 l-28 -50 q-14 -25 -5 -43 q9 -17 37 -18 l0 0 Z" /><glyph glyph-name="" unicode="þ" d="M53 -145 q0 -27 14 -41 q14 -14 41 -14 l63 0 q27 0 41 14 q14 14 14 41 l0 137 q0 20 -1 32 q-1 12 -1 12 l2 0 q-1 -3 31 -24 q31 -21 103 -24 q108 3 171 78 q64 75 65 192 q-1 117 -65 192 q-63 74 -171 77 q-46 0 -79 -14 q-32 -13 -55 -39 l-2 0 q0 0 1 12 q1 12 1 32 l0 142 q0 27 -14 41 q-14 14 -41 14 l-63 0 q-27 0 -41 -14 q-14 -14 -14 -41 l0 -805 ZM221 257 q1 70 30 99 q29 28 74 27 q45 -1 71 -37 q26 -36 26 -88 q0 -52 -26 -88 q-26 -36 -71 -38 q-45 -1 -74 27 q-29 28 -30 98 l0 0 Z" /><glyph glyph-name="" unicode="ÿ" d="M30 -96 l-13 -29 q-11 -24 -4 -44 q6 -19 31 -28 q15 -5 33 -9 q19 -4 39 -4 q63 -1 122 34 q59 36 93 121 l188 507 q10 29 -2 46 q-12 17 -42 17 l-73 0 q-25 0 -40 -11 q-15 -12 -22 -36 l-52 -193 q-6 -23 -11 -49 q-6 -26 -6 -28 l-2 0 q0 2 -6 30 q-6 27 -13 50 l-61 192 q-7 23 -23 34 q-15 11 -40 11 l-78 0 q-32 0 -43 -18 q-11 -17 1 -46 l191 -441 l-10 -24 q-9 -23 -28 -39 q-19 -15 -43 -16 q-9 0 -16 2 q-8 1 -14 3 q-16 4 -31 -3 q-14 -6 -25 -29 l0 0 ZM367 574 l16 0 q27 0 41 14 q14 14 14 41 l0 30 q0 27 -14 41 q-14 14 -41 14 l-16 0 q-27 0 -41 -14 q-14 -14 -14 -41 l0 -30 q0 -27 14 -41 q14 -14 41 -14 l0 0 ZM158 574 l16 0 q27 0 41 14 q14 14 14 41 l0 30 q0 27 -14 41 q-14 14 -41 14 l-16 0 q-27 0 -41 -14 q-14 -14 -14 -41 l0 -30 q0 -27 14 -41 q14 -14 41 -14 l0 0 Z" /><glyph glyph-name="" unicode="&#x100;" d="M13 63 q-9 -29 3 -46 q12 -17 42 -17 l66 0 q48 0 61 46 l30 104 l223 0 l30 -104 q7 -23 23 -35 q15 -11 39 -11 l66 0 q30 0 42 17 q12 17 3 46 l-207 607 q-7 23 -23 34 q-15 11 -39 11 l-90 0 q-24 0 -39 -11 q-16 -11 -23 -34 l-207 -607 ZM256 290 l41 139 q10 37 19 78 q9 42 10 45 l2 0 q1 -3 10 -45 q9 -41 19 -78 l40 -139 l-141 0 ZM245 782 l165 0 q27 0 41 13 q14 12 14 39 l0 8 q0 27 -14 40 q-14 12 -41 12 l-165 0 q-27 0 -41 -12 q-14 -13 -14 -40 l0 -8 q0 -27 14 -39 q14 -13 41 -13 l0 0 Z" /><glyph glyph-name="" unicode="&#x101;" d="M16 145 q1 -68 47 -112 q46 -44 121 -45 q77 5 115 41 q37 36 37 41 l2 0 q0 0 0 -3 q-1 -2 -1 -7 l0 -4 q0 -28 14 -42 q14 -14 41 -14 l48 0 q27 0 41 14 q14 14 14 41 l0 262 q-1 99 -62 154 q-60 55 -168 56 q-56 -1 -100 -13 q-44 -13 -73 -27 q-23 -12 -28 -31 q-5 -20 6 -43 l12 -25 q12 -24 31 -29 q18 -6 43 5 q20 9 44 16 q24 7 49 7 q30 0 51 -12 q21 -13 22 -45 l0 -9 l-15 0 q-102 2 -193 -36 q-92 -38 -98 -140 l0 0 ZM187 161 q3 35 41 48 q38 14 80 13 l16 0 l0 -14 q-1 -33 -25 -61 q-25 -28 -63 -30 q-24 1 -36 13 q-13 13 -13 31 l0 0 ZM188 586 l165 0 q27 0 41 13 q14 12 14 39 l0 8 q0 27 -14 40 q-14 12 -41 12 l-165 0 q-27 0 -41 -12 q-14 -13 -14 -40 l0 -8 q0 -27 14 -39 q14 -13 41 -13 l0 0 Z" /><glyph glyph-name="" unicode="&#x102;" d="M13 63 q-9 -29 3 -46 q12 -17 42 -17 l66 0 q48 0 61 46 l30 104 l223 0 l30 -104 q7 -23 23 -35 q15 -11 39 -11 l66 0 q30 0 42 17 q12 17 3 46 l-207 607 q-7 23 -23 34 q-15 11 -39 11 l-90 0 q-24 0 -39 -11 q-16 -11 -23 -34 l-207 -607 ZM256 290 l41 139 q10 37 19 78 q9 42 10 45 l2 0 q1 -3 10 -45 q9 -41 19 -78 l40 -139 l-141 0 ZM327 756 q64 0 116 33 q53 32 56 91 q0 14 -10 22 q-11 9 -36 9 l-26 0 q-23 -1 -33 -12 q-10 -12 -13 -24 q-7 -18 -21 -26 q-15 -7 -33 -7 q-18 0 -33 7 q-14 8 -21 26 q-3 12 -13 24 q-10 11 -33 12 l-26 0 q-25 0 -36 -9 q-10 -8 -10 -22 q3 -57 56 -90 q53 -33 116 -34 l0 0 Z" /><glyph glyph-name="" unicode="&#x103;" d="M16 145 q1 -68 47 -112 q46 -44 121 -45 q77 5 115 41 q37 36 37 41 l2 0 q0 0 0 -3 q-1 -2 -1 -7 l0 -4 q0 -28 14 -42 q14 -14 41 -14 l48 0 q27 0 41 14 q14 14 14 41 l0 262 q-1 99 -62 154 q-60 55 -168 56 q-56 -1 -100 -13 q-44 -13 -73 -27 q-23 -12 -28 -31 q-5 -20 6 -43 l12 -25 q12 -24 31 -29 q18 -6 43 5 q20 9 44 16 q24 7 49 7 q30 0 51 -12 q21 -13 22 -45 l0 -9 l-15 0 q-102 2 -193 -36 q-92 -38 -98 -140 l0 0 ZM187 161 q3 35 41 48 q38 14 80 13 l16 0 l0 -14 q-1 -33 -25 -61 q-25 -28 -63 -30 q-24 1 -36 13 q-13 13 -13 31 l0 0 ZM270 560 q64 0 116 33 q53 32 56 91 q0 14 -10 22 q-11 9 -36 9 l-26 0 q-23 -1 -33 -12 q-10 -12 -13 -24 q-7 -18 -21 -26 q-15 -7 -33 -7 q-18 0 -33 7 q-14 8 -21 26 q-3 12 -13 24 q-10 11 -33 12 l-26 0 q-25 0 -36 -9 q-10 -8 -10 -22 q3 -57 56 -90 q53 -33 116 -34 l0 0 Z" /><glyph glyph-name="" unicode="&#x104;" d="M13 63 q-9 -29 3 -46 q12 -17 42 -17 l66 0 q48 0 61 46 l30 104 l223 0 l30 -104 q11 -33 31 -40 q21 -7 23 -6 q-21 -18 -39 -46 q-19 -27 -20 -60 q3 -45 41 -69 q38 -24 78 -28 q19 -2 32 7 q14 9 17 28 l4 29 q2 19 -1 31 q-4 13 -16 19 q-9 4 -17 10 q-8 5 -8 15 q1 16 14 26 q12 10 28 23 q11 11 13 31 q2 19 -7 47 l-207 607 q-7 23 -23 34 q-15 11 -39 11 l-90 0 q-24 0 -39 -11 q-16 -11 -23 -34 l-207 -607 ZM256 290 l41 139 q10 37 19 78 q9 42 10 45 l2 0 q1 -3 10 -45 q9 -41 19 -78 l40 -139 l-141 0 Z" /><glyph glyph-name="" unicode="&#x105;" d="M16 145 q1 -68 47 -112 q46 -44 121 -45 q77 5 115 41 q37 36 37 41 l2 0 q0 0 0 -3 q-1 -2 -1 -7 l0 -4 q0 -17 5 -29 q5 -12 14 -17 q-21 -22 -37 -50 q-15 -29 -16 -66 q3 -45 41 -69 q38 -24 78 -28 q19 -2 32 7 q14 9 17 28 l4 29 q2 19 -1 31 q-4 13 -16 19 q-9 4 -17 10 q-8 5 -8 15 q4 35 31 57 q27 21 31 62 l0 262 q-1 99 -62 154 q-60 55 -168 56 q-56 -1 -100 -13 q-44 -13 -73 -27 q-23 -12 -28 -31 q-5 -20 6 -43 l12 -25 q12 -24 31 -29 q18 -6 43 5 q20 9 44 16 q24 7 49 7 q30 0 51 -12 q21 -13 22 -45 l0 -9 l-15 0 q-102 2 -193 -36 q-92 -38 -98 -140 l0 0 ZM187 161 q3 35 41 48 q38 14 80 13 l16 0 l0 -14 q-1 -33 -25 -61 q-25 -28 -63 -30 q-24 1 -36 13 q-13 13 -13 31 l0 0 Z" /><glyph glyph-name="" unicode="&#x106;" d="M32 359 q2 -162 101 -265 q100 -103 274 -106 q91 2 154 29 q62 28 96 56 q20 16 22 36 q1 20 -13 41 l-28 39 q-16 22 -35 24 q-19 2 -42 -14 q-26 -19 -63 -34 q-38 -16 -83 -17 q-103 4 -153 68 q-49 64 -49 147 q-1 80 47 141 q49 60 155 63 q40 -1 74 -13 q34 -12 59 -27 q23 -14 42 -11 q19 3 33 26 l25 41 q14 22 11 41 q-2 20 -23 35 q-32 23 -89 45 q-57 21 -140 23 q-168 -3 -270 -106 q-102 -102 -105 -262 l0 0 ZM389 761 l29 0 q22 0 38 8 q16 8 29 25 l39 50 q22 28 15 47 q-8 19 -43 20 l-46 0 q-22 0 -38 -9 q-16 -10 -27 -30 l-28 -50 q-14 -25 -5 -43 q9 -17 37 -18 l0 0 Z" /><glyph glyph-name="" unicode="&#x107;" d="M22 258 q1 -110 75 -188 q73 -78 212 -82 q64 1 110 18 q46 17 73 36 q20 14 23 33 q3 19 -8 42 l-13 25 q-13 25 -31 29 q-19 4 -44 -10 q-19 -12 -43 -20 q-24 -9 -50 -9 q-65 2 -97 41 q-32 39 -32 87 q0 48 31 84 q31 37 92 39 q23 0 42 -6 q19 -5 34 -13 q24 -12 42 -10 q18 3 32 26 l17 26 q14 22 11 42 q-2 19 -23 33 q-25 17 -66 31 q-42 14 -100 15 q-139 -4 -213 -83 q-73 -79 -74 -186 l0 0 ZM281 565 l29 0 q22 0 38 8 q16 8 29 25 l39 50 q22 28 15 47 q-8 19 -43 20 l-46 0 q-22 0 -38 -9 q-16 -10 -27 -30 l-28 -50 q-14 -25 -5 -43 q9 -17 37 -18 l0 0 Z" /><glyph glyph-name="" unicode="&#x108;" d="M32 359 q2 -162 101 -265 q100 -103 274 -106 q91 2 154 29 q62 28 96 56 q20 16 22 36 q1 20 -13 41 l-28 39 q-16 22 -35 24 q-19 2 -42 -14 q-26 -19 -63 -34 q-38 -16 -83 -17 q-103 4 -153 68 q-49 64 -49 147 q-1 80 47 141 q49 60 155 63 q40 -1 74 -13 q34 -12 59 -27 q23 -14 42 -11 q19 3 33 26 l25 41 q14 22 11 41 q-2 20 -23 35 q-32 23 -89 45 q-57 21 -140 23 q-168 -3 -270 -106 q-102 -102 -105 -262 l0 0 ZM281 761 l34 0 q22 0 34 9 q12 10 22 29 l25 44 l2 0 l25 -44 q10 -19 22 -29 q12 -9 34 -9 l34 0 q29 1 35 19 q7 19 -12 48 l-31 47 q-13 19 -29 27 q-16 9 -38 9 l-82 0 q-22 0 -38 -9 q-16 -8 -29 -27 l-31 -47 q-19 -29 -12 -48 q6 -18 35 -19 l0 0 Z" /><glyph glyph-name="" unicode="&#x109;" d="M22 258 q1 -110 75 -188 q73 -78 212 -82 q64 1 110 18 q46 17 73 36 q20 14 23 33 q3 19 -8 42 l-13 25 q-13 25 -31 29 q-19 4 -44 -10 q-19 -12 -43 -20 q-24 -9 -50 -9 q-65 2 -97 41 q-32 39 -32 87 q0 48 31 84 q31 37 92 39 q23 0 42 -6 q19 -5 34 -13 q24 -12 42 -10 q18 3 32 26 l17 26 q14 22 11 42 q-2 19 -23 33 q-25 17 -66 31 q-42 14 -100 15 q-139 -4 -213 -83 q-73 -79 -74 -186 l0 0 ZM173 565 l34 0 q22 0 34 9 q12 10 22 29 l25 44 l2 0 l25 -44 q10 -19 22 -29 q12 -9 34 -9 l34 0 q29 1 35 19 q7 19 -12 48 l-31 47 q-13 19 -29 27 q-16 9 -38 9 l-82 0 q-22 0 -38 -9 q-16 -8 -29 -27 l-31 -47 q-19 -29 -12 -48 q6 -18 35 -19 l0 0 Z" /><glyph glyph-name="" unicode="&#x10a;" d="M32 359 q2 -162 101 -265 q100 -103 274 -106 q91 2 154 29 q62 28 96 56 q20 16 22 36 q1 20 -13 41 l-28 39 q-16 22 -35 24 q-19 2 -42 -14 q-26 -19 -63 -34 q-38 -16 -83 -17 q-103 4 -153 68 q-49 64 -49 147 q-1 80 47 141 q49 60 155 63 q40 -1 74 -13 q34 -12 59 -27 q23 -14 42 -11 q19 3 33 26 l25 41 q14 22 11 41 q-2 20 -23 35 q-32 23 -89 45 q-57 21 -140 23 q-168 -3 -270 -106 q-102 -102 -105 -262 l0 0 ZM381 779 l33 0 q27 0 41 14 q14 14 14 41 l0 22 q0 27 -14 41 q-14 14 -41 14 l-33 0 q-27 0 -41 -14 q-14 -14 -14 -41 l0 -22 q0 -27 14 -41 q14 -14 41 -14 l0 0 Z" /><glyph glyph-name="" unicode="&#x10b;" d="M22 258 q1 -110 75 -188 q73 -78 212 -82 q64 1 110 18 q46 17 73 36 q20 14 23 33 q3 19 -8 42 l-13 25 q-13 25 -31 29 q-19 4 -44 -10 q-19 -12 -43 -20 q-24 -9 -50 -9 q-65 2 -97 41 q-32 39 -32 87 q0 48 31 84 q31 37 92 39 q23 0 42 -6 q19 -5 34 -13 q24 -12 42 -10 q18 3 32 26 l17 26 q14 22 11 42 q-2 19 -23 33 q-25 17 -66 31 q-42 14 -100 15 q-139 -4 -213 -83 q-73 -79 -74 -186 l0 0 ZM273 583 l33 0 q27 0 41 14 q14 14 14 41 l0 22 q0 27 -14 41 q-14 14 -41 14 l-33 0 q-27 0 -41 -14 q-14 -14 -14 -41 l0 -22 q0 -27 14 -41 q14 -14 41 -14 l0 0 Z" /><glyph glyph-name="" unicode="&#x10c;" d="M32 359 q2 -162 101 -265 q100 -103 274 -106 q91 2 154 29 q62 28 96 56 q20 16 22 36 q1 20 -13 41 l-28 39 q-16 22 -35 24 q-19 2 -42 -14 q-26 -19 -63 -34 q-38 -16 -83 -17 q-103 4 -153 68 q-49 64 -49 147 q-1 80 47 141 q49 60 155 63 q40 -1 74 -13 q34 -12 59 -27 q23 -14 42 -11 q19 3 33 26 l25 41 q14 22 11 41 q-2 20 -23 35 q-32 23 -89 45 q-57 21 -140 23 q-168 -3 -270 -106 q-102 -102 -105 -262 l0 0 ZM356 761 l82 0 q22 0 38 9 q16 8 29 27 l31 47 q19 29 12 48 q-6 18 -35 19 l-34 0 q-22 0 -34 -9 q-12 -10 -22 -29 l-25 -44 l-2 0 l-25 44 q-10 19 -22 29 q-12 9 -34 9 l-34 0 q-29 -1 -35 -19 q-7 -19 12 -48 l31 -47 q13 -19 29 -27 q16 -9 38 -9 l0 0 Z" /><glyph glyph-name="" unicode="&#x10d;" d="M22 258 q1 -110 75 -188 q73 -78 212 -82 q64 1 110 18 q46 17 73 36 q20 14 23 33 q3 19 -8 42 l-13 25 q-13 25 -31 29 q-19 4 -44 -10 q-19 -12 -43 -20 q-24 -9 -50 -9 q-65 2 -97 41 q-32 39 -32 87 q0 48 31 84 q31 37 92 39 q23 0 42 -6 q19 -5 34 -13 q24 -12 42 -10 q18 3 32 26 l17 26 q14 22 11 42 q-2 19 -23 33 q-25 17 -66 31 q-42 14 -100 15 q-139 -4 -213 -83 q-73 -79 -74 -186 l0 0 ZM248 565 l82 0 q22 0 38 9 q16 8 29 27 l31 47 q19 29 12 48 q-6 18 -35 19 l-34 0 q-22 0 -34 -9 q-12 -10 -22 -29 l-25 -44 l-2 0 l-25 44 q-10 19 -22 29 q-12 9 -34 9 l-34 0 q-29 -1 -35 -19 q-7 -19 12 -48 l31 -47 q13 -19 29 -27 q16 -9 38 -9 l0 0 Z" /><glyph glyph-name="" unicode="&#x10e;" d="M69 55 q0 -27 14 -41 q14 -14 41 -14 l199 0 q171 1 269 95 q98 94 100 264 q-2 170 -100 262 q-98 93 -269 94 l-199 0 q-27 0 -41 -14 q-14 -14 -14 -41 l0 -605 ZM244 150 l0 415 l72 0 q90 0 142 -52 q52 -52 53 -154 q-1 -103 -52 -156 q-51 -53 -143 -53 l-72 0 ZM296 761 l82 0 q22 0 38 9 q16 8 29 27 l31 47 q19 29 12 48 q-6 18 -35 19 l-34 0 q-22 0 -34 -9 q-12 -10 -22 -29 l-25 -44 l-2 0 l-25 44 q-10 19 -22 29 q-12 9 -34 9 l-34 0 q-29 -1 -35 -19 q-7 -19 12 -48 l31 -47 q13 -19 29 -27 q16 -9 38 -9 l0 0 Z" /><glyph glyph-name="" unicode="&#x10f;" d="M24 258 q1 -122 64 -195 q62 -73 168 -75 q79 5 114 38 q36 32 35 37 l2 0 q0 0 0 -3 q-1 -2 -1 -4 l0 -6 q0 -25 14 -37 q14 -13 41 -13 l52 0 q27 0 41 14 q14 14 14 41 l0 605 q0 27 -14 41 q-14 14 -41 14 l-63 0 q-27 0 -41 -14 q-14 -14 -14 -41 l0 -161 q0 -10 1 -16 q0 -7 0 -7 l-2 0 q1 3 -28 26 q-30 22 -107 25 q-105 -2 -169 -73 q-64 -72 -66 -196 l0 0 ZM198 258 q1 60 30 91 q29 32 71 32 q51 -2 76 -38 q25 -37 25 -85 q-1 -66 -31 -97 q-30 -30 -70 -30 q-46 1 -73 35 q-27 34 -28 92 l0 0 ZM622 682 q0 -13 3 -25 q2 -13 2 -26 q-1 -21 -5 -36 q-5 -15 -6 -31 q0 -15 12 -22 q13 -8 36 -8 l15 0 q30 0 54 29 q23 29 24 83 q1 29 -13 49 q-13 19 -50 20 l-23 0 q-23 0 -36 -7 q-13 -7 -13 -26 l0 0 Z" /><glyph glyph-name="" unicode="&#x110;" d="M71 55 q0 -27 14 -41 q14 -14 41 -14 l199 0 q171 1 269 95 q98 94 100 264 q-2 170 -100 262 q-98 93 -269 94 l-199 0 q-27 0 -41 -14 q-14 -14 -14 -41 l0 -236 l-28 0 q-14 0 -22 -14 q-7 -14 -7 -41 l0 -30 q0 -27 14 -41 q14 -14 41 -14 l2 0 l0 -229 ZM246 150 l0 134 l52 0 q26 0 39 14 q13 14 13 41 l0 30 q0 27 -14 41 q-14 14 -41 14 l-49 0 l0 141 l72 0 q90 0 142 -52 q52 -52 53 -154 q-1 -103 -52 -156 q-51 -53 -143 -53 l-72 0 Z" /><glyph glyph-name="" unicode="&#x111;" d="M24 258 q1 -122 64 -195 q62 -73 168 -75 q79 5 114 38 q36 32 35 37 l2 0 q0 0 0 -3 q-1 -2 -1 -4 l0 -6 q0 -25 14 -37 q14 -13 41 -13 l52 0 q27 0 41 14 q14 14 14 41 l0 499 l33 0 q16 0 24 11 q9 11 9 34 l0 6 q0 22 -14 33 q-14 11 -41 11 l-11 0 l0 11 q0 27 -14 41 q-14 14 -41 14 l-63 0 q-27 0 -41 -14 q-14 -14 -14 -41 l0 -11 l-71 0 q-27 0 -41 -11 q-14 -11 -14 -33 l0 -6 q0 -23 14 -34 q14 -11 41 -11 l71 0 l0 -55 q0 -10 1 -16 q0 -7 0 -7 l-2 0 q1 3 -28 26 q-30 22 -107 25 q-105 -2 -169 -73 q-64 -72 -66 -196 l0 0 ZM198 258 q1 60 30 91 q29 32 71 32 q51 -2 76 -38 q25 -37 25 -85 q-1 -66 -31 -97 q-30 -30 -70 -30 q-46 1 -73 35 q-27 34 -28 92 l0 0 Z" /><glyph glyph-name="" unicode="&#x112;" d="M69 55 q0 -27 14 -41 q14 -14 41 -14 l352 0 q27 0 41 14 q14 14 14 41 l0 40 q0 27 -14 41 q-14 14 -41 14 l-232 0 l0 135 l163 0 q27 0 41 14 q14 14 14 41 l0 40 q0 27 -14 41 q-14 14 -41 14 l-163 0 l0 130 l218 0 q27 0 41 14 q14 14 14 41 l0 40 q0 27 -14 41 q-14 14 -41 14 l-338 0 q-27 0 -41 -14 q-14 -14 -14 -41 l0 -605 ZM219 782 l165 0 q27 0 41 13 q14 12 14 39 l0 8 q0 27 -14 40 q-14 12 -41 12 l-165 0 q-27 0 -41 -12 q-14 -13 -14 -40 l0 -8 q0 -27 14 -39 q14 -13 41 -13 l0 0 Z" /><glyph glyph-name="" unicode="&#x113;" d="M22 258 q0 -107 73 -186 q72 -80 210 -84 q59 1 104 15 q45 14 73 31 q22 13 27 32 q4 20 -8 43 l-14 26 q-13 24 -31 28 q-18 5 -43 -7 q-20 -10 -44 -17 q-24 -7 -50 -7 q-42 0 -76 22 q-33 23 -44 70 l271 0 q26 1 42 18 q16 18 16 39 q-1 106 -62 175 q-61 69 -176 71 q-126 -3 -196 -78 q-71 -75 -72 -191 l0 0 ZM203 323 q6 32 26 54 q20 22 57 23 q33 -1 52 -23 q19 -22 19 -54 l-154 0 ZM204 586 l165 0 q27 0 41 13 q14 12 14 39 l0 8 q0 27 -14 40 q-14 12 -41 12 l-165 0 q-27 0 -41 -12 q-14 -13 -14 -40 l0 -8 q0 -27 14 -39 q14 -13 41 -13 l0 0 Z" /><glyph glyph-name="" unicode="&#x114;" d="M69 55 q0 -27 14 -41 q14 -14 41 -14 l352 0 q27 0 41 14 q14 14 14 41 l0 40 q0 27 -14 41 q-14 14 -41 14 l-232 0 l0 135 l163 0 q27 0 41 14 q14 14 14 41 l0 40 q0 27 -14 41 q-14 14 -41 14 l-163 0 l0 130 l218 0 q27 0 41 14 q14 14 14 41 l0 40 q0 27 -14 41 q-14 14 -41 14 l-338 0 q-27 0 -41 -14 q-14 -14 -14 -41 l0 -605 ZM301 756 q64 0 116 33 q53 32 56 91 q0 14 -10 22 q-11 9 -36 9 l-26 0 q-23 -1 -33 -12 q-10 -12 -13 -24 q-7 -18 -21 -26 q-15 -7 -33 -7 q-18 0 -33 7 q-14 8 -21 26 q-3 12 -13 24 q-10 11 -33 12 l-26 0 q-25 0 -36 -9 q-10 -8 -10 -22 q3 -57 56 -90 q53 -33 116 -34 l0 0 Z" /><glyph glyph-name="" unicode="&#x115;" d="M22 258 q0 -107 73 -186 q72 -80 210 -84 q59 1 104 15 q45 14 73 31 q22 13 27 32 q4 20 -8 43 l-14 26 q-13 24 -31 28 q-18 5 -43 -7 q-20 -10 -44 -17 q-24 -7 -50 -7 q-42 0 -76 22 q-33 23 -44 70 l271 0 q26 1 42 18 q16 18 16 39 q-1 106 -62 175 q-61 69 -176 71 q-126 -3 -196 -78 q-71 -75 -72 -191 l0 0 ZM203 323 q6 32 26 54 q20 22 57 23 q33 -1 52 -23 q19 -22 19 -54 l-154 0 ZM286 560 q64 0 116 33 q53 32 56 91 q0 14 -10 22 q-11 9 -36 9 l-26 0 q-23 -1 -33 -12 q-10 -12 -13 -24 q-7 -18 -21 -26 q-15 -7 -33 -7 q-18 0 -33 7 q-14 8 -21 26 q-3 12 -13 24 q-10 11 -33 12 l-26 0 q-25 0 -36 -9 q-10 -8 -10 -22 q3 -57 56 -90 q53 -33 116 -34 l0 0 Z" /><glyph glyph-name="" unicode="&#x116;" d="M69 55 q0 -27 14 -41 q14 -14 41 -14 l352 0 q27 0 41 14 q14 14 14 41 l0 40 q0 27 -14 41 q-14 14 -41 14 l-232 0 l0 135 l163 0 q27 0 41 14 q14 14 14 41 l0 40 q0 27 -14 41 q-14 14 -41 14 l-163 0 l0 130 l218 0 q27 0 41 14 q14 14 14 41 l0 40 q0 27 -14 41 q-14 14 -41 14 l-338 0 q-27 0 -41 -14 q-14 -14 -14 -41 l0 -605 ZM285 779 l33 0 q27 0 41 14 q14 14 14 41 l0 22 q0 27 -14 41 q-14 14 -41 14 l-33 0 q-27 0 -41 -14 q-14 -14 -14 -41 l0 -22 q0 -27 14 -41 q14 -14 41 -14 l0 0 Z" /><glyph glyph-name="" unicode="&#x117;" d="M22 258 q0 -107 73 -186 q72 -80 210 -84 q59 1 104 15 q45 14 73 31 q22 13 27 32 q4 20 -8 43 l-14 26 q-13 24 -31 28 q-18 5 -43 -7 q-20 -10 -44 -17 q-24 -7 -50 -7 q-42 0 -76 22 q-33 23 -44 70 l271 0 q26 1 42 18 q16 18 16 39 q-1 106 -62 175 q-61 69 -176 71 q-126 -3 -196 -78 q-71 -75 -72 -191 l0 0 ZM203 323 q6 32 26 54 q20 22 57 23 q33 -1 52 -23 q19 -22 19 -54 l-154 0 ZM270 583 l33 0 q27 0 41 14 q14 14 14 41 l0 22 q0 27 -14 41 q-14 14 -41 14 l-33 0 q-27 0 -41 -14 q-14 -14 -14 -41 l0 -22 q0 -27 14 -41 q14 -14 41 -14 l0 0 Z" /><glyph glyph-name="" unicode="&#x118;" d="M69 55 q0 -27 14 -41 q14 -14 41 -14 l265 0 q-20 -21 -35 -48 q-15 -28 -16 -58 q3 -45 41 -69 q38 -24 78 -28 q19 -2 32 7 q14 9 17 28 l4 29 q2 19 -1 31 q-4 13 -16 19 q-9 4 -17 10 q-8 5 -8 15 q4 35 32 57 q27 23 31 62 l0 40 q0 27 -14 41 q-14 14 -41 14 l-232 0 l0 135 l163 0 q27 0 41 14 q14 14 14 41 l0 40 q0 27 -14 41 q-14 14 -41 14 l-163 0 l0 130 l218 0 q27 0 41 14 q14 14 14 41 l0 40 q0 27 -14 41 q-14 14 -41 14 l-338 0 q-27 0 -41 -14 q-14 -14 -14 -41 l0 -605 Z" /><glyph glyph-name="" unicode="&#x119;" d="M22 258 q0 -107 73 -186 q72 -80 210 -84 q10 0 16 1 q7 1 16 3 q-23 -20 -40 -45 q-16 -25 -17 -58 q3 -38 42 -64 q38 -25 78 -28 q19 -1 32 7 q14 9 17 28 l4 29 q2 19 -1 31 q-4 13 -16 19 q-9 4 -17 10 q-8 5 -8 15 q3 22 30 50 q27 28 45 46 q17 18 22 36 q4 18 -7 40 l-14 26 q-13 24 -31 29 q-18 4 -43 -7 q-20 -10 -44 -17 q-24 -7 -50 -7 q-42 0 -76 22 q-33 23 -44 70 l272 0 q27 1 42 17 q15 17 15 37 q-1 109 -62 178 q-61 69 -176 71 q-126 -3 -196 -78 q-71 -75 -72 -191 l0 0 ZM203 323 q6 30 26 51 q20 22 57 23 q31 -1 49 -22 q19 -22 19 -52 l-151 0 Z" /><glyph glyph-name="" unicode="&#x11a;" d="M69 55 q0 -27 14 -41 q14 -14 41 -14 l352 0 q27 0 41 14 q14 14 14 41 l0 40 q0 27 -14 41 q-14 14 -41 14 l-232 0 l0 135 l163 0 q27 0 41 14 q14 14 14 41 l0 40 q0 27 -14 41 q-14 14 -41 14 l-163 0 l0 130 l218 0 q27 0 41 14 q14 14 14 41 l0 40 q0 27 -14 41 q-14 14 -41 14 l-338 0 q-27 0 -41 -14 q-14 -14 -14 -41 l0 -605 ZM260 761 l82 0 q22 0 38 9 q16 8 29 27 l31 47 q19 29 12 48 q-6 18 -35 19 l-34 0 q-22 0 -34 -9 q-12 -10 -22 -29 l-25 -44 l-2 0 l-25 44 q-10 19 -22 29 q-12 9 -34 9 l-34 0 q-29 -1 -35 -19 q-7 -19 12 -48 l31 -47 q13 -19 29 -27 q16 -9 38 -9 l0 0 Z" /><glyph glyph-name="" unicode="&#x11b;" d="M22 258 q0 -107 73 -186 q72 -80 210 -84 q59 1 104 15 q45 14 73 31 q22 13 27 32 q4 20 -8 43 l-14 26 q-13 24 -31 28 q-18 5 -43 -7 q-20 -10 -44 -17 q-24 -7 -50 -7 q-42 0 -76 22 q-33 23 -44 70 l271 0 q26 1 42 18 q16 18 16 39 q-1 106 -62 175 q-61 69 -176 71 q-126 -3 -196 -78 q-71 -75 -72 -191 l0 0 ZM203 323 q6 32 26 54 q20 22 57 23 q33 -1 52 -23 q19 -22 19 -54 l-154 0 ZM245 565 l82 0 q22 0 38 9 q16 8 29 27 l31 47 q19 29 12 48 q-6 18 -35 19 l-34 0 q-22 0 -34 -9 q-12 -10 -22 -29 l-25 -44 l-2 0 l-25 44 q-10 19 -22 29 q-12 9 -34 9 l-34 0 q-29 -1 -35 -19 q-7 -19 12 -48 l31 -47 q13 -19 29 -27 q16 -9 38 -9 l0 0 Z" /><glyph glyph-name="" unicode="&#x11c;" d="M32 353 q5 -170 107 -267 q102 -96 245 -98 q95 4 143 34 q47 29 47 33 l2 0 q0 0 0 -3 q-1 -2 -1 -7 l0 -2 q0 -18 14 -30 q14 -13 41 -13 l33 0 q27 0 41 14 q14 14 14 41 l0 294 q0 27 -14 41 q-14 14 -41 14 l-146 0 q-27 0 -41 -14 q-14 -14 -14 -41 l0 -39 q0 -27 14 -41 q14 -14 41 -14 l46 0 l0 -49 q0 -4 -35 -29 q-36 -25 -112 -29 q-84 1 -142 58 q-59 57 -61 157 q-1 84 49 143 q50 58 157 61 q46 -1 77 -11 q32 -11 56 -24 q25 -13 43 -10 q19 3 33 25 l26 41 q14 23 11 41 q-3 19 -25 35 q-23 18 -84 39 q-61 22 -148 24 q-167 -3 -270 -105 q-103 -103 -106 -269 l0 0 ZM281 761 l34 0 q22 0 34 9 q12 10 22 29 l25 44 l2 0 l25 -44 q10 -19 22 -29 q12 -9 34 -9 l34 0 q29 1 35 19 q7 19 -12 48 l-31 47 q-13 19 -29 27 q-16 9 -38 9 l-82 0 q-22 0 -38 -9 q-16 -8 -29 -27 l-31 -47 q-19 -29 -12 -48 q6 -18 35 -19 l0 0 Z" /><glyph glyph-name="" unicode="&#x11d;" d="M104 -84 l-11 -30 q-10 -26 -3 -43 q8 -18 33 -28 q24 -10 66 -17 q41 -8 87 -8 q104 -2 191 58 q88 60 93 199 l0 413 q0 27 -14 41 q-14 14 -41 14 l-47 0 q-27 0 -41 -12 q-14 -13 -14 -31 l0 -2 q0 -5 1 -7 q0 -3 0 -3 l-2 0 q2 4 -29 34 q-31 29 -112 33 q-120 -4 -178 -77 q-58 -74 -58 -176 q0 -103 58 -179 q59 -76 177 -80 q45 0 75 16 q30 16 51 47 l2 0 q0 -1 0 -7 q-1 -7 -1 -12 l0 -26 q-1 -56 -36 -78 q-35 -22 -85 -21 q-30 0 -52 4 q-22 4 -40 10 q-27 9 -44 1 q-17 -8 -26 -33 l0 0 ZM298 159 q-51 2 -75 37 q-24 34 -24 84 q0 45 23 74 q23 28 69 29 q40 2 70 -21 q29 -23 30 -90 q-2 -66 -30 -90 q-28 -24 -63 -23 l0 0 ZM181 565 l34 0 q22 0 34 9 q12 10 22 29 l25 44 l2 0 l25 -44 q10 -19 22 -29 q12 -9 34 -9 l34 0 q29 1 35 19 q7 19 -12 48 l-31 47 q-13 19 -29 27 q-16 9 -38 9 l-82 0 q-22 0 -38 -9 q-16 -8 -29 -27 l-31 -47 q-19 -29 -12 -48 q6 -18 35 -19 l0 0 Z" /><glyph glyph-name="" unicode="&#x11e;" d="M32 353 q5 -170 107 -267 q102 -96 245 -98 q95 4 143 34 q47 29 47 33 l2 0 q0 0 0 -3 q-1 -2 -1 -7 l0 -2 q0 -18 14 -30 q14 -13 41 -13 l33 0 q27 0 41 14 q14 14 14 41 l0 294 q0 27 -14 41 q-14 14 -41 14 l-146 0 q-27 0 -41 -14 q-14 -14 -14 -41 l0 -39 q0 -27 14 -41 q14 -14 41 -14 l46 0 l0 -49 q0 -4 -35 -29 q-36 -25 -112 -29 q-84 1 -142 58 q-59 57 -61 157 q-1 84 49 143 q50 58 157 61 q46 -1 77 -11 q32 -11 56 -24 q25 -13 43 -10 q19 3 33 25 l26 41 q14 23 11 41 q-3 19 -25 35 q-23 18 -84 39 q-61 22 -148 24 q-167 -3 -270 -105 q-103 -103 -106 -269 l0 0 ZM397 756 q64 0 116 33 q53 32 56 91 q0 14 -10 22 q-11 9 -36 9 l-26 0 q-23 -1 -33 -12 q-10 -12 -13 -24 q-7 -18 -21 -26 q-15 -7 -33 -7 q-18 0 -33 7 q-14 8 -21 26 q-3 12 -13 24 q-10 11 -33 12 l-26 0 q-25 0 -36 -9 q-10 -8 -10 -22 q3 -57 56 -90 q53 -33 116 -34 l0 0 Z" /><glyph glyph-name="" unicode="&#x11f;" d="M104 -84 l-11 -30 q-10 -26 -3 -43 q8 -18 33 -28 q24 -10 66 -17 q41 -8 87 -8 q104 -2 191 58 q88 60 93 199 l0 413 q0 27 -14 41 q-14 14 -41 14 l-47 0 q-27 0 -41 -12 q-14 -13 -14 -31 l0 -2 q0 -5 1 -7 q0 -3 0 -3 l-2 0 q2 4 -29 34 q-31 29 -112 33 q-120 -4 -178 -77 q-58 -74 -58 -176 q0 -103 58 -179 q59 -76 177 -80 q45 0 75 16 q30 16 51 47 l2 0 q0 -1 0 -7 q-1 -7 -1 -12 l0 -26 q-1 -56 -36 -78 q-35 -22 -85 -21 q-30 0 -52 4 q-22 4 -40 10 q-27 9 -44 1 q-17 -8 -26 -33 l0 0 ZM298 159 q-51 2 -75 37 q-24 34 -24 84 q0 45 23 74 q23 28 69 29 q40 2 70 -21 q29 -23 30 -90 q-2 -66 -30 -90 q-28 -24 -63 -23 l0 0 ZM297 560 q64 0 116 33 q53 32 56 91 q0 14 -10 22 q-11 9 -36 9 l-26 0 q-23 -1 -33 -12 q-10 -12 -13 -24 q-7 -18 -21 -26 q-15 -7 -33 -7 q-18 0 -33 7 q-14 8 -21 26 q-3 12 -13 24 q-10 11 -33 12 l-26 0 q-25 0 -36 -9 q-10 -8 -10 -22 q3 -57 56 -90 q53 -33 116 -34 l0 0 Z" /><glyph glyph-name="" unicode="&#x120;" d="M32 353 q5 -170 107 -267 q102 -96 245 -98 q95 4 143 34 q47 29 47 33 l2 0 q0 0 0 -3 q-1 -2 -1 -7 l0 -2 q0 -18 14 -30 q14 -13 41 -13 l33 0 q27 0 41 14 q14 14 14 41 l0 294 q0 27 -14 41 q-14 14 -41 14 l-146 0 q-27 0 -41 -14 q-14 -14 -14 -41 l0 -39 q0 -27 14 -41 q14 -14 41 -14 l46 0 l0 -49 q0 -4 -35 -29 q-36 -25 -112 -29 q-84 1 -142 58 q-59 57 -61 157 q-1 84 49 143 q50 58 157 61 q46 -1 77 -11 q32 -11 56 -24 q25 -13 43 -10 q19 3 33 25 l26 41 q14 23 11 41 q-3 19 -25 35 q-23 18 -84 39 q-61 22 -148 24 q-167 -3 -270 -105 q-103 -103 -106 -269 l0 0 ZM381 779 l33 0 q27 0 41 14 q14 14 14 41 l0 22 q0 27 -14 41 q-14 14 -41 14 l-33 0 q-27 0 -41 -14 q-14 -14 -14 -41 l0 -22 q0 -27 14 -41 q14 -14 41 -14 l0 0 Z" /><glyph glyph-name="" unicode="&#x121;" d="M104 -84 l-11 -30 q-10 -26 -3 -43 q8 -18 33 -28 q24 -10 66 -17 q41 -8 87 -8 q104 -2 191 58 q88 60 93 199 l0 413 q0 27 -14 41 q-14 14 -41 14 l-47 0 q-27 0 -41 -12 q-14 -13 -14 -31 l0 -2 q0 -5 1 -7 q0 -3 0 -3 l-2 0 q2 4 -29 34 q-31 29 -112 33 q-120 -4 -178 -77 q-58 -74 -58 -176 q0 -103 58 -179 q59 -76 177 -80 q45 0 75 16 q30 16 51 47 l2 0 q0 -1 0 -7 q-1 -7 -1 -12 l0 -26 q-1 -56 -36 -78 q-35 -22 -85 -21 q-30 0 -52 4 q-22 4 -40 10 q-27 9 -44 1 q-17 -8 -26 -33 l0 0 ZM298 159 q-51 2 -75 37 q-24 34 -24 84 q0 45 23 74 q23 28 69 29 q40 2 70 -21 q29 -23 30 -90 q-2 -66 -30 -90 q-28 -24 -63 -23 l0 0 ZM281 583 l33 0 q27 0 41 14 q14 14 14 41 l0 22 q0 27 -14 41 q-14 14 -41 14 l-33 0 q-27 0 -41 -14 q-14 -14 -14 -41 l0 -22 q0 -27 14 -41 q14 -14 41 -14 l0 0 Z" /><glyph glyph-name="" unicode="&#x122;" d="M32 353 q5 -170 107 -267 q102 -96 245 -98 q95 4 143 34 q47 29 47 33 l2 0 q0 0 0 -3 q-1 -2 -1 -7 l0 -2 q0 -18 14 -30 q14 -13 41 -13 l33 0 q27 0 41 14 q14 14 14 41 l0 294 q0 27 -14 41 q-14 14 -41 14 l-146 0 q-27 0 -41 -14 q-14 -14 -14 -41 l0 -39 q0 -27 14 -41 q14 -14 41 -14 l46 0 l0 -49 q0 -4 -35 -29 q-36 -25 -112 -29 q-84 1 -142 58 q-59 57 -61 157 q-1 84 49 143 q50 58 157 61 q46 -1 77 -11 q32 -11 56 -24 q25 -13 43 -10 q19 3 33 25 l26 41 q14 23 11 41 q-3 19 -25 35 q-23 18 -84 39 q-61 22 -148 24 q-167 -3 -270 -105 q-103 -103 -106 -269 l0 0 ZM320 -82 q0 -13 3 -25 q2 -13 2 -26 q-1 -21 -5 -36 q-5 -15 -6 -31 q0 -15 12 -22 q13 -8 36 -8 l15 0 q30 0 54 29 q23 29 24 83 q1 29 -13 49 q-13 19 -50 20 l-23 0 q-23 0 -36 -7 q-13 -7 -13 -26 l0 0 Z" /><glyph glyph-name="" unicode="&#x123;" d="M104 -84 l-11 -30 q-10 -26 -3 -43 q8 -18 33 -28 q24 -10 66 -17 q41 -8 87 -8 q104 -2 191 58 q88 60 93 199 l0 413 q0 27 -14 41 q-14 14 -41 14 l-47 0 q-27 0 -41 -12 q-14 -13 -14 -31 l0 -2 q0 -5 1 -7 q0 -3 0 -3 l-2 0 q2 4 -29 34 q-31 29 -112 33 q-120 -4 -178 -77 q-58 -74 -58 -176 q0 -103 58 -179 q59 -76 177 -80 q45 0 75 16 q30 16 51 47 l2 0 q0 -1 0 -7 q-1 -7 -1 -12 l0 -26 q-1 -56 -36 -78 q-35 -22 -85 -21 q-30 0 -52 4 q-22 4 -40 10 q-27 9 -44 1 q-17 -8 -26 -33 l0 0 ZM298 159 q-51 2 -75 37 q-24 34 -24 84 q0 45 23 74 q23 28 69 29 q40 2 70 -21 q29 -23 30 -90 q-2 -66 -30 -90 q-28 -24 -63 -23 l0 0 ZM361 602 q0 13 -2 26 q-3 12 -3 25 q1 21 6 36 q4 15 5 31 q0 15 -12 23 q-13 7 -36 7 l-15 0 q-30 0 -54 -29 q-23 -29 -24 -83 q-1 -29 13 -49 q13 -19 50 -20 l23 0 q23 0 36 7 q13 7 13 26 l0 0 Z" /><glyph glyph-name="" unicode="&#x124;" d="M69 55 q0 -27 14 -41 q14 -14 41 -14 l65 0 q27 0 41 14 q14 14 14 41 l0 225 l260 0 l0 -225 q0 -27 14 -41 q14 -14 41 -14 l65 0 q27 0 41 14 q14 14 14 41 l0 605 q0 27 -14 41 q-14 14 -41 14 l-65 0 q-27 0 -41 -14 q-14 -14 -14 -41 l0 -231 l-260 0 l0 231 q0 27 -14 41 q-14 14 -41 14 l-65 0 q-27 0 -41 -14 q-14 -14 -14 -41 l0 -605 ZM258 761 l34 0 q22 0 34 9 q12 10 22 29 l25 44 l2 0 l25 -44 q10 -19 22 -29 q12 -9 34 -9 l34 0 q29 1 35 19 q7 19 -12 48 l-31 47 q-13 19 -29 27 q-16 9 -38 9 l-82 0 q-22 0 -38 -9 q-16 -8 -29 -27 l-31 -47 q-19 -29 -12 -48 q6 -18 35 -19 l0 0 Z" /><glyph glyph-name="" unicode="&#x125;" d="M52 55 q0 -27 14 -41 q14 -14 41 -14 l63 0 q27 0 41 14 q14 14 14 41 l0 177 q0 60 28 99 q28 38 84 39 q29 0 43 -16 q14 -16 14 -52 l0 -247 q0 -27 14 -41 q14 -14 41 -14 l63 0 q27 0 41 14 q14 14 14 41 l0 279 q-2 107 -53 151 q-52 44 -132 42 q-52 0 -93 -22 q-42 -21 -64 -60 l-2 0 q0 0 1 12 q1 12 1 32 l0 171 q0 27 -14 41 q-14 14 -41 14 l-63 0 q-27 0 -41 -14 q-14 -14 -14 -41 l0 -605 ZM23 761 l34 0 q22 0 34 9 q12 10 22 29 l25 44 l2 0 l25 -44 q10 -19 22 -29 q12 -9 34 -9 l34 0 q29 1 35 19 q7 19 -12 48 l-31 47 q-13 19 -29 27 q-16 9 -38 9 l-82 0 q-22 0 -38 -9 q-16 -8 -29 -27 l-31 -47 q-19 -29 -12 -48 q6 -18 35 -19 l0 0 Z" /><glyph glyph-name="" unicode="&#x126;" d="M73 55 q0 -27 14 -41 q14 -14 41 -14 l69 0 q27 0 41 14 q14 14 14 41 l0 225 l242 0 l0 -225 q0 -27 14 -41 q14 -14 41 -14 l69 0 q27 0 41 14 q14 14 14 41 l0 462 l10 0 q27 0 41 12 q14 13 14 39 l0 6 q0 25 -14 38 q-14 12 -41 12 l-10 0 l0 46 q0 22 -14 33 q-14 12 -41 12 l-69 0 q-27 0 -41 -14 q-14 -14 -14 -41 l0 -36 l-242 0 l0 46 q0 22 -14 33 q-14 12 -41 12 l-69 0 q-27 0 -41 -14 q-14 -14 -14 -41 l0 -36 l-11 0 q-27 0 -41 -12 q-14 -13 -14 -38 l0 -6 q0 -26 14 -39 q14 -12 41 -12 l11 0 l0 -462 ZM252 429 l0 88 l242 0 l0 -88 l-242 0 Z" /><glyph glyph-name="" unicode="&#x127;" d="M52 55 q0 -27 14 -41 q14 -14 41 -14 l63 0 q27 0 41 14 q14 14 14 41 l0 178 q0 57 28 96 q27 39 84 41 q29 0 43 -16 q14 -16 14 -52 l0 -247 q0 -27 14 -41 q14 -14 41 -14 l63 0 q27 0 41 14 q14 14 14 41 l0 279 q-2 107 -53 151 q-52 44 -132 42 q-52 0 -93 -22 q-42 -21 -64 -60 l-2 0 q0 0 1 12 q1 12 1 32 l0 65 l79 0 q27 0 41 11 q14 11 14 34 l0 6 q0 22 -14 33 q-14 11 -41 11 l-79 0 l0 33 q0 16 -14 24 q-14 9 -41 9 l-63 0 q-27 0 -41 -14 q-14 -14 -14 -41 l0 -11 l-3 0 q-27 0 -41 -11 q-14 -11 -14 -33 l0 -6 q0 -23 14 -34 q14 -11 41 -11 l3 0 l0 -499 Z" /><glyph glyph-name="" unicode="&#x128;" d="M69 55 q0 -27 14 -41 q14 -14 41 -14 l65 0 q27 0 41 14 q14 14 14 41 l0 605 q0 27 -14 41 q-14 14 -41 14 l-65 0 q-27 0 -41 -14 q-14 -14 -14 -41 l0 -605 ZM9 761 l12 0 q18 0 29 7 q12 6 14 18 q2 14 12 23 q9 9 24 9 q27 -4 56 -30 q29 -26 87 -30 q50 1 80 31 q30 30 31 79 q0 22 -12 33 q-12 10 -36 10 l-12 0 q-20 0 -32 -7 q-12 -8 -14 -20 q-2 -16 -10 -23 q-9 -7 -23 -7 q-27 4 -56 30 q-29 26 -86 30 q-50 -1 -81 -32 q-30 -32 -31 -75 q0 -23 13 -35 q12 -11 35 -11 l0 0 Z" /><glyph glyph-name="" unicode="&#x129;" d="M51 55 q0 -27 14 -41 q14 -14 41 -14 l63 0 q27 0 41 14 q14 14 14 41 l0 405 q0 27 -14 41 q-14 14 -41 14 l-63 0 q-27 0 -41 -14 q-14 -14 -14 -41 l0 -405 ZM-11 565 l12 0 q18 0 29 7 q12 6 14 18 q2 14 12 23 q9 9 24 9 q27 -4 56 -30 q29 -26 87 -30 q50 1 80 31 q30 30 31 79 q0 22 -12 33 q-12 10 -36 10 l-12 0 q-20 0 -32 -7 q-12 -8 -14 -20 q-2 -16 -10 -23 q-9 -7 -23 -7 q-27 4 -56 30 q-29 26 -86 30 q-50 -1 -81 -32 q-30 -32 -31 -75 q0 -23 13 -35 q12 -11 35 -11 l0 0 Z" /><glyph glyph-name="" unicode="&#x12a;" d="M69 55 q0 -27 14 -41 q14 -14 41 -14 l65 0 q27 0 41 14 q14 14 14 41 l0 605 q0 27 -14 41 q-14 14 -41 14 l-65 0 q-27 0 -41 -14 q-14 -14 -14 -41 l0 -605 ZM75 782 l165 0 q27 0 41 13 q14 12 14 39 l0 8 q0 27 -14 40 q-14 12 -41 12 l-165 0 q-27 0 -41 -12 q-14 -13 -14 -40 l0 -8 q0 -27 14 -39 q14 -13 41 -13 l0 0 Z" /><glyph glyph-name="" unicode="&#x12b;" d="M51 55 q0 -27 14 -41 q14 -14 41 -14 l63 0 q27 0 41 14 q14 14 14 41 l0 405 q0 27 -14 41 q-14 14 -41 14 l-63 0 q-27 0 -41 -14 q-14 -14 -14 -41 l0 -405 ZM55 586 l165 0 q27 0 41 13 q14 12 14 39 l0 8 q0 27 -14 40 q-14 12 -41 12 l-165 0 q-27 0 -41 -12 q-14 -13 -14 -40 l0 -8 q0 -27 14 -39 q14 -13 41 -13 l0 0 Z" /><glyph glyph-name="" unicode="&#x12c;" d="M69 55 q0 -27 14 -41 q14 -14 41 -14 l65 0 q27 0 41 14 q14 14 14 41 l0 605 q0 27 -14 41 q-14 14 -41 14 l-65 0 q-27 0 -41 -14 q-14 -14 -14 -41 l0 -605 ZM157 756 q64 0 116 33 q53 32 56 91 q0 14 -10 22 q-11 9 -36 9 l-26 0 q-23 -1 -33 -12 q-10 -12 -13 -24 q-7 -18 -21 -26 q-15 -7 -33 -7 q-18 0 -33 7 q-14 8 -21 26 q-3 12 -13 24 q-10 11 -33 12 l-26 0 q-25 0 -36 -9 q-10 -8 -10 -22 q3 -57 56 -90 q53 -33 116 -34 l0 0 Z" /><glyph glyph-name="" unicode="&#x12d;" d="M51 55 q0 -27 14 -41 q14 -14 41 -14 l63 0 q27 0 41 14 q14 14 14 41 l0 405 q0 27 -14 41 q-14 14 -41 14 l-63 0 q-27 0 -41 -14 q-14 -14 -14 -41 l0 -405 ZM137 560 q64 0 116 33 q53 32 56 91 q0 14 -10 22 q-11 9 -36 9 l-26 0 q-23 -1 -33 -12 q-10 -12 -13 -24 q-7 -18 -21 -26 q-15 -7 -33 -7 q-18 0 -33 7 q-14 8 -21 26 q-3 12 -13 24 q-10 11 -33 12 l-26 0 q-25 0 -36 -9 q-10 -8 -10 -22 q3 -57 56 -90 q53 -33 116 -34 l0 0 Z" /><glyph glyph-name="" unicode="&#x12e;" d="M69 55 q0 -21 9 -34 q8 -14 26 -19 q-20 -21 -36 -49 q-16 -28 -17 -59 q3 -45 41 -69 q38 -24 78 -28 q19 -2 32 7 q14 9 17 28 l4 29 q2 19 -1 31 q-4 13 -16 19 q-9 4 -17 10 q-8 5 -8 15 q4 36 32 60 q27 23 31 59 l0 605 q0 27 -14 41 q-14 14 -41 14 l-65 0 q-27 0 -41 -14 q-14 -14 -14 -41 l0 -605 Z" /><glyph glyph-name="" unicode="&#x12f;" d="M108 580 l59 0 q27 0 41 14 q14 14 14 41 l0 25 q0 27 -14 41 q-14 14 -41 14 l-59 0 q-27 0 -41 -14 q-14 -14 -14 -41 l0 -25 q0 -27 14 -41 q14 -14 41 -14 l0 0 ZM51 55 q0 -42 33 -53 q-20 -21 -36 -49 q-16 -28 -17 -59 q3 -45 41 -69 q38 -24 78 -28 q19 -2 32 7 q14 9 17 28 l4 29 q2 19 -1 31 q-4 13 -16 19 q-9 4 -17 10 q-8 5 -8 15 q4 36 32 60 q27 23 31 59 l0 405 q0 27 -14 41 q-14 14 -41 14 l-63 0 q-27 0 -41 -14 q-14 -14 -14 -41 l0 -405 Z" /><glyph glyph-name="" unicode="&#x130;" d="M69 55 q0 -27 14 -41 q14 -14 41 -14 l65 0 q27 0 41 14 q14 14 14 41 l0 605 q0 27 -14 41 q-14 14 -41 14 l-65 0 q-27 0 -41 -14 q-14 -14 -14 -41 l0 -605 ZM141 779 l33 0 q27 0 41 14 q14 14 14 41 l0 22 q0 27 -14 41 q-14 14 -41 14 l-33 0 q-27 0 -41 -14 q-14 -14 -14 -41 l0 -22 q0 -27 14 -41 q14 -14 41 -14 l0 0 Z" /><glyph glyph-name="" unicode="&#x131;" d="M51 55 q0 -27 14 -41 q14 -14 41 -14 l63 0 q27 0 41 14 q14 14 14 41 l0 405 q0 27 -14 41 q-14 14 -41 14 l-63 0 q-27 0 -41 -14 q-14 -14 -14 -41 l0 -405 Z" /><glyph glyph-name="" unicode="&#x132;" d="M312 52 q0 -27 15 -40 q14 -13 41 -13 q70 -2 151 56 q81 58 88 203 l0 402 q0 27 -14 41 q-14 14 -41 14 l-69 0 q-27 0 -41 -14 q-14 -14 -14 -41 l0 -390 q-1 -46 -21 -71 q-20 -26 -47 -36 q-23 -8 -36 -21 q-12 -13 -12 -38 l0 -52 ZM69 55 q0 -27 14 -41 q14 -14 41 -14 l65 0 q27 0 41 14 q14 14 14 41 l0 605 q0 27 -14 41 q-14 14 -41 14 l-65 0 q-27 0 -41 -14 q-14 -14 -14 -41 l0 -605 Z" /><glyph glyph-name="" unicode="&#x133;" d="M108 580 l59 0 q27 0 41 14 q14 14 14 41 l0 25 q0 27 -14 41 q-14 14 -41 14 l-59 0 q-27 0 -41 -14 q-14 -14 -14 -41 l0 -25 q0 -27 14 -41 q14 -14 41 -14 l0 0 ZM51 55 q0 -27 14 -41 q14 -14 41 -14 l63 0 q27 0 41 14 q14 14 14 41 l0 405 q0 27 -14 41 q-14 14 -41 14 l-63 0 q-27 0 -41 -14 q-14 -14 -14 -41 l0 -405 ZM409 580 l59 0 q27 0 41 14 q14 14 14 41 l0 25 q0 27 -14 41 q-14 14 -41 14 l-59 0 q-27 0 -41 -14 q-14 -14 -14 -41 l0 -25 q0 -27 14 -41 q14 -14 41 -14 l0 0 ZM352 4 q-1 -36 -20 -49 q-19 -13 -40 -15 q-21 -2 -38 -12 q-16 -11 -17 -43 l0 -38 q0 -27 14 -41 q14 -14 41 -14 l18 0 q48 -3 127 37 q79 40 88 162 l0 469 q0 27 -14 41 q-14 14 -41 14 l-63 0 q-27 0 -41 -14 q-14 -14 -14 -41 l0 -456 Z" /><glyph glyph-name="" unicode="&#x134;" d="M13 217 q4 -113 75 -171 q71 -58 165 -58 q93 0 164 57 q71 57 75 175 l0 440 q0 27 -14 41 q-14 14 -41 14 l-257 0 q-27 0 -41 -14 q-14 -14 -14 -41 l0 -40 q0 -27 14 -41 q14 -14 41 -14 l137 0 l0 -341 q0 -39 -18 -57 q-17 -19 -46 -19 q-31 1 -47 23 q-15 21 -18 50 q-3 27 -14 39 q-12 12 -39 12 l-67 0 q-27 0 -41 -14 q-14 -14 -14 -41 l0 0 ZM188 761 l34 0 q22 0 34 9 q12 10 22 29 l25 44 l2 0 l25 -44 q10 -19 22 -29 q12 -9 34 -9 l34 0 q29 1 35 19 q7 19 -12 48 l-31 47 q-13 19 -29 27 q-16 9 -38 9 l-82 0 q-22 0 -38 -9 q-16 -8 -29 -27 l-31 -47 q-19 -29 -12 -48 q6 -18 35 -19 l0 0 Z" /><glyph glyph-name="" unicode="&#x135;" d="M23 565 l34 0 q22 0 34 9 q12 10 22 29 l25 44 l2 0 l25 -44 q10 -19 22 -29 q12 -9 34 -9 l34 0 q29 1 35 19 q7 19 -12 48 l-31 47 q-13 19 -29 27 q-16 9 -38 9 l-82 0 q-22 0 -38 -9 q-16 -8 -29 -27 l-31 -47 q-19 -29 -12 -48 q6 -18 35 -19 l0 0 ZM52 4 q-1 -35 -19 -48 q-18 -14 -41 -16 q-27 -3 -41 -15 q-14 -13 -14 -40 l0 -38 q0 -27 14 -41 q14 -14 41 -14 l18 0 q48 -3 127 37 q79 40 88 162 l0 469 q0 27 -14 41 q-14 14 -41 14 l-63 0 q-27 0 -41 -14 q-14 -14 -14 -41 l0 -456 Z" /><glyph glyph-name="" unicode="&#x136;" d="M69 55 q0 -27 14 -41 q14 -14 41 -14 l65 0 q27 0 41 14 q14 14 14 41 l0 235 l72 0 l130 -251 q11 -20 27 -30 q16 -9 38 -9 l77 0 q33 1 44 19 q10 18 -5 47 l-168 305 l0 2 l156 276 q15 29 5 47 q-11 18 -44 19 l-68 0 q-22 0 -38 -9 q-16 -10 -27 -30 l-127 -237 l-72 0 l0 221 q0 27 -14 41 q-14 14 -41 14 l-65 0 q-27 0 -41 -14 q-14 -14 -14 -41 l0 -605 ZM273 -82 q0 -13 3 -25 q2 -13 2 -26 q-1 -21 -5 -36 q-5 -15 -6 -31 q0 -15 12 -22 q13 -8 36 -8 l15 0 q30 0 54 29 q23 29 24 83 q1 29 -13 49 q-13 19 -50 20 l-23 0 q-23 0 -36 -7 q-13 -7 -13 -26 l0 0 Z" /><glyph glyph-name="" unicode="&#x137;" d="M52 55 q0 -27 14 -41 q14 -14 41 -14 l63 0 q27 0 41 14 q14 14 14 41 l0 145 l54 0 l88 -161 q11 -20 27 -30 q16 -9 38 -9 l75 0 q34 1 44 19 q10 18 -7 47 l-131 213 l0 2 l108 168 q18 28 8 47 q-10 18 -44 19 l-66 0 q-22 0 -38 -9 q-16 -9 -27 -28 l-80 -133 l-49 0 l0 315 q0 27 -14 41 q-14 14 -41 14 l-63 0 q-27 0 -41 -14 q-14 -14 -14 -41 l0 -605 ZM235 -82 q0 -13 3 -25 q2 -13 2 -26 q-1 -21 -5 -36 q-5 -15 -6 -31 q0 -15 12 -22 q13 -8 36 -8 l15 0 q30 0 54 29 q23 29 24 83 q1 29 -13 49 q-13 19 -50 20 l-23 0 q-23 0 -36 -7 q-13 -7 -13 -26 l0 0 Z" /><glyph glyph-name="" unicode="&#x138;" d="M51 55 q0 -27 14 -41 q14 -14 41 -14 l63 0 q27 0 41 14 q14 14 14 41 l0 135 l54 0 l79 -151 q11 -20 27 -30 q16 -9 38 -9 l78 0 q34 1 44 19 q10 18 -7 47 l-125 203 l0 2 l112 178 q18 28 8 47 q-11 18 -44 19 l-66 0 q-23 0 -39 -9 q-16 -10 -27 -29 l-83 -142 l-49 0 l0 125 q0 27 -14 41 q-14 14 -41 14 l-63 0 q-27 0 -41 -14 q-14 -14 -14 -41 l0 -405 Z" /><glyph glyph-name="" unicode="&#x139;" d="M69 55 q0 -27 14 -41 q14 -14 41 -14 l357 0 q27 0 41 14 q14 14 14 41 l0 40 q0 27 -14 41 q-14 14 -41 14 l-237 0 l0 510 q0 27 -14 41 q-14 14 -41 14 l-65 0 q-27 0 -41 -14 q-14 -14 -14 -41 l0 -605 ZM149 761 l29 0 q22 0 38 8 q16 8 29 25 l39 50 q22 28 15 47 q-8 19 -43 20 l-46 0 q-22 0 -38 -9 q-16 -10 -27 -30 l-28 -50 q-14 -25 -5 -43 q9 -17 37 -18 l0 0 Z" /><glyph glyph-name="" unicode="&#x13a;" d="M49 190 q3 -126 60 -162 q56 -37 126 -33 q30 0 43 15 q13 15 13 41 l0 49 q0 22 -11 34 q-11 11 -29 13 q-12 1 -20 12 q-9 10 -9 39 l0 462 q0 27 -14 41 q-14 14 -41 14 l-63 0 q-27 0 -41 -14 q-14 -14 -14 -41 l0 -470 ZM128 761 l29 0 q22 0 38 8 q16 8 29 25 l39 50 q22 28 15 47 q-8 19 -43 20 l-46 0 q-22 0 -38 -9 q-16 -10 -27 -30 l-28 -50 q-14 -25 -5 -43 q9 -17 37 -18 l0 0 Z" /><glyph glyph-name="" unicode="&#x13b;" d="M69 55 q0 -27 14 -41 q14 -14 41 -14 l357 0 q27 0 41 14 q14 14 14 41 l0 40 q0 27 -14 41 q-14 14 -41 14 l-237 0 l0 510 q0 27 -14 41 q-14 14 -41 14 l-65 0 q-27 0 -41 -14 q-14 -14 -14 -41 l0 -605 ZM244 -82 q0 -13 3 -25 q2 -13 2 -26 q-1 -21 -5 -36 q-5 -15 -6 -31 q0 -15 12 -22 q13 -8 36 -8 l15 0 q30 0 54 29 q23 29 24 83 q1 29 -13 49 q-13 19 -50 20 l-23 0 q-23 0 -36 -7 q-13 -7 -13 -26 l0 0 Z" /><glyph glyph-name="" unicode="&#x13c;" d="M48 190 q3 -126 60 -162 q56 -37 126 -33 q30 0 43 15 q13 15 13 41 l0 49 q0 22 -11 34 q-11 11 -29 13 q-12 1 -20 12 q-9 10 -9 39 l0 462 q0 27 -14 41 q-14 14 -41 14 l-63 0 q-27 0 -41 -14 q-14 -14 -14 -41 l0 -470 ZM112 -82 q0 -13 3 -25 q2 -13 2 -26 q-1 -21 -5 -36 q-5 -15 -6 -31 q0 -15 12 -22 q13 -8 36 -8 l15 0 q30 0 54 29 q23 29 24 83 q1 29 -13 49 q-13 19 -50 20 l-23 0 q-23 0 -36 -7 q-13 -7 -13 -26 l0 0 Z" /><glyph glyph-name="" unicode="&#x13d;" d="M69 55 q0 -27 14 -41 q14 -14 41 -14 l357 0 q27 0 41 14 q14 14 14 41 l0 40 q0 27 -14 41 q-14 14 -41 14 l-237 0 l0 510 q0 27 -14 41 q-14 14 -41 14 l-65 0 q-27 0 -41 -14 q-14 -14 -14 -41 l0 -605 ZM322 682 q0 -13 3 -25 q2 -13 2 -26 q-1 -21 -5 -36 q-5 -15 -6 -31 q0 -15 12 -22 q13 -8 36 -8 l15 0 q30 0 54 29 q23 29 24 83 q1 29 -13 49 q-13 19 -50 20 l-23 0 q-23 0 -36 -7 q-13 -7 -13 -26 l0 0 Z" /><glyph glyph-name="" unicode="&#x13e;" d="M49 190 q3 -126 60 -162 q56 -37 126 -33 q30 0 43 15 q13 15 13 41 l0 49 q0 22 -11 34 q-11 11 -29 13 q-12 1 -20 12 q-9 10 -9 39 l0 462 q0 27 -14 41 q-14 14 -41 14 l-63 0 q-27 0 -41 -14 q-14 -14 -14 -41 l0 -470 ZM277 682 q0 -13 3 -25 q2 -13 2 -26 q-1 -21 -5 -36 q-5 -15 -6 -31 q0 -15 12 -22 q13 -8 36 -8 l15 0 q30 0 54 29 q23 29 24 83 q1 29 -13 49 q-13 19 -50 20 l-23 0 q-23 0 -36 -7 q-13 -7 -13 -26 l0 0 Z" /><glyph glyph-name="" unicode="&#x13f;" d="M69 55 q0 -27 14 -41 q14 -14 41 -14 l357 0 q27 0 41 14 q14 14 14 41 l0 40 q0 27 -14 41 q-14 14 -41 14 l-237 0 l0 510 q0 27 -14 41 q-14 14 -41 14 l-65 0 q-27 0 -41 -14 q-14 -14 -14 -41 l0 -605 ZM392 315 l48 0 q27 0 41 14 q14 14 14 41 l0 54 q0 27 -14 41 q-14 14 -41 14 l-48 0 q-27 0 -41 -14 q-14 -14 -14 -41 l0 -54 q0 -27 14 -41 q14 -14 41 -14 l0 0 Z" /><glyph glyph-name="" unicode="&#x140;" d="M49 190 q3 -126 60 -162 q56 -37 126 -33 q30 0 43 15 q13 15 13 41 l0 49 q0 22 -11 34 q-11 11 -29 13 q-12 1 -20 12 q-9 10 -9 39 l0 462 q0 27 -14 41 q-14 14 -41 14 l-63 0 q-27 0 -41 -14 q-14 -14 -14 -41 l0 -470 ZM339 315 l48 0 q27 0 41 14 q14 14 14 41 l0 54 q0 27 -14 41 q-14 14 -41 14 l-48 0 q-27 0 -41 -14 q-14 -14 -14 -41 l0 -54 q0 -27 14 -41 q14 -14 41 -14 l0 0 Z" /><glyph glyph-name="" unicode="&#x141;" d="M71 55 q0 -27 14 -41 q14 -14 41 -14 l357 0 q27 0 41 14 q14 14 14 41 l0 40 q0 27 -14 41 q-14 14 -41 14 l-237 0 l0 155 l63 36 q19 11 29 27 q9 16 9 39 l0 46 q-1 33 -19 44 q-18 10 -47 -6 l-35 -20 l0 189 q0 27 -14 41 q-14 14 -41 14 l-65 0 q-27 0 -41 -14 q-14 -14 -14 -41 l0 -289 l-26 -15 q-13 -7 -20 -22 q-6 -14 -6 -37 l0 -46 q1 -33 14 -45 q14 -12 32 -4 l6 3 l0 -150 Z" /><glyph glyph-name="" unicode="&#x142;" d="M60 190 q3 -126 60 -162 q56 -37 126 -33 q30 0 43 15 q13 15 13 41 l0 49 q0 22 -11 34 q-11 11 -29 13 q-12 1 -20 12 q-9 10 -9 39 l0 125 l35 20 q17 10 26 26 q8 15 8 38 l0 46 q-1 33 -19 44 q-18 10 -47 -6 l-3 -2 l0 171 q0 27 -14 41 q-14 14 -41 14 l-63 0 q-27 0 -41 -14 q-14 -14 -14 -41 l0 -270 l-25 -14 q-13 -7 -19 -22 q-6 -14 -6 -37 l0 -46 q0 -33 14 -46 q13 -13 34 -2 l2 1 l0 -34 Z" /><glyph glyph-name="" unicode="&#x143;" d="M69 55 q0 -27 14 -41 q14 -14 41 -14 l65 0 q27 0 41 14 q14 14 14 41 l0 278 q0 37 -4 78 q-3 41 -4 44 l2 0 q1 -3 20 -43 q18 -41 40 -79 l177 -296 q11 -19 27 -28 q16 -9 38 -9 l78 0 q27 0 41 14 q14 14 14 41 l0 605 q0 27 -14 41 q-14 14 -41 14 l-65 0 q-27 0 -41 -14 q-14 -14 -14 -41 l0 -279 q1 -37 4 -78 q4 -41 4 -44 l-2 0 q-1 3 -19 43 q-19 41 -41 79 l-176 297 q-11 19 -27 28 q-16 9 -39 9 l-78 0 q-27 0 -41 -14 q-14 -14 -14 -41 l0 -605 ZM363 761 l29 0 q22 0 38 8 q16 8 29 25 l39 50 q22 28 15 47 q-8 19 -43 20 l-46 0 q-22 0 -38 -9 q-16 -10 -27 -30 l-28 -50 q-14 -25 -5 -43 q9 -17 37 -18 l0 0 Z" /><glyph glyph-name="" unicode="&#x144;" d="M51 55 q0 -27 14 -41 q14 -14 41 -14 l63 0 q27 0 41 14 q14 14 14 41 l0 178 q0 56 27 96 q27 39 85 41 q29 0 43 -16 q14 -16 14 -52 l0 -247 q0 -27 14 -41 q14 -14 41 -14 l63 0 q27 0 41 14 q14 14 14 41 l0 279 q-2 107 -53 151 q-52 44 -132 42 q-68 -2 -107 -29 q-40 -28 -57 -60 l-2 0 q0 0 1 5 q0 4 0 8 l0 9 q0 55 -54 55 l-56 0 q-27 0 -41 -14 q-14 -14 -14 -41 l0 -405 ZM304 565 l29 0 q22 0 38 8 q16 8 29 25 l39 50 q22 28 15 47 q-8 19 -43 20 l-46 0 q-22 0 -38 -9 q-16 -10 -27 -30 l-28 -50 q-14 -25 -5 -43 q9 -17 37 -18 l0 0 Z" /><glyph glyph-name="" unicode="&#x145;" d="M69 55 q0 -27 14 -41 q14 -14 41 -14 l65 0 q27 0 41 14 q14 14 14 41 l0 278 q0 37 -4 78 q-3 41 -4 44 l2 0 q1 -3 20 -43 q18 -41 40 -79 l177 -296 q11 -19 27 -28 q16 -9 38 -9 l78 0 q27 0 41 14 q14 14 14 41 l0 605 q0 27 -14 41 q-14 14 -41 14 l-65 0 q-27 0 -41 -14 q-14 -14 -14 -41 l0 -279 q1 -37 4 -78 q4 -41 4 -44 l-2 0 q-1 3 -19 43 q-19 41 -41 79 l-176 297 q-11 19 -27 28 q-16 9 -39 9 l-78 0 q-27 0 -41 -14 q-14 -14 -14 -41 l0 -605 ZM308 -82 q0 -13 3 -25 q2 -13 2 -26 q-1 -21 -5 -36 q-5 -15 -6 -31 q0 -15 12 -22 q13 -8 36 -8 l15 0 q30 0 54 29 q23 29 24 83 q1 29 -13 49 q-13 19 -50 20 l-23 0 q-23 0 -36 -7 q-13 -7 -13 -26 l0 0 Z" /><glyph glyph-name="" unicode="&#x146;" d="M51 55 q0 -27 14 -41 q14 -14 41 -14 l63 0 q27 0 41 14 q14 14 14 41 l0 178 q0 56 27 96 q27 39 85 41 q29 0 43 -16 q14 -16 14 -52 l0 -247 q0 -27 14 -41 q14 -14 41 -14 l63 0 q27 0 41 14 q14 14 14 41 l0 279 q-2 107 -53 151 q-52 44 -132 42 q-68 -2 -107 -29 q-40 -28 -57 -60 l-2 0 q0 0 1 5 q0 4 0 8 l0 9 q0 55 -54 55 l-56 0 q-27 0 -41 -14 q-14 -14 -14 -41 l0 -405 ZM242 -82 q0 -13 3 -25 q2 -13 2 -26 q-1 -21 -5 -36 q-5 -15 -6 -31 q0 -15 12 -22 q13 -8 36 -8 l15 0 q30 0 54 29 q23 29 24 83 q1 29 -13 49 q-13 19 -50 20 l-23 0 q-23 0 -36 -7 q-13 -7 -13 -26 l0 0 Z" /><glyph glyph-name="" unicode="&#x147;" d="M69 55 q0 -27 14 -41 q14 -14 41 -14 l65 0 q27 0 41 14 q14 14 14 41 l0 278 q0 37 -4 78 q-3 41 -4 44 l2 0 q1 -3 20 -43 q18 -41 40 -79 l177 -296 q11 -19 27 -28 q16 -9 38 -9 l78 0 q27 0 41 14 q14 14 14 41 l0 605 q0 27 -14 41 q-14 14 -41 14 l-65 0 q-27 0 -41 -14 q-14 -14 -14 -41 l0 -279 q1 -37 4 -78 q4 -41 4 -44 l-2 0 q-1 3 -19 43 q-19 41 -41 79 l-176 297 q-11 19 -27 28 q-16 9 -39 9 l-78 0 q-27 0 -41 -14 q-14 -14 -14 -41 l0 -605 ZM330 761 l82 0 q22 0 38 9 q16 8 29 27 l31 47 q19 29 12 48 q-6 18 -35 19 l-34 0 q-22 0 -34 -9 q-12 -10 -22 -29 l-25 -44 l-2 0 l-25 44 q-10 19 -22 29 q-12 9 -34 9 l-34 0 q-29 -1 -35 -19 q-7 -19 12 -48 l31 -47 q13 -19 29 -27 q16 -9 38 -9 l0 0 Z" /><glyph glyph-name="" unicode="&#x148;" d="M51 55 q0 -27 14 -41 q14 -14 41 -14 l63 0 q27 0 41 14 q14 14 14 41 l0 178 q0 56 27 96 q27 39 85 41 q29 0 43 -16 q14 -16 14 -52 l0 -247 q0 -27 14 -41 q14 -14 41 -14 l63 0 q27 0 41 14 q14 14 14 41 l0 279 q-2 107 -53 151 q-52 44 -132 42 q-68 -2 -107 -29 q-40 -28 -57 -60 l-2 0 q0 0 1 5 q0 4 0 8 l0 9 q0 55 -54 55 l-56 0 q-27 0 -41 -14 q-14 -14 -14 -41 l0 -405 ZM271 565 l82 0 q22 0 38 9 q16 8 29 27 l31 47 q19 29 12 48 q-6 18 -35 19 l-34 0 q-22 0 -34 -9 q-12 -10 -22 -29 l-25 -44 l-2 0 l-25 44 q-10 19 -22 29 q-12 9 -34 9 l-34 0 q-29 -1 -35 -19 q-7 -19 12 -48 l31 -47 q13 -19 29 -27 q16 -9 38 -9 l0 0 Z" /><glyph glyph-name="" unicode="&#x149;" d="M51 55 q0 -27 14 -41 q14 -14 41 -14 l63 0 q27 0 41 14 q14 14 14 41 l0 178 q0 56 27 96 q27 39 85 41 q29 0 43 -16 q14 -16 14 -52 l0 -247 q0 -27 14 -41 q14 -14 41 -14 l63 0 q27 0 41 14 q14 14 14 41 l0 279 q-2 107 -53 151 q-52 44 -132 42 q-68 -2 -107 -29 q-40 -28 -57 -60 l-2 0 q0 0 1 5 q0 4 0 8 l0 9 q0 55 -54 55 l-56 0 q-27 0 -41 -14 q-14 -14 -14 -41 l0 -405 ZM-35 682 q0 -13 3 -25 q2 -13 2 -26 q-1 -21 -5 -36 q-5 -15 -6 -31 q0 -15 12 -22 q13 -8 36 -8 l15 0 q30 0 54 29 q23 29 24 83 q1 29 -13 49 q-13 19 -50 20 l-23 0 q-23 0 -36 -7 q-13 -7 -13 -26 l0 0 Z" /><glyph glyph-name="" unicode="&#x14a;" d="M69 55 q0 -27 14 -41 q14 -14 41 -14 l65 0 q27 0 41 14 q14 14 14 41 l0 278 q0 37 -4 78 q-3 41 -4 44 l2 0 q1 -3 19 -43 q18 -41 41 -79 l206 -334 q-1 -30 -21 -44 q-20 -13 -43 -15 q-27 -3 -41 -15 q-14 -13 -14 -40 l0 -38 q0 -27 15 -41 q14 -14 45 -14 q60 -3 140 37 q80 40 88 162 l0 669 q0 27 -14 41 q-14 14 -41 14 l-65 0 q-27 0 -41 -14 q-14 -14 -14 -41 l0 -279 q1 -37 4 -78 q4 -41 4 -44 l-2 0 q-1 3 -19 43 q-19 41 -41 79 l-176 297 q-11 19 -27 28 q-16 9 -39 9 l-78 0 q-27 0 -41 -14 q-14 -14 -14 -41 l0 -605 Z" /><glyph glyph-name="" unicode="&#x14b;" d="M51 55 q0 -27 14 -41 q14 -14 41 -14 l63 0 q27 0 41 14 q14 14 14 41 l0 178 q0 56 27 96 q27 39 85 41 q29 0 43 -16 q14 -16 14 -52 l0 -298 q-1 -35 -19 -48 q-18 -14 -41 -16 q-27 -3 -41 -15 q-14 -13 -14 -40 l0 -38 q0 -27 14 -41 q14 -14 41 -14 l18 0 q48 -3 127 37 q79 40 88 162 l0 343 q-2 107 -53 151 q-52 44 -132 42 q-68 -2 -107 -29 q-40 -28 -57 -60 l-2 0 q0 0 1 5 q0 4 0 8 l0 9 q0 55 -54 55 l-56 0 q-27 0 -41 -14 q-14 -14 -14 -41 l0 -405 Z" /><glyph glyph-name="" unicode="&#x14c;" d="M32 362 q3 -161 104 -266 q101 -104 270 -108 q169 4 270 108 q101 105 104 266 q-3 157 -104 259 q-101 102 -270 106 q-169 -4 -270 -106 q-101 -102 -104 -259 l0 0 ZM213 362 q1 90 54 146 q53 57 139 59 q86 -2 139 -59 q53 -56 54 -146 q-1 -93 -54 -153 q-53 -59 -139 -61 q-86 2 -139 61 q-53 60 -54 153 l0 0 ZM324 782 l165 0 q27 0 41 13 q14 12 14 39 l0 8 q0 27 -14 40 q-14 12 -41 12 l-165 0 q-27 0 -41 -12 q-14 -13 -14 -40 l0 -8 q0 -27 14 -39 q14 -13 41 -13 l0 0 Z" /><glyph glyph-name="" unicode="&#x14d;" d="M22 256 q3 -122 85 -194 q82 -72 207 -74 q125 2 207 74 q82 72 85 194 q-3 123 -85 196 q-83 73 -208 75 q-124 -2 -206 -75 q-82 -73 -85 -196 l0 0 ZM197 256 q1 59 35 93 q33 33 82 34 q49 -1 82 -34 q34 -34 35 -93 q-1 -58 -35 -91 q-33 -32 -82 -33 q-49 1 -82 33 q-34 33 -35 91 l0 0 ZM232 586 l165 0 q27 0 41 13 q14 12 14 39 l0 8 q0 27 -14 40 q-14 12 -41 12 l-165 0 q-27 0 -41 -12 q-14 -13 -14 -40 l0 -8 q0 -27 14 -39 q14 -13 41 -13 l0 0 Z" /><glyph glyph-name="" unicode="&#x14e;" d="M32 362 q3 -161 104 -266 q101 -104 270 -108 q169 4 270 108 q101 105 104 266 q-3 157 -104 259 q-101 102 -270 106 q-169 -4 -270 -106 q-101 -102 -104 -259 l0 0 ZM213 362 q1 90 54 146 q53 57 139 59 q86 -2 139 -59 q53 -56 54 -146 q-1 -93 -54 -153 q-53 -59 -139 -61 q-86 2 -139 61 q-53 60 -54 153 l0 0 ZM406 756 q64 0 116 33 q53 32 56 91 q0 14 -10 22 q-11 9 -36 9 l-26 0 q-23 -1 -33 -12 q-10 -12 -13 -24 q-7 -18 -21 -26 q-15 -7 -33 -7 q-18 0 -33 7 q-14 8 -21 26 q-3 12 -13 24 q-10 11 -33 12 l-26 0 q-25 0 -36 -9 q-10 -8 -10 -22 q3 -57 56 -90 q53 -33 116 -34 l0 0 Z" /><glyph glyph-name="" unicode="&#x14f;" d="M22 256 q3 -122 85 -194 q82 -72 207 -74 q125 2 207 74 q82 72 85 194 q-3 123 -85 196 q-83 73 -208 75 q-124 -2 -206 -75 q-82 -73 -85 -196 l0 0 ZM197 256 q1 59 35 93 q33 33 82 34 q49 -1 82 -34 q34 -34 35 -93 q-1 -58 -35 -91 q-33 -32 -82 -33 q-49 1 -82 33 q-34 33 -35 91 l0 0 ZM314 560 q64 0 116 33 q53 32 56 91 q0 14 -10 22 q-11 9 -36 9 l-26 0 q-23 -1 -33 -12 q-10 -12 -13 -24 q-7 -18 -21 -26 q-15 -7 -33 -7 q-18 0 -33 7 q-14 8 -21 26 q-3 12 -13 24 q-10 11 -33 12 l-26 0 q-25 0 -36 -9 q-10 -8 -10 -22 q3 -57 56 -90 q53 -33 116 -34 l0 0 Z" /><glyph glyph-name="" unicode="&#x150;" d="M32 362 q3 -161 104 -266 q101 -104 270 -108 q169 4 270 108 q101 105 104 266 q-3 157 -104 259 q-101 102 -270 106 q-169 -4 -270 -106 q-101 -102 -104 -259 l0 0 ZM213 362 q1 90 54 146 q53 57 139 59 q86 -2 139 -59 q53 -56 54 -146 q-1 -93 -54 -153 q-53 -59 -139 -61 q-86 2 -139 61 q-53 60 -54 153 l0 0 ZM500 761 l17 0 q22 0 38 8 q16 8 29 25 l39 50 q22 28 15 47 q-8 19 -43 20 l-38 0 q-22 0 -38 -9 q-16 -10 -27 -30 l-25 -45 q-15 -30 -7 -48 q8 -18 40 -18 l0 0 ZM293 761 l23 0 q22 0 38 9 q16 10 27 30 l24 46 q15 29 6 47 q-9 18 -41 18 l-25 0 q-23 0 -39 -9 q-16 -10 -26 -31 l-23 -45 q-14 -29 -5 -47 q9 -17 41 -18 l0 0 Z" /><glyph glyph-name="" unicode="&#x151;" d="M22 256 q3 -122 85 -194 q82 -72 207 -74 q125 2 207 74 q82 72 85 194 q-3 123 -85 196 q-83 73 -208 75 q-124 -2 -206 -75 q-82 -73 -85 -196 l0 0 ZM197 256 q1 59 35 93 q33 33 82 34 q49 -1 82 -34 q34 -34 35 -93 q-1 -58 -35 -91 q-33 -32 -82 -33 q-49 1 -82 33 q-34 33 -35 91 l0 0 ZM408 565 l17 0 q22 0 38 8 q16 8 29 25 l39 50 q22 28 15 47 q-8 19 -43 20 l-38 0 q-22 0 -38 -9 q-16 -10 -27 -30 l-25 -45 q-15 -30 -7 -48 q8 -18 40 -18 l0 0 ZM201 565 l23 0 q22 0 38 9 q16 10 27 30 l24 46 q15 29 6 47 q-9 18 -41 18 l-25 0 q-23 0 -39 -9 q-16 -10 -26 -31 l-23 -45 q-14 -29 -5 -47 q9 -17 41 -18 l0 0 Z" /><glyph glyph-name="" unicode="&#x152;" d="M28 359 q4 -157 113 -260 q109 -103 271 -107 q49 1 75 4 q26 4 57 4 l348 0 q27 0 41 14 q14 14 14 41 l0 40 q0 27 -14 41 q-14 14 -41 14 l-233 0 l0 135 l163 0 q27 0 41 14 q14 14 14 41 l0 40 q0 27 -14 41 q-14 14 -41 14 l-163 0 l0 130 l218 0 q27 0 41 14 q14 14 14 41 l0 40 q0 27 -14 41 q-14 14 -41 14 l-333 0 q-31 1 -57 4 q-26 4 -75 4 q-162 -4 -271 -105 q-109 -102 -113 -259 l0 0 ZM209 359 q2 92 59 152 q57 61 144 63 q33 0 53 -3 q19 -4 19 -4 l0 -419 q0 0 -19 -3 q-20 -4 -53 -4 q-87 2 -144 64 q-57 62 -59 154 l0 0 Z" /><glyph glyph-name="" unicode="&#x153;" d="M22 256 q3 -122 83 -194 q81 -72 203 -74 q74 1 121 25 q47 23 81 60 l2 0 q30 -35 76 -60 q46 -24 125 -25 q59 1 104 15 q45 14 73 31 q22 13 27 32 q4 20 -8 43 l-14 26 q-13 24 -31 28 q-18 5 -43 -7 q-20 -10 -44 -17 q-24 -7 -50 -7 q-42 0 -75 24 q-33 23 -44 68 l270 0 q26 1 42 18 q16 18 16 39 q-1 106 -62 175 q-61 69 -176 71 q-74 -1 -117 -23 q-44 -22 -73 -57 l-2 0 q-34 35 -80 57 q-47 22 -119 23 q-121 -2 -202 -75 q-80 -73 -83 -196 l0 0 ZM611 323 q6 30 26 51 q20 22 59 23 q30 -1 48 -23 q17 -23 18 -51 l-151 0 ZM196 256 q1 59 35 93 q33 33 82 34 q49 -1 82 -34 q34 -34 35 -93 q-1 -58 -35 -91 q-33 -32 -82 -33 q-49 1 -82 33 q-34 33 -35 91 l0 0 Z" /><glyph glyph-name="" unicode="&#x154;" d="M69 55 q0 -27 14 -41 q14 -14 41 -14 l65 0 q27 0 41 14 q14 14 14 41 l0 186 l82 0 l106 -202 q11 -20 27 -30 q16 -9 38 -9 l76 0 q33 1 43 19 q11 18 -5 47 l-102 184 q-13 22 -20 33 q-7 10 -7 10 l0 2 q53 29 80 83 q27 53 27 112 q-1 78 -36 131 q-35 53 -96 77 q-22 9 -54 13 q-31 4 -85 4 l-194 0 q-27 0 -41 -14 q-14 -14 -14 -41 l0 -605 ZM244 391 l0 174 l59 0 q22 0 38 -2 q16 -3 28 -8 q24 -10 33 -29 q9 -20 9 -47 q0 -43 -24 -65 q-25 -23 -67 -23 l-76 0 ZM303 761 l29 0 q22 0 38 8 q16 8 29 25 l39 50 q22 28 15 47 q-8 19 -43 20 l-46 0 q-22 0 -38 -9 q-16 -10 -27 -30 l-28 -50 q-14 -25 -5 -43 q9 -17 37 -18 l0 0 Z" /><glyph glyph-name="" unicode="&#x155;" d="M51 55 q0 -27 14 -41 q14 -14 41 -14 l63 0 q27 0 41 14 q14 14 14 41 l0 145 q0 65 30 109 q31 43 92 45 q27 0 41 14 q14 14 14 41 l0 56 q0 27 -10 41 q-11 14 -37 14 q-50 -3 -86 -42 q-37 -39 -51 -82 l-2 0 q0 0 1 10 q1 9 1 22 l0 32 q0 27 -14 41 q-14 14 -41 14 l-56 0 q-27 0 -41 -14 q-14 -14 -14 -41 l0 -405 ZM235 564 l29 0 q22 0 38 8 q16 8 29 25 l39 50 q22 28 15 47 q-8 19 -43 20 l-46 0 q-22 0 -38 -9 q-16 -10 -27 -30 l-28 -50 q-14 -25 -5 -43 q9 -17 37 -18 l0 0 Z" /><glyph glyph-name="" unicode="&#x156;" d="M69 55 q0 -27 14 -41 q14 -14 41 -14 l65 0 q27 0 41 14 q14 14 14 41 l0 186 l82 0 l106 -202 q11 -20 27 -30 q16 -9 38 -9 l76 0 q33 1 43 19 q11 18 -5 47 l-102 184 q-13 22 -20 33 q-7 10 -7 10 l0 2 q53 29 80 83 q27 53 27 112 q-1 78 -36 131 q-35 53 -96 77 q-22 9 -54 13 q-31 4 -85 4 l-194 0 q-27 0 -41 -14 q-14 -14 -14 -41 l0 -605 ZM244 391 l0 174 l59 0 q22 0 38 -2 q16 -3 28 -8 q24 -10 33 -29 q9 -20 9 -47 q0 -43 -24 -65 q-25 -23 -67 -23 l-76 0 ZM269 -82 q0 -13 3 -25 q2 -13 2 -26 q-1 -21 -5 -36 q-5 -15 -6 -31 q0 -15 12 -22 q13 -8 36 -8 l15 0 q30 0 54 29 q23 29 24 83 q1 29 -13 49 q-13 19 -50 20 l-23 0 q-23 0 -36 -7 q-13 -7 -13 -26 l0 0 Z" /><glyph glyph-name="" unicode="&#x157;" d="M51 55 q0 -27 14 -41 q14 -14 41 -14 l63 0 q27 0 41 14 q14 14 14 41 l0 145 q0 65 30 109 q31 43 92 45 q27 0 41 14 q14 14 14 41 l0 56 q0 27 -10 41 q-11 14 -37 14 q-50 -3 -86 -42 q-37 -39 -51 -82 l-2 0 q0 0 1 10 q1 9 1 22 l0 32 q0 27 -14 41 q-14 14 -41 14 l-56 0 q-27 0 -41 -14 q-14 -14 -14 -41 l0 -405 ZM75 -82 q0 -13 3 -25 q2 -13 2 -26 q-1 -21 -5 -36 q-5 -15 -6 -31 q0 -15 12 -22 q13 -8 36 -8 l15 0 q30 0 54 29 q23 29 24 83 q1 29 -13 49 q-13 19 -50 20 l-23 0 q-23 0 -36 -7 q-13 -7 -13 -26 l0 0 Z" /><glyph glyph-name="" unicode="&#x158;" d="M69 55 q0 -27 14 -41 q14 -14 41 -14 l65 0 q27 0 41 14 q14 14 14 41 l0 186 l82 0 l106 -202 q11 -20 27 -30 q16 -9 38 -9 l76 0 q33 1 43 19 q11 18 -5 47 l-102 184 q-13 22 -20 33 q-7 10 -7 10 l0 2 q53 29 80 83 q27 53 27 112 q-1 78 -36 131 q-35 53 -96 77 q-22 9 -54 13 q-31 4 -85 4 l-194 0 q-27 0 -41 -14 q-14 -14 -14 -41 l0 -605 ZM244 391 l0 174 l59 0 q22 0 38 -2 q16 -3 28 -8 q24 -10 33 -29 q9 -20 9 -47 q0 -43 -24 -65 q-25 -23 -67 -23 l-76 0 ZM270 761 l82 0 q22 0 38 9 q16 8 29 27 l31 47 q19 29 12 48 q-6 18 -35 19 l-34 0 q-22 0 -34 -9 q-12 -10 -22 -29 l-25 -44 l-2 0 l-25 44 q-10 19 -22 29 q-12 9 -34 9 l-34 0 q-29 -1 -35 -19 q-7 -19 12 -48 l31 -47 q13 -19 29 -27 q16 -9 38 -9 l0 0 Z" /><glyph glyph-name="" unicode="&#x159;" d="M51 55 q0 -27 14 -41 q14 -14 41 -14 l63 0 q27 0 41 14 q14 14 14 41 l0 145 q0 65 30 109 q31 43 92 45 q27 0 41 14 q14 14 14 41 l0 56 q0 27 -10 41 q-11 14 -37 14 q-50 -3 -86 -42 q-37 -39 -51 -82 l-2 0 q0 0 1 10 q1 9 1 22 l0 32 q0 27 -14 41 q-14 14 -41 14 l-56 0 q-27 0 -41 -14 q-14 -14 -14 -41 l0 -405 ZM202 564 l82 0 q22 0 38 9 q16 8 29 27 l31 47 q19 29 12 48 q-6 18 -35 19 l-34 0 q-22 0 -34 -9 q-12 -10 -22 -29 l-25 -44 l-2 0 l-25 44 q-10 19 -22 29 q-12 9 -34 9 l-34 0 q-29 -1 -35 -19 q-7 -19 12 -48 l31 -47 q13 -19 29 -27 q16 -9 38 -9 l0 0 Z" /><glyph glyph-name="" unicode="&#x15a;" d="M56 59 q30 -24 90 -47 q61 -22 137 -24 q121 3 186 67 q64 63 65 156 q-20 158 -158 198 q-138 41 -158 107 q0 22 18 36 q19 14 60 14 q35 -1 62 -10 q27 -10 51 -23 q21 -12 41 -10 q19 1 34 29 l24 47 q12 22 8 41 q-3 18 -25 34 q-27 19 -78 36 q-52 16 -115 17 q-111 -1 -182 -60 q-71 -59 -73 -159 q20 -157 158 -201 q138 -43 158 -108 q0 -21 -18 -35 q-19 -14 -58 -15 q-47 2 -80 18 q-33 15 -50 26 q-25 14 -43 11 q-18 -2 -33 -24 l-31 -45 q-18 -27 -13 -45 q6 -19 23 -31 l0 0 ZM275 761 l29 0 q22 0 38 8 q16 8 29 25 l39 50 q22 28 15 47 q-8 19 -43 20 l-46 0 q-22 0 -38 -9 q-16 -10 -27 -30 l-28 -50 q-14 -25 -5 -43 q9 -17 37 -18 l0 0 Z" /><glyph glyph-name="" unicode="&#x15b;" d="M51 35 q27 -17 70 -31 q43 -15 101 -16 q100 2 156 49 q55 46 56 120 q-15 125 -120 149 q-106 24 -121 59 q-1 11 9 19 q10 8 37 8 q26 0 48 -7 q22 -6 40 -13 q25 -10 44 -5 q18 5 29 29 l12 24 q12 24 7 43 q-4 19 -27 31 q-24 12 -61 22 q-36 10 -85 11 q-91 0 -152 -42 q-60 -41 -62 -121 q15 -126 121 -151 q105 -25 120 -61 q0 -12 -10 -20 q-11 -9 -37 -9 q-31 1 -55 9 q-24 9 -43 18 q-25 12 -43 9 q-18 -3 -33 -25 l-15 -23 q-14 -23 -11 -43 q3 -20 25 -33 l0 0 ZM214 565 l29 0 q22 0 38 8 q16 8 29 25 l39 50 q22 28 15 47 q-8 19 -43 20 l-46 0 q-22 0 -38 -9 q-16 -10 -27 -30 l-28 -50 q-14 -25 -5 -43 q9 -17 37 -18 l0 0 Z" /><glyph glyph-name="" unicode="&#x15c;" d="M56 59 q30 -24 90 -47 q61 -22 137 -24 q121 3 186 67 q64 63 65 156 q-20 158 -158 198 q-138 41 -158 107 q0 22 18 36 q19 14 60 14 q35 -1 62 -10 q27 -10 51 -23 q21 -12 41 -10 q19 1 34 29 l24 47 q12 22 8 41 q-3 18 -25 34 q-27 19 -78 36 q-52 16 -115 17 q-111 -1 -182 -60 q-71 -59 -73 -159 q20 -157 158 -201 q138 -43 158 -108 q0 -21 -18 -35 q-19 -14 -58 -15 q-47 2 -80 18 q-33 15 -50 26 q-25 14 -43 11 q-18 -2 -33 -24 l-31 -45 q-18 -27 -13 -45 q6 -19 23 -31 l0 0 ZM167 761 l34 0 q22 0 34 9 q12 10 22 29 l25 44 l2 0 l25 -44 q10 -19 22 -29 q12 -9 34 -9 l34 0 q29 1 35 19 q7 19 -12 48 l-31 47 q-13 19 -29 27 q-16 9 -38 9 l-82 0 q-22 0 -38 -9 q-16 -8 -29 -27 l-31 -47 q-19 -29 -12 -48 q6 -18 35 -19 l0 0 Z" /><glyph glyph-name="" unicode="&#x15d;" d="M51 35 q27 -17 70 -31 q43 -15 101 -16 q100 2 156 49 q55 46 56 120 q-15 125 -120 149 q-106 24 -121 59 q-1 11 9 19 q10 8 37 8 q26 0 48 -7 q22 -6 40 -13 q25 -10 44 -5 q18 5 29 29 l12 24 q12 24 7 43 q-4 19 -27 31 q-24 12 -61 22 q-36 10 -85 11 q-91 0 -152 -42 q-60 -41 -62 -121 q15 -126 121 -151 q105 -25 120 -61 q0 -12 -10 -20 q-11 -9 -37 -9 q-31 1 -55 9 q-24 9 -43 18 q-25 12 -43 9 q-18 -3 -33 -25 l-15 -23 q-14 -23 -11 -43 q3 -20 25 -33 l0 0 ZM107 565 l34 0 q22 0 34 9 q12 10 22 29 l25 44 l2 0 l25 -44 q10 -19 22 -29 q12 -9 34 -9 l34 0 q29 1 35 19 q7 19 -12 48 l-31 47 q-13 19 -29 27 q-16 9 -38 9 l-82 0 q-22 0 -38 -9 q-16 -8 -29 -27 l-31 -47 q-19 -29 -12 -48 q6 -18 35 -19 l0 0 Z" /><glyph glyph-name="" unicode="&#x15e;" d="M232 -44 q-5 -17 -2 -26 q3 -9 16 -10 q18 -1 30 -6 q11 -6 11 -18 q0 -11 -7 -18 q-7 -6 -20 -6 q-5 0 -11 1 q-7 1 -14 1 q-9 0 -16 -10 q-8 -11 -8 -33 q1 -26 22 -34 q20 -8 42 -7 q45 -1 80 20 q35 21 37 74 q-1 39 -22 58 q-22 19 -53 22 l6 26 q102 13 157 75 q54 61 54 146 q-20 158 -158 198 q-138 41 -158 107 q0 22 18 36 q19 14 60 14 q35 -1 62 -10 q27 -10 51 -23 q21 -12 41 -10 q19 1 34 29 l24 47 q12 22 8 41 q-3 18 -25 34 q-27 19 -78 36 q-52 16 -115 17 q-111 -1 -182 -60 q-71 -59 -73 -159 q20 -157 158 -201 q138 -43 158 -108 q0 -21 -18 -35 q-19 -14 -58 -15 q-47 2 -80 18 q-33 15 -50 26 q-25 14 -43 11 q-18 -2 -33 -24 l-31 -45 q-18 -27 -13 -45 q6 -19 23 -31 q26 -21 75 -41 q49 -20 112 -28 l-11 -34 Z" /><glyph glyph-name="" unicode="&#x15f;" d="M163 -44 q-5 -17 -2 -26 q3 -9 16 -10 q18 -1 30 -6 q11 -6 11 -18 q0 -11 -7 -18 q-7 -6 -20 -6 q-5 0 -11 1 q-7 1 -14 1 q-9 0 -16 -10 q-8 -11 -8 -33 q1 -26 22 -34 q20 -8 42 -7 q45 -1 80 20 q35 21 37 74 q-1 39 -22 58 q-22 19 -53 22 l5 26 q85 9 133 54 q47 46 48 113 q-15 125 -120 149 q-106 24 -121 59 q-1 11 9 19 q10 8 37 8 q26 0 48 -7 q22 -6 40 -13 q25 -10 44 -5 q18 5 29 29 l12 24 q12 24 7 43 q-4 19 -27 31 q-24 12 -61 22 q-36 10 -85 11 q-91 0 -152 -42 q-60 -41 -62 -121 q15 -126 121 -151 q105 -25 120 -61 q0 -12 -10 -20 q-11 -9 -37 -9 q-31 1 -55 9 q-24 9 -43 18 q-25 12 -43 9 q-18 -3 -33 -25 l-15 -23 q-14 -23 -11 -43 q3 -20 25 -33 q21 -13 52 -25 q31 -12 71 -18 l-11 -36 Z" /><glyph glyph-name="" unicode="&#x160;" d="M56 59 q30 -24 90 -47 q61 -22 137 -24 q121 3 186 67 q64 63 65 156 q-20 158 -158 198 q-138 41 -158 107 q0 22 18 36 q19 14 60 14 q35 -1 62 -10 q27 -10 51 -23 q21 -12 41 -10 q19 1 34 29 l24 47 q12 22 8 41 q-3 18 -25 34 q-27 19 -78 36 q-52 16 -115 17 q-111 -1 -182 -60 q-71 -59 -73 -159 q20 -157 158 -201 q138 -43 158 -108 q0 -21 -18 -35 q-19 -14 -58 -15 q-47 2 -80 18 q-33 15 -50 26 q-25 14 -43 11 q-18 -2 -33 -24 l-31 -45 q-18 -27 -13 -45 q6 -19 23 -31 l0 0 ZM242 761 l82 0 q22 0 38 9 q16 8 29 27 l31 47 q19 29 12 48 q-6 18 -35 19 l-34 0 q-22 0 -34 -9 q-12 -10 -22 -29 l-25 -44 l-2 0 l-25 44 q-10 19 -22 29 q-12 9 -34 9 l-34 0 q-29 -1 -35 -19 q-7 -19 12 -48 l31 -47 q13 -19 29 -27 q16 -9 38 -9 l0 0 Z" /><glyph glyph-name="" unicode="&#x161;" d="M51 35 q27 -17 70 -31 q43 -15 101 -16 q100 2 156 49 q55 46 56 120 q-15 125 -120 149 q-106 24 -121 59 q-1 11 9 19 q10 8 37 8 q26 0 48 -7 q22 -6 40 -13 q25 -10 44 -5 q18 5 29 29 l12 24 q12 24 7 43 q-4 19 -27 31 q-24 12 -61 22 q-36 10 -85 11 q-91 0 -152 -42 q-60 -41 -62 -121 q15 -126 121 -151 q105 -25 120 -61 q0 -12 -10 -20 q-11 -9 -37 -9 q-31 1 -55 9 q-24 9 -43 18 q-25 12 -43 9 q-18 -3 -33 -25 l-15 -23 q-14 -23 -11 -43 q3 -20 25 -33 l0 0 ZM182 565 l82 0 q22 0 38 9 q16 8 29 27 l31 47 q19 29 12 48 q-6 18 -35 19 l-34 0 q-22 0 -34 -9 q-12 -10 -22 -29 l-25 -44 l-2 0 l-25 44 q-10 19 -22 29 q-12 9 -34 9 l-34 0 q-29 -1 -35 -19 q-7 -19 12 -48 l31 -47 q13 -19 29 -27 q16 -9 38 -9 l0 0 Z" /><glyph glyph-name="" unicode="&#x162;" d="M254 -44 q-5 -17 -2 -26 q3 -9 16 -10 q18 -1 30 -6 q11 -6 11 -18 q0 -11 -7 -18 q-7 -6 -20 -6 q-5 0 -11 1 q-7 1 -14 1 q-9 0 -16 -10 q-8 -11 -8 -33 q1 -26 22 -34 q20 -8 42 -7 q45 -1 80 20 q35 21 37 74 q-1 39 -22 58 q-22 19 -53 22 l8 36 q25 1 38 15 q13 14 13 40 l0 510 l162 0 q27 0 41 14 q14 14 14 41 l0 40 q0 27 -14 41 q-14 14 -41 14 l-499 0 q-27 0 -41 -14 q-14 -14 -14 -41 l0 -40 q0 -27 14 -41 q14 -14 41 -14 l162 0 l0 -510 q0 -49 45 -55 l-14 -44 Z" /><glyph glyph-name="" unicode="&#x163;" d="M168 -44 q-5 -17 -2 -26 q3 -9 16 -10 q18 -1 30 -6 q11 -6 11 -18 q0 -11 -7 -18 q-7 -6 -20 -6 q-5 0 -11 1 q-7 1 -14 1 q-9 0 -16 -10 q-8 -11 -8 -33 q1 -26 22 -34 q20 -8 42 -7 q45 -1 80 20 q35 21 37 74 q-1 39 -22 58 q-22 19 -53 22 l7 35 q12 -2 24 -3 q11 -1 21 -1 q35 0 53 12 q18 13 18 43 l0 45 q0 28 -12 40 q-13 12 -43 15 q-24 3 -42 18 q-17 14 -18 47 l0 156 l54 0 q26 0 40 14 q14 14 14 41 l0 25 q0 27 -14 41 q-14 14 -41 14 l-53 0 l0 93 q0 27 -14 41 q-14 14 -41 14 l-58 0 q-27 0 -41 -14 q-14 -14 -14 -41 l0 -93 l-19 0 q-27 0 -41 -14 q-14 -14 -14 -41 l0 -25 q0 -27 14 -41 q14 -14 40 -14 l15 0 l0 -188 q1 -65 30 -105 q28 -39 70 -58 l-20 -64 Z" /><glyph glyph-name="" unicode="&#x164;" d="M223 55 q0 -27 14 -41 q14 -14 41 -14 l65 0 q27 0 41 14 q14 14 14 41 l0 510 l162 0 q27 0 41 14 q14 14 14 41 l0 40 q0 27 -14 41 q-14 14 -41 14 l-499 0 q-27 0 -41 -14 q-14 -14 -14 -41 l0 -40 q0 -27 14 -41 q14 -14 41 -14 l162 0 l0 -510 ZM269 761 l82 0 q22 0 38 9 q16 8 29 27 l31 47 q19 29 12 48 q-6 18 -35 19 l-34 0 q-22 0 -34 -9 q-12 -10 -22 -29 l-25 -44 l-2 0 l-25 44 q-10 19 -22 29 q-12 9 -34 9 l-34 0 q-29 -1 -35 -19 q-7 -19 12 -48 l31 -47 q13 -19 29 -27 q16 -9 38 -9 l0 0 Z" /><glyph glyph-name="" unicode="&#x165;" d="M86 183 q6 -112 80 -151 q74 -40 137 -37 q35 0 53 12 q18 13 18 43 l0 45 q0 28 -12 40 q-13 12 -43 15 q-24 3 -42 18 q-17 14 -18 47 l0 156 l54 0 q26 0 40 14 q14 14 14 41 l0 25 q0 27 -14 41 q-14 14 -41 14 l-53 0 l0 93 q0 27 -14 41 q-14 14 -41 14 l-58 0 q-27 0 -41 -14 q-14 -14 -14 -41 l0 -93 l-19 0 q-27 0 -41 -14 q-14 -14 -14 -41 l0 -25 q0 -27 14 -41 q14 -14 40 -14 l15 0 l0 -188 ZM309 679 q0 -13 3 -25 q2 -13 2 -26 q-1 -21 -5 -36 q-5 -15 -6 -31 q0 -15 12 -22 q13 -8 36 -8 l15 0 q30 0 54 29 q23 29 24 83 q1 29 -13 49 q-13 19 -50 20 l-23 0 q-23 0 -36 -7 q-13 -7 -13 -26 l0 0 Z" /><glyph glyph-name="" unicode="&#x166;" d="M223 55 q0 -27 14 -41 q14 -14 41 -14 l65 0 q27 0 41 14 q14 14 14 41 l0 217 l93 0 q27 0 41 14 q14 14 14 41 l0 17 q0 27 -14 41 q-14 14 -41 14 l-93 0 l0 166 l162 0 q27 0 41 14 q14 14 14 41 l0 40 q0 27 -14 41 q-14 14 -41 14 l-499 0 q-27 0 -41 -14 q-14 -14 -14 -41 l0 -40 q0 -27 14 -41 q14 -14 41 -14 l162 0 l0 -166 l-87 0 q-27 0 -41 -14 q-14 -14 -14 -41 l0 -17 q0 -27 14 -41 q14 -14 41 -14 l87 0 l0 -217 Z" /><glyph glyph-name="" unicode="&#x167;" d="M87 183 q6 -112 80 -151 q74 -40 137 -37 q35 0 53 12 q18 13 18 43 l0 45 q0 28 -12 40 q-13 12 -43 15 q-24 3 -42 15 q-17 12 -18 40 l0 9 l54 0 q26 0 40 14 q14 14 14 41 l0 15 q0 27 -14 41 q-14 14 -41 14 l-53 0 l0 42 l54 0 q26 0 40 14 q14 14 14 41 l0 15 q0 27 -14 41 q-14 14 -41 14 l-53 0 l0 93 q0 27 -14 41 q-14 14 -41 14 l-58 0 q-27 0 -41 -14 q-14 -14 -14 -41 l0 -93 l-19 0 q-27 0 -41 -14 q-14 -14 -14 -41 l0 -15 q0 -27 14 -41 q14 -14 40 -14 l15 0 l0 -42 l-14 0 q-27 0 -41 -14 q-14 -14 -14 -41 l0 -15 q0 -27 14 -41 q14 -14 40 -14 l15 0 l0 -31 Z" /><glyph glyph-name="" unicode="&#x168;" d="M62 263 q2 -123 82 -198 q80 -75 218 -77 q137 2 217 77 q79 75 81 198 l0 397 q0 27 -14 41 q-14 14 -41 14 l-65 0 q-27 0 -41 -14 q-14 -14 -14 -41 l0 -397 q-1 -56 -34 -86 q-33 -29 -90 -29 q-57 0 -90 29 q-33 30 -34 86 l0 397 q0 27 -14 41 q-14 14 -41 14 l-65 0 q-27 0 -41 -14 q-14 -14 -14 -41 l0 -397 ZM213 761 l12 0 q18 0 29 7 q12 6 14 18 q2 14 12 23 q9 9 24 9 q27 -4 56 -30 q29 -26 87 -30 q50 1 80 31 q30 30 31 79 q0 22 -12 33 q-12 10 -36 10 l-12 0 q-20 0 -32 -7 q-12 -8 -14 -20 q-2 -16 -10 -23 q-9 -7 -23 -7 q-27 4 -56 30 q-29 26 -86 30 q-50 -1 -81 -32 q-30 -32 -31 -75 q0 -23 13 -35 q12 -11 35 -11 l0 0 Z" /><glyph glyph-name="" unicode="&#x169;" d="M45 181 q2 -107 53 -151 q52 -44 130 -42 q53 0 96 24 q43 23 65 65 l2 0 q0 0 0 -5 q-1 -4 -1 -8 l0 -9 q0 -54 54 -55 l56 0 q27 0 41 14 q14 14 14 41 l0 405 q0 27 -14 41 q-14 14 -41 14 l-63 0 q-27 0 -41 -14 q-14 -14 -14 -41 l0 -173 q0 -59 -27 -100 q-27 -40 -82 -42 q-27 0 -41 16 q-14 16 -14 52 l0 247 q0 27 -14 41 q-14 14 -41 14 l-63 0 q-27 0 -41 -14 q-14 -14 -14 -41 l0 -279 ZM152 565 l12 0 q18 0 29 7 q12 6 14 18 q2 14 12 23 q9 9 24 9 q27 -4 56 -30 q29 -26 87 -30 q50 1 80 31 q30 30 31 79 q0 22 -12 33 q-12 10 -36 10 l-12 0 q-20 0 -32 -7 q-12 -8 -14 -20 q-2 -16 -10 -23 q-9 -7 -23 -7 q-27 4 -56 30 q-29 26 -86 30 q-50 -1 -81 -32 q-30 -32 -31 -75 q0 -23 13 -35 q12 -11 35 -11 l0 0 Z" /><glyph glyph-name="" unicode="&#x16a;" d="M62 263 q2 -123 82 -198 q80 -75 218 -77 q137 2 217 77 q79 75 81 198 l0 397 q0 27 -14 41 q-14 14 -41 14 l-65 0 q-27 0 -41 -14 q-14 -14 -14 -41 l0 -397 q-1 -56 -34 -86 q-33 -29 -90 -29 q-57 0 -90 29 q-33 30 -34 86 l0 397 q0 27 -14 41 q-14 14 -41 14 l-65 0 q-27 0 -41 -14 q-14 -14 -14 -41 l0 -397 ZM279 782 l165 0 q27 0 41 13 q14 12 14 39 l0 8 q0 27 -14 40 q-14 12 -41 12 l-165 0 q-27 0 -41 -12 q-14 -13 -14 -40 l0 -8 q0 -27 14 -39 q14 -13 41 -13 l0 0 Z" /><glyph glyph-name="" unicode="&#x16b;" d="M45 181 q2 -107 53 -151 q52 -44 130 -42 q53 0 96 24 q43 23 65 65 l2 0 q0 0 0 -5 q-1 -4 -1 -8 l0 -9 q0 -54 54 -55 l56 0 q27 0 41 14 q14 14 14 41 l0 405 q0 27 -14 41 q-14 14 -41 14 l-63 0 q-27 0 -41 -14 q-14 -14 -14 -41 l0 -173 q0 -59 -27 -100 q-27 -40 -82 -42 q-27 0 -41 16 q-14 16 -14 52 l0 247 q0 27 -14 41 q-14 14 -41 14 l-63 0 q-27 0 -41 -14 q-14 -14 -14 -41 l0 -279 ZM218 586 l165 0 q27 0 41 13 q14 12 14 39 l0 8 q0 27 -14 40 q-14 12 -41 12 l-165 0 q-27 0 -41 -12 q-14 -13 -14 -40 l0 -8 q0 -27 14 -39 q14 -13 41 -13 l0 0 Z" /><glyph glyph-name="" unicode="&#x16c;" d="M62 263 q2 -123 82 -198 q80 -75 218 -77 q137 2 217 77 q79 75 81 198 l0 397 q0 27 -14 41 q-14 14 -41 14 l-65 0 q-27 0 -41 -14 q-14 -14 -14 -41 l0 -397 q-1 -56 -34 -86 q-33 -29 -90 -29 q-57 0 -90 29 q-33 30 -34 86 l0 397 q0 27 -14 41 q-14 14 -41 14 l-65 0 q-27 0 -41 -14 q-14 -14 -14 -41 l0 -397 ZM361 756 q64 0 116 33 q53 32 56 91 q0 14 -10 22 q-11 9 -36 9 l-26 0 q-23 -1 -33 -12 q-10 -12 -13 -24 q-7 -18 -21 -26 q-15 -7 -33 -7 q-18 0 -33 7 q-14 8 -21 26 q-3 12 -13 24 q-10 11 -33 12 l-26 0 q-25 0 -36 -9 q-10 -8 -10 -22 q3 -57 56 -90 q53 -33 116 -34 l0 0 Z" /><glyph glyph-name="" unicode="&#x16d;" d="M45 181 q2 -107 53 -151 q52 -44 130 -42 q53 0 96 24 q43 23 65 65 l2 0 q0 0 0 -5 q-1 -4 -1 -8 l0 -9 q0 -54 54 -55 l56 0 q27 0 41 14 q14 14 14 41 l0 405 q0 27 -14 41 q-14 14 -41 14 l-63 0 q-27 0 -41 -14 q-14 -14 -14 -41 l0 -173 q0 -59 -27 -100 q-27 -40 -82 -42 q-27 0 -41 16 q-14 16 -14 52 l0 247 q0 27 -14 41 q-14 14 -41 14 l-63 0 q-27 0 -41 -14 q-14 -14 -14 -41 l0 -279 ZM300 560 q64 0 116 33 q53 32 56 91 q0 14 -10 22 q-11 9 -36 9 l-26 0 q-23 -1 -33 -12 q-10 -12 -13 -24 q-7 -18 -21 -26 q-15 -7 -33 -7 q-18 0 -33 7 q-14 8 -21 26 q-3 12 -13 24 q-10 11 -33 12 l-26 0 q-25 0 -36 -9 q-10 -8 -10 -22 q3 -57 56 -90 q53 -33 116 -34 l0 0 Z" /><glyph glyph-name="" unicode="&#x16e;" d="M62 263 q2 -123 82 -198 q80 -75 218 -77 q137 2 217 77 q79 75 81 198 l0 397 q0 27 -14 41 q-14 14 -41 14 l-65 0 q-27 0 -41 -14 q-14 -14 -14 -41 l0 -397 q-1 -56 -34 -86 q-33 -29 -90 -29 q-57 0 -90 29 q-33 30 -34 86 l0 397 q0 27 -14 41 q-14 14 -41 14 l-65 0 q-27 0 -41 -14 q-14 -14 -14 -41 l0 -397 ZM361 747 q42 0 75 20 q33 21 35 65 q-2 44 -35 65 q-33 21 -75 21 q-42 0 -74 -21 q-33 -21 -35 -65 q2 -44 35 -65 q32 -20 74 -20 l0 0 ZM361 797 q-16 0 -25 10 q-9 9 -9 25 q0 17 10 26 q9 10 24 10 q16 0 25 -10 q10 -9 10 -26 q0 -16 -10 -25 q-9 -10 -25 -10 l0 0 Z" /><glyph glyph-name="" unicode="&#x16f;" d="M45 181 q2 -107 53 -151 q52 -44 130 -42 q53 0 96 24 q43 23 65 65 l2 0 q0 0 0 -5 q-1 -4 -1 -8 l0 -9 q0 -54 54 -55 l56 0 q27 0 41 14 q14 14 14 41 l0 405 q0 27 -14 41 q-14 14 -41 14 l-63 0 q-27 0 -41 -14 q-14 -14 -14 -41 l0 -173 q0 -59 -27 -100 q-27 -40 -82 -42 q-27 0 -41 16 q-14 16 -14 52 l0 247 q0 27 -14 41 q-14 14 -41 14 l-63 0 q-27 0 -41 -14 q-14 -14 -14 -41 l0 -279 ZM300 551 q42 0 75 20 q33 21 35 65 q-2 44 -35 65 q-33 21 -75 21 q-42 0 -74 -21 q-33 -21 -35 -65 q2 -44 35 -65 q32 -20 74 -20 l0 0 ZM300 601 q-16 0 -25 10 q-9 9 -9 25 q0 17 10 26 q9 10 24 10 q16 0 25 -10 q10 -9 10 -26 q0 -16 -10 -25 q-9 -10 -25 -10 l0 0 Z" /><glyph glyph-name="" unicode="&#x170;" d="M62 263 q2 -123 82 -198 q80 -75 218 -77 q137 2 217 77 q79 75 81 198 l0 397 q0 27 -14 41 q-14 14 -41 14 l-65 0 q-27 0 -41 -14 q-14 -14 -14 -41 l0 -397 q-1 -56 -34 -86 q-33 -29 -90 -29 q-57 0 -90 29 q-33 30 -34 86 l0 397 q0 27 -14 41 q-14 14 -41 14 l-65 0 q-27 0 -41 -14 q-14 -14 -14 -41 l0 -397 ZM455 761 l17 0 q22 0 38 8 q16 8 29 25 l39 50 q22 28 15 47 q-8 19 -43 20 l-38 0 q-22 0 -38 -9 q-16 -10 -27 -30 l-25 -45 q-15 -30 -7 -48 q8 -18 40 -18 l0 0 ZM248 761 l23 0 q22 0 38 9 q16 10 27 30 l24 46 q15 29 6 47 q-9 18 -41 18 l-25 0 q-23 0 -39 -9 q-16 -10 -26 -31 l-23 -45 q-14 -29 -5 -47 q9 -17 41 -18 l0 0 Z" /><glyph glyph-name="" unicode="&#x171;" d="M45 181 q2 -107 53 -151 q52 -44 130 -42 q53 0 96 24 q43 23 65 65 l2 0 q0 0 0 -5 q-1 -4 -1 -8 l0 -9 q0 -54 54 -55 l56 0 q27 0 41 14 q14 14 14 41 l0 405 q0 27 -14 41 q-14 14 -41 14 l-63 0 q-27 0 -41 -14 q-14 -14 -14 -41 l0 -173 q0 -59 -27 -100 q-27 -40 -82 -42 q-27 0 -41 16 q-14 16 -14 52 l0 247 q0 27 -14 41 q-14 14 -41 14 l-63 0 q-27 0 -41 -14 q-14 -14 -14 -41 l0 -279 ZM394 565 l17 0 q22 0 38 8 q16 8 29 25 l39 50 q22 28 15 47 q-8 19 -43 20 l-38 0 q-22 0 -38 -9 q-16 -10 -27 -30 l-25 -45 q-15 -30 -7 -48 q8 -18 40 -18 l0 0 ZM187 565 l23 0 q22 0 38 9 q16 10 27 30 l24 46 q15 29 6 47 q-9 18 -41 18 l-25 0 q-23 0 -39 -9 q-16 -10 -26 -31 l-23 -45 q-14 -29 -5 -47 q9 -17 41 -18 l0 0 Z" /><glyph glyph-name="" unicode="&#x172;" d="M62 263 q2 -122 80 -197 q79 -74 215 -78 q-20 -18 -34 -42 q-15 -25 -16 -52 q3 -45 41 -69 q38 -24 78 -28 q19 -2 32 7 q14 9 17 28 l4 29 q2 19 -1 31 q-4 13 -16 19 q-9 4 -17 10 q-8 5 -8 15 q5 24 44 55 q39 31 59 45 q50 37 84 88 q35 51 36 139 l0 397 q0 27 -14 41 q-14 14 -41 14 l-65 0 q-27 0 -41 -14 q-14 -14 -14 -41 l0 -397 q-1 -56 -34 -86 q-33 -29 -90 -29 q-57 0 -90 29 q-33 30 -34 86 l0 397 q0 27 -14 41 q-14 14 -41 14 l-65 0 q-27 0 -41 -14 q-14 -14 -14 -41 l0 -397 Z" /><glyph glyph-name="" unicode="&#x173;" d="M45 181 q2 -107 53 -151 q52 -44 130 -42 q53 0 96 24 q43 23 65 65 l2 0 q0 0 0 -5 q-1 -4 -1 -8 l0 -9 q0 -19 7 -30 q7 -12 18 -18 q-20 -21 -36 -51 q-15 -29 -16 -62 q3 -45 41 -69 q38 -24 78 -28 q19 -2 32 7 q14 9 17 28 l4 29 q2 19 -1 31 q-4 13 -16 19 q-9 4 -17 10 q-8 5 -8 15 q4 35 31 57 q27 21 31 62 l0 405 q0 27 -14 41 q-14 14 -41 14 l-63 0 q-27 0 -41 -14 q-14 -14 -14 -41 l0 -173 q0 -59 -27 -100 q-27 -40 -82 -42 q-27 0 -41 16 q-14 16 -14 52 l0 247 q0 27 -14 41 q-14 14 -41 14 l-63 0 q-27 0 -41 -14 q-14 -14 -14 -41 l0 -279 Z" /><glyph glyph-name="" unicode="&#x174;" d="M175 48 q12 -48 61 -48 l99 0 q49 0 61 48 l78 313 q8 35 11 59 q3 24 3 25 l2 0 q0 -1 3 -25 q3 -24 11 -59 l78 -313 q12 -48 61 -48 l97 0 q25 0 40 12 q15 11 21 35 l154 607 q7 29 -6 45 q-13 16 -42 16 l-68 0 q-51 0 -61 -48 l-87 -399 q-6 -34 -8 -54 q-1 -20 -1 -21 l-2 0 q0 1 -2 21 q-2 20 -10 54 l-96 399 q-10 48 -60 48 l-43 0 q-49 0 -61 -48 l-98 -399 q-8 -34 -10 -54 q-2 -20 -2 -21 l-2 0 q0 1 -1 21 q-2 20 -8 54 l-80 398 q-10 49 -60 49 l-71 0 q-29 0 -42 -16 q-13 -16 -6 -45 l147 -606 ZM372 761 l34 0 q22 0 34 9 q12 10 22 29 l25 44 l2 0 l25 -44 q10 -19 22 -29 q12 -9 34 -9 l34 0 q29 1 35 19 q7 19 -12 48 l-31 47 q-13 19 -29 27 q-16 9 -38 9 l-82 0 q-22 0 -38 -9 q-16 -8 -29 -27 l-31 -47 q-19 -29 -12 -48 q6 -18 35 -19 l0 0 Z" /><glyph glyph-name="" unicode="&#x175;" d="M135 47 q7 -24 22 -35 q15 -12 39 -12 l98 0 q49 0 61 48 l46 190 q5 22 8 38 q2 16 2 17 l2 0 q0 -1 2 -17 q3 -16 8 -38 l46 -190 q12 -48 61 -48 l96 0 q24 0 39 12 q15 11 22 35 l114 406 q7 29 -5 45 q-13 17 -42 17 l-66 0 q-25 0 -40 -12 q-15 -12 -20 -37 l-54 -255 q-4 -22 -6 -37 q-1 -16 -1 -17 l-2 0 q0 1 -1 17 q-2 15 -7 37 l-60 256 q-10 48 -60 48 l-50 0 q-49 0 -60 -48 l-60 -256 q-5 -22 -7 -37 q-2 -16 -2 -17 l-2 0 q0 1 -1 17 q-1 15 -5 37 l-54 255 q-5 25 -20 37 q-15 12 -40 12 l-68 0 q-29 0 -42 -17 q-12 -16 -5 -45 l114 -406 ZM296 565 l34 0 q22 0 34 9 q12 10 22 29 l25 44 l2 0 l25 -44 q10 -19 22 -29 q12 -9 34 -9 l34 0 q29 1 35 19 q7 19 -12 48 l-31 47 q-13 19 -29 27 q-16 9 -38 9 l-82 0 q-22 0 -38 -9 q-16 -8 -29 -27 l-31 -47 q-19 -29 -12 -48 q6 -18 35 -19 l0 0 Z" /><glyph glyph-name="" unicode="&#x176;" d="M213 55 q0 -27 14 -41 q14 -14 41 -14 l65 0 q27 0 41 14 q14 14 14 41 l0 238 l199 356 q16 29 5 47 q-10 18 -43 19 l-79 0 q-23 0 -39 -10 q-15 -10 -25 -31 l-61 -131 q-18 -39 -30 -70 q-12 -31 -13 -33 l-2 0 q-1 2 -13 33 q-12 31 -30 70 l-62 131 q-10 21 -25 31 q-16 10 -39 10 l-79 0 q-33 -1 -43 -19 q-11 -18 5 -47 l199 -356 l0 -238 ZM185 761 l34 0 q22 0 34 9 q12 10 22 29 l25 44 l2 0 l25 -44 q10 -19 22 -29 q12 -9 34 -9 l34 0 q29 1 35 19 q7 19 -12 48 l-31 47 q-13 19 -29 27 q-16 9 -38 9 l-82 0 q-22 0 -38 -9 q-16 -8 -29 -27 l-31 -47 q-19 -29 -12 -48 q6 -18 35 -19 l0 0 Z" /><glyph glyph-name="" unicode="&#x177;" d="M30 -96 l-13 -29 q-11 -24 -4 -44 q6 -19 31 -28 q15 -5 33 -9 q19 -4 39 -4 q63 -1 122 34 q59 36 93 121 l188 507 q10 29 -2 46 q-12 17 -42 17 l-73 0 q-25 0 -40 -11 q-15 -12 -22 -36 l-52 -193 q-6 -23 -11 -49 q-6 -26 -6 -28 l-2 0 q0 2 -6 30 q-6 27 -13 50 l-61 192 q-7 23 -23 34 q-15 11 -40 11 l-78 0 q-32 0 -43 -18 q-11 -17 1 -46 l191 -441 l-10 -24 q-9 -23 -28 -39 q-19 -15 -43 -16 q-9 0 -16 2 q-8 1 -14 3 q-16 4 -31 -3 q-14 -6 -25 -29 l0 0 ZM154 564 l34 0 q22 0 34 9 q12 10 22 29 l25 44 l2 0 l25 -44 q10 -19 22 -29 q12 -9 34 -9 l34 0 q29 1 35 19 q7 19 -12 48 l-31 47 q-13 19 -29 27 q-16 9 -38 9 l-82 0 q-22 0 -38 -9 q-16 -8 -29 -27 l-31 -47 q-19 -29 -12 -48 q6 -18 35 -19 l0 0 Z" /><glyph glyph-name="" unicode="&#x178;" d="M213 55 q0 -27 14 -41 q14 -14 41 -14 l65 0 q27 0 41 14 q14 14 14 41 l0 238 l199 356 q16 29 5 47 q-10 18 -43 19 l-79 0 q-23 0 -39 -10 q-15 -10 -25 -31 l-61 -131 q-18 -39 -30 -70 q-12 -31 -13 -33 l-2 0 q-1 2 -13 33 q-12 31 -30 70 l-62 131 q-10 21 -25 31 q-16 10 -39 10 l-79 0 q-33 -1 -43 -19 q-11 -18 5 -47 l199 -356 l0 -238 ZM398 771 l16 0 q27 0 41 14 q14 14 14 41 l0 30 q0 27 -14 41 q-14 14 -41 14 l-16 0 q-27 0 -41 -14 q-14 -14 -14 -41 l0 -30 q0 -27 14 -41 q14 -14 41 -14 l0 0 ZM189 771 l16 0 q27 0 41 14 q14 14 14 41 l0 30 q0 27 -14 41 q-14 14 -41 14 l-16 0 q-27 0 -41 -14 q-14 -14 -14 -41 l0 -30 q0 -27 14 -41 q14 -14 41 -14 l0 0 Z" /><glyph glyph-name="" unicode="&#x179;" d="M30 55 q0 -27 14 -41 q14 -14 41 -14 l448 0 q27 0 41 14 q14 14 14 41 l0 40 q0 27 -14 41 q-14 14 -41 14 l-227 0 q-24 0 -39 -1 q-16 -2 -16 -2 l0 2 q1 0 16 16 q15 16 39 49 l255 362 q12 16 17 33 q5 16 5 36 l0 16 q0 26 -14 40 q-14 14 -41 14 l-430 0 q-27 0 -41 -14 q-14 -14 -14 -41 l0 -40 q0 -27 14 -41 q14 -14 41 -14 l208 0 q24 0 40 2 q15 1 15 1 l0 -2 q-1 0 -16 -16 q-15 -16 -39 -49 l-254 -360 q-12 -16 -17 -33 q-5 -16 -5 -36 l0 -17 ZM313 761 l29 0 q22 0 38 8 q16 8 29 25 l39 50 q22 28 15 47 q-8 19 -43 20 l-46 0 q-22 0 -38 -9 q-16 -10 -27 -30 l-28 -50 q-14 -25 -5 -43 q9 -17 37 -18 l0 0 Z" /><glyph glyph-name="" unicode="&#x17a;" d="M24 43 q0 -21 14 -32 q14 -11 41 -11 l363 0 q27 0 41 14 q14 14 14 41 l0 35 q0 27 -14 41 q-14 14 -41 14 l-138 0 q-25 0 -35 -1 q-11 -2 -11 -2 l0 2 q1 0 14 12 q13 12 32 35 l164 207 q13 16 18 29 q6 13 6 32 l0 13 q0 21 -14 32 q-14 11 -41 11 l-350 0 q-27 0 -41 -14 q-14 -14 -14 -41 l0 -35 q0 -27 14 -41 q14 -14 41 -14 l126 0 q24 0 35 1 q10 1 10 1 l0 -2 q0 0 -13 -11 q-12 -12 -32 -36 l-165 -206 q-13 -16 -18 -29 q-6 -13 -6 -32 l0 -13 ZM248 565 l29 0 q22 0 38 8 q16 8 29 25 l39 50 q22 28 15 47 q-8 19 -43 20 l-46 0 q-22 0 -38 -9 q-16 -10 -27 -30 l-28 -50 q-14 -25 -5 -43 q9 -17 37 -18 l0 0 Z" /><glyph glyph-name="" unicode="&#x17b;" d="M30 55 q0 -27 14 -41 q14 -14 41 -14 l448 0 q27 0 41 14 q14 14 14 41 l0 40 q0 27 -14 41 q-14 14 -41 14 l-227 0 q-24 0 -39 -1 q-16 -2 -16 -2 l0 2 q1 0 16 16 q15 16 39 49 l255 362 q12 16 17 33 q5 16 5 36 l0 16 q0 26 -14 40 q-14 14 -41 14 l-430 0 q-27 0 -41 -14 q-14 -14 -14 -41 l0 -40 q0 -27 14 -41 q14 -14 41 -14 l208 0 q24 0 40 2 q15 1 15 1 l0 -2 q-1 0 -16 -16 q-15 -16 -39 -49 l-254 -360 q-12 -16 -17 -33 q-5 -16 -5 -36 l0 -17 ZM305 779 l33 0 q27 0 41 14 q14 14 14 41 l0 22 q0 27 -14 41 q-14 14 -41 14 l-33 0 q-27 0 -41 -14 q-14 -14 -14 -41 l0 -22 q0 -27 14 -41 q14 -14 41 -14 l0 0 Z" /><glyph glyph-name="" unicode="&#x17c;" d="M24 43 q0 -21 14 -32 q14 -11 41 -11 l363 0 q27 0 41 14 q14 14 14 41 l0 35 q0 27 -14 41 q-14 14 -41 14 l-138 0 q-25 0 -35 -1 q-11 -2 -11 -2 l0 2 q1 0 14 12 q13 12 32 35 l164 207 q13 16 18 29 q6 13 6 32 l0 13 q0 21 -14 32 q-14 11 -41 11 l-350 0 q-27 0 -41 -14 q-14 -14 -14 -41 l0 -35 q0 -27 14 -41 q14 -14 41 -14 l126 0 q24 0 35 1 q10 1 10 1 l0 -2 q0 0 -13 -11 q-12 -12 -32 -36 l-165 -206 q-13 -16 -18 -29 q-6 -13 -6 -32 l0 -13 ZM240 583 l33 0 q27 0 41 14 q14 14 14 41 l0 22 q0 27 -14 41 q-14 14 -41 14 l-33 0 q-27 0 -41 -14 q-14 -14 -14 -41 l0 -22 q0 -27 14 -41 q14 -14 41 -14 l0 0 Z" /><glyph glyph-name="" unicode="&#x17d;" d="M30 55 q0 -27 14 -41 q14 -14 41 -14 l448 0 q27 0 41 14 q14 14 14 41 l0 40 q0 27 -14 41 q-14 14 -41 14 l-227 0 q-24 0 -39 -1 q-16 -2 -16 -2 l0 2 q1 0 16 16 q15 16 39 49 l255 362 q12 16 17 33 q5 16 5 36 l0 16 q0 26 -14 40 q-14 14 -41 14 l-430 0 q-27 0 -41 -14 q-14 -14 -14 -41 l0 -40 q0 -27 14 -41 q14 -14 41 -14 l208 0 q24 0 40 2 q15 1 15 1 l0 -2 q-1 0 -16 -16 q-15 -16 -39 -49 l-254 -360 q-12 -16 -17 -33 q-5 -16 -5 -36 l0 -17 ZM280 761 l82 0 q22 0 38 9 q16 8 29 27 l31 47 q19 29 12 48 q-6 18 -35 19 l-34 0 q-22 0 -34 -9 q-12 -10 -22 -29 l-25 -44 l-2 0 l-25 44 q-10 19 -22 29 q-12 9 -34 9 l-34 0 q-29 -1 -35 -19 q-7 -19 12 -48 l31 -47 q13 -19 29 -27 q16 -9 38 -9 l0 0 Z" /><glyph glyph-name="" unicode="&#x17e;" d="M24 43 q0 -21 14 -32 q14 -11 41 -11 l363 0 q27 0 41 14 q14 14 14 41 l0 35 q0 27 -14 41 q-14 14 -41 14 l-138 0 q-25 0 -35 -1 q-11 -2 -11 -2 l0 2 q1 0 14 12 q13 12 32 35 l164 207 q13 16 18 29 q6 13 6 32 l0 13 q0 21 -14 32 q-14 11 -41 11 l-350 0 q-27 0 -41 -14 q-14 -14 -14 -41 l0 -35 q0 -27 14 -41 q14 -14 41 -14 l126 0 q24 0 35 1 q10 1 10 1 l0 -2 q0 0 -13 -11 q-12 -12 -32 -36 l-165 -206 q-13 -16 -18 -29 q-6 -13 -6 -32 l0 -13 ZM215 565 l82 0 q22 0 38 9 q16 8 29 27 l31 47 q19 29 12 48 q-6 18 -35 19 l-34 0 q-22 0 -34 -9 q-12 -10 -22 -29 l-25 -44 l-2 0 l-25 44 q-10 19 -22 29 q-12 9 -34 9 l-34 0 q-29 -1 -35 -19 q-7 -19 12 -48 l31 -47 q13 -19 29 -27 q16 -9 38 -9 l0 0 Z" /><glyph glyph-name="" unicode="&#x17f;" d="M86 55 q0 -27 14 -41 q14 -14 41 -14 l63 0 q27 0 41 14 q14 14 14 41 l0 467 q2 32 22 41 q20 9 38 9 q27 2 41 15 q14 13 14 40 l0 37 q0 27 -14 41 q-14 14 -41 14 l-17 0 q-49 4 -128 -32 q-80 -37 -88 -156 l0 -25 l-13 0 q-27 0 -41 -14 q-14 -14 -14 -41 l0 -25 q0 -27 14 -41 q14 -14 41 -14 l13 0 l0 -316 Z" /><glyph glyph-name="" unicode="&#x192;" d="M27 22 q-23 2 -36 -11 q-13 -13 -13 -41 l0 -36 q0 -53 51 -58 q8 -1 16 -1 q8 -1 15 -1 q69 -4 151 33 q82 36 100 159 l21 244 l54 0 q26 0 39 14 q14 14 14 41 l0 25 q0 27 -14 41 q-14 14 -41 14 l-40 0 l7 71 q6 40 36 53 q29 12 57 11 q6 0 16 -1 q10 0 22 -2 q18 -1 28 12 q10 14 10 42 l0 36 q0 26 -13 41 q-13 15 -39 17 q-10 1 -19 1 q-9 1 -17 1 q-70 4 -152 -33 q-82 -36 -100 -159 l-9 -90 l-19 0 q-27 0 -41 -14 q-14 -14 -14 -41 l0 -25 q0 -27 14 -41 q14 -14 41 -14 l7 0 l-19 -225 q-6 -40 -35 -53 q-30 -12 -57 -11 q-7 1 -21 1 l0 0 Z" /><glyph glyph-name="" unicode="&#x218;" d="M56 59 q30 -24 90 -47 q61 -22 137 -24 q121 3 186 67 q64 63 65 156 q-20 158 -158 198 q-138 41 -158 107 q0 22 18 36 q19 14 60 14 q35 -1 62 -10 q27 -10 51 -23 q21 -12 41 -10 q19 1 34 29 l24 47 q12 22 8 41 q-3 18 -25 34 q-27 19 -78 36 q-52 16 -115 17 q-111 -1 -182 -60 q-71 -59 -73 -159 q20 -157 158 -201 q138 -43 158 -108 q0 -21 -18 -35 q-19 -14 -58 -15 q-47 2 -80 18 q-33 15 -50 26 q-25 14 -43 11 q-18 -2 -33 -24 l-31 -45 q-18 -27 -13 -45 q6 -19 23 -31 l0 0 ZM211 -82 q0 -13 3 -25 q2 -13 2 -26 q-1 -21 -5 -36 q-5 -15 -6 -31 q0 -15 12 -22 q13 -8 36 -8 l15 0 q30 0 54 29 q23 29 24 83 q1 29 -13 49 q-13 19 -50 20 l-23 0 q-23 0 -36 -7 q-13 -7 -13 -26 l0 0 Z" /><glyph glyph-name="" unicode="&#x219;" d="M51 35 q27 -17 70 -31 q43 -15 101 -16 q100 2 156 49 q55 46 56 120 q-15 125 -120 149 q-106 24 -121 59 q-1 11 9 19 q10 8 37 8 q26 0 48 -7 q22 -6 40 -13 q25 -10 44 -5 q18 5 29 29 l12 24 q12 24 7 43 q-4 19 -27 31 q-24 12 -61 22 q-36 10 -85 11 q-91 0 -152 -42 q-60 -41 -62 -121 q15 -126 121 -151 q105 -25 120 -61 q0 -12 -10 -20 q-11 -9 -37 -9 q-31 1 -55 9 q-24 9 -43 18 q-25 12 -43 9 q-18 -3 -33 -25 l-15 -23 q-14 -23 -11 -43 q3 -20 25 -33 l0 0 ZM155 -82 q0 -13 3 -25 q2 -13 2 -26 q-1 -21 -5 -36 q-5 -15 -6 -31 q0 -15 12 -22 q13 -8 36 -8 l15 0 q30 0 54 29 q23 29 24 83 q1 29 -13 49 q-13 19 -50 20 l-23 0 q-23 0 -36 -7 q-13 -7 -13 -26 l0 0 Z" /><glyph glyph-name="" unicode="&#x21a;" d="M223 55 q0 -27 14 -41 q14 -14 41 -14 l65 0 q27 0 41 14 q14 14 14 41 l0 510 l162 0 q27 0 41 14 q14 14 14 41 l0 40 q0 27 -14 41 q-14 14 -41 14 l-499 0 q-27 0 -41 -14 q-14 -14 -14 -41 l0 -40 q0 -27 14 -41 q14 -14 41 -14 l162 0 l0 -510 ZM246 -82 q0 -13 3 -25 q2 -13 2 -26 q-1 -21 -5 -36 q-5 -15 -6 -31 q0 -15 12 -22 q13 -8 36 -8 l15 0 q30 0 54 29 q23 29 24 83 q1 29 -13 49 q-13 19 -50 20 l-23 0 q-23 0 -36 -7 q-13 -7 -13 -26 l0 0 Z" /><glyph glyph-name="" unicode="&#x21b;" d="M86 183 q6 -112 80 -151 q74 -40 137 -37 q35 0 53 12 q18 13 18 43 l0 45 q0 28 -12 40 q-13 12 -43 15 q-24 3 -42 18 q-17 14 -18 47 l0 156 l54 0 q26 0 40 14 q14 14 14 41 l0 25 q0 27 -14 41 q-14 14 -41 14 l-53 0 l0 93 q0 27 -14 41 q-14 14 -41 14 l-58 0 q-27 0 -41 -14 q-14 -14 -14 -41 l0 -93 l-19 0 q-27 0 -41 -14 q-14 -14 -14 -41 l0 -25 q0 -27 14 -41 q14 -14 40 -14 l15 0 l0 -188 ZM154 -82 q0 -13 3 -25 q2 -13 2 -26 q-1 -21 -5 -36 q-5 -15 -6 -31 q0 -15 12 -22 q13 -8 36 -8 l15 0 q30 0 54 29 q23 29 24 83 q1 29 -13 49 q-13 19 -50 20 l-23 0 q-23 0 -36 -7 q-13 -7 -13 -26 l0 0 Z" /><glyph glyph-name="" unicode="&#x2c6;" d="M127 761 l34 0 q22 0 34 9 q12 10 22 29 l25 44 l2 0 l25 -44 q10 -19 22 -29 q12 -9 34 -9 l34 0 q29 1 35 19 q7 19 -12 48 l-31 47 q-13 19 -29 27 q-16 9 -38 9 l-82 0 q-22 0 -38 -9 q-16 -8 -29 -27 l-31 -47 q-19 -29 -12 -48 q6 -18 35 -19 l0 0 Z" /><glyph glyph-name="" unicode="&#x2c7;" d="M202 761 l82 0 q22 0 38 9 q16 8 29 27 l31 47 q19 29 12 48 q-6 18 -35 19 l-34 0 q-22 0 -34 -9 q-12 -10 -22 -29 l-25 -44 l-2 0 l-25 44 q-10 19 -22 29 q-12 9 -34 9 l-34 0 q-29 -1 -35 -19 q-7 -19 12 -48 l31 -47 q13 -19 29 -27 q16 -9 38 -9 l0 0 Z" /><glyph glyph-name="" unicode="&#x2d8;" d="M242 756 q64 0 116 33 q53 32 56 91 q0 14 -10 22 q-11 9 -36 9 l-26 0 q-23 -1 -33 -12 q-10 -12 -13 -24 q-7 -18 -21 -26 q-15 -7 -33 -7 q-18 0 -33 7 q-14 8 -21 26 q-3 12 -13 24 q-10 11 -33 12 l-26 0 q-25 0 -36 -9 q-10 -8 -10 -22 q3 -57 56 -90 q53 -33 116 -34 l0 0 Z" /><glyph glyph-name="" unicode="&#x2d9;" d="M226 779 l33 0 q27 0 41 14 q14 14 14 41 l0 22 q0 27 -14 41 q-14 14 -41 14 l-33 0 q-27 0 -41 -14 q-14 -14 -14 -41 l0 -22 q0 -27 14 -41 q14 -14 41 -14 l0 0 Z" /><glyph glyph-name="" unicode="&#x2da;" d="M242 747 q42 0 75 20 q33 21 35 65 q-2 44 -35 65 q-33 21 -75 21 q-42 0 -74 -21 q-33 -21 -35 -65 q2 -44 35 -65 q32 -20 74 -20 l0 0 ZM242 797 q-16 0 -25 10 q-9 9 -9 25 q0 17 10 26 q9 10 24 10 q16 0 25 -10 q10 -9 10 -26 q0 -16 -10 -25 q-9 -10 -25 -10 l0 0 Z" /><glyph glyph-name="" unicode="&#x2db;" d="M141 -106 q3 -45 41 -69 q38 -24 78 -28 q19 -2 32 7 q14 9 17 28 l4 29 q2 19 -1 31 q-4 13 -16 19 q-9 4 -17 10 q-8 5 -8 15 q1 16 12 26 q11 10 25 23 q15 15 11 26 q-5 11 -28 16 q-22 4 -39 0 q-18 -5 -32 -16 q-25 -16 -51 -48 q-26 -31 -28 -69 l0 0 Z" /><glyph glyph-name="" unicode="&#x2dc;" d="M94 761 l12 0 q18 0 29 7 q12 6 14 18 q2 14 12 23 q9 9 24 9 q27 -4 56 -30 q29 -26 87 -30 q50 1 80 31 q30 30 31 79 q0 22 -12 33 q-12 10 -36 10 l-12 0 q-20 0 -32 -7 q-12 -8 -14 -20 q-2 -16 -10 -23 q-9 -7 -23 -7 q-27 4 -56 30 q-29 26 -86 30 q-50 -1 -81 -32 q-30 -32 -31 -75 q0 -23 13 -35 q12 -11 35 -11 l0 0 Z" /><glyph glyph-name="" unicode="&#x2dd;" d="M293 761 l17 0 q22 0 38 8 q16 8 29 25 l39 50 q22 28 15 47 q-8 19 -43 20 l-38 0 q-22 0 -38 -9 q-16 -10 -27 -30 l-25 -45 q-15 -30 -7 -48 q8 -18 40 -18 l0 0 ZM86 761 l23 0 q22 0 38 9 q16 10 27 30 l24 46 q15 29 6 47 q-9 18 -41 18 l-25 0 q-23 0 -39 -9 q-16 -10 -26 -31 l-23 -45 q-14 -29 -5 -47 q9 -17 41 -18 l0 0 Z" /><glyph glyph-name="" unicode="&#x1e9e;" d="M62 55 q0 -27 14 -41 q14 -14 41 -14 l69 0 q27 0 41 14 q14 14 14 41 l0 429 q0 35 18 58 q17 22 45 23 l84 0 q26 0 36 2 q10 1 9 1 l0 -2 q0 0 -13 -14 q-12 -15 -32 -51 l-36 -65 q-9 -17 -13 -30 q-4 -14 -4 -33 l0 -34 q0 -27 14 -41 q14 -14 41 -14 l25 0 q34 -1 49 -21 q15 -19 15 -45 q0 -27 -15 -47 q-16 -20 -49 -21 l-52 0 q-26 0 -40 -14 q-13 -14 -13 -41 l0 -40 q0 -27 14 -41 q14 -14 41 -14 l63 0 q98 2 163 63 q65 60 68 155 q0 64 -33 121 q-33 57 -100 75 l-9 2 l0 2 q0 0 7 9 q6 8 13 20 l73 117 q10 16 15 32 q4 16 4 36 l0 28 q0 27 -14 41 q-14 14 -41 14 l-271 0 q-110 -1 -175 -65 q-65 -63 -66 -170 l0 -425 Z" /><glyph glyph-name="" unicode="&#x2013;" d="M105 222 l486 0 q27 0 41 14 q14 14 14 41 l0 20 q0 27 -14 41 q-14 14 -41 14 l-486 0 q-27 0 -41 -14 q-14 -14 -14 -41 l0 -20 q0 -27 14 -41 q14 -14 41 -14 l0 0 Z" /><glyph glyph-name="" unicode="&#x2014;" d="M105 222 l686 0 q27 0 41 14 q14 14 14 41 l0 20 q0 27 -14 41 q-14 14 -41 14 l-686 0 q-27 0 -41 -14 q-14 -14 -14 -41 l0 -20 q0 -27 14 -41 q14 -14 41 -14 l0 0 Z" /><glyph glyph-name="" unicode="&#x2018;" d="M76 475 l35 0 q25 0 40 12 q15 12 20 37 l31 146 q6 28 -4 44 q-11 16 -40 16 l-13 0 q-24 0 -39 -11 q-16 -11 -24 -33 l-51 -148 q-10 -29 2 -46 q12 -17 43 -17 l0 0 Z" /><glyph glyph-name="" unicode="&#x2019;" d="M77 475 l13 0 q24 0 39 11 q16 11 24 33 l51 148 q10 29 -2 46 q-12 17 -43 17 l-35 0 q-25 0 -40 -12 q-15 -12 -20 -37 l-31 -146 q-6 -28 4 -44 q11 -16 40 -16 l0 0 Z" /><glyph glyph-name="" unicode="&#x201a;" d="M25 -29 q-6 -28 4 -44 q11 -16 40 -16 l13 0 q24 0 39 11 q16 11 24 33 l51 148 q10 29 -2 46 q-12 17 -43 17 l-35 0 q-25 0 -40 -12 q-15 -12 -20 -37 l-31 -146 Z" /><glyph glyph-name="" unicode="&#x201c;" d="M274 475 l36 0 q25 0 40 12 q15 12 20 37 l31 146 q6 28 -4 44 q-11 16 -40 16 l-14 0 q-24 0 -39 -11 q-16 -11 -24 -33 l-51 -148 q-10 -29 2 -46 q12 -17 43 -17 l0 0 ZM76 475 l36 0 q25 0 40 12 q15 12 20 37 l31 146 q6 28 -4 44 q-11 16 -40 16 l-14 0 q-24 0 -39 -11 q-16 -11 -24 -33 l-51 -148 q-10 -29 2 -46 q12 -17 43 -17 l0 0 Z" /><glyph glyph-name="" unicode="&#x201d;" d="M275 475 l14 0 q24 0 39 11 q16 11 24 33 l51 148 q10 29 -2 46 q-12 17 -43 17 l-36 0 q-25 0 -40 -12 q-15 -12 -20 -37 l-31 -146 q-6 -28 4 -44 q11 -16 40 -16 l0 0 ZM77 475 l14 0 q24 0 39 11 q16 11 24 33 l51 148 q10 29 -2 46 q-12 17 -43 17 l-36 0 q-25 0 -40 -12 q-15 -12 -20 -37 l-31 -146 q-6 -28 4 -44 q11 -16 40 -16 l0 0 Z" /><glyph glyph-name="" unicode="&#x201e;" d="M223 -29 q-6 -28 4 -44 q11 -16 40 -16 l14 0 q24 0 39 11 q16 11 24 33 l51 148 q10 29 -2 46 q-12 17 -43 17 l-36 0 q-25 0 -40 -12 q-15 -12 -20 -37 l-31 -146 ZM25 -29 q-6 -28 4 -44 q11 -16 40 -16 l14 0 q24 0 39 11 q16 11 24 33 l51 148 q10 29 -2 46 q-12 17 -43 17 l-36 0 q-25 0 -40 -12 q-15 -12 -20 -37 l-31 -146 Z" /><glyph glyph-name="" unicode="&#x2020;" d="M159 5 q0 -27 14 -41 q14 -14 41 -14 l55 0 q27 0 41 14 q14 14 14 41 l0 380 l76 0 q27 0 41 14 q14 14 14 41 l0 20 q0 27 -14 41 q-14 14 -41 14 l-76 0 l0 145 q0 27 -14 41 q-14 14 -41 14 l-55 0 q-27 0 -41 -14 q-14 -14 -14 -41 l0 -145 l-75 0 q-27 0 -41 -14 q-14 -14 -14 -41 l0 -20 q0 -27 14 -41 q14 -14 41 -14 l75 0 l0 -380 Z" /><glyph glyph-name="" unicode="&#x2021;" d="M166 5 q0 -27 14 -41 q14 -14 41 -14 l55 0 q27 0 41 14 q14 14 14 41 l0 145 l76 0 q27 0 41 14 q14 14 14 41 l0 20 q0 27 -14 41 q-14 14 -41 14 l-76 0 l0 105 l76 0 q27 0 41 14 q14 14 14 41 l0 20 q0 27 -14 41 q-14 14 -41 14 l-76 0 l0 145 q0 27 -14 41 q-14 14 -41 14 l-55 0 q-27 0 -41 -14 q-14 -14 -14 -41 l0 -145 l-75 0 q-27 0 -41 -14 q-14 -14 -14 -41 l0 -20 q0 -27 14 -41 q14 -14 41 -14 l75 0 l0 -105 l-75 0 q-27 0 -41 -14 q-14 -14 -14 -41 l0 -20 q0 -27 14 -41 q14 -14 41 -14 l75 0 l0 -145 Z" /><glyph glyph-name="" unicode="&#x2022;" d="M225 105 q79 2 132 54 q52 53 54 132 q-2 79 -54 132 q-53 52 -132 54 q-79 -2 -132 -54 q-52 -53 -54 -132 q2 -79 54 -132 q53 -52 132 -54 l0 0 Z" /><glyph glyph-name="" unicode="&#x2026;" d="M692 55 q0 -27 14 -41 q14 -14 41 -14 l48 0 q27 0 41 14 q14 14 14 41 l0 54 q0 27 -14 41 q-14 14 -41 14 l-48 0 q-27 0 -41 -14 q-14 -14 -14 -41 l0 -54 ZM368 55 q0 -27 14 -41 q14 -14 41 -14 l48 0 q27 0 41 14 q14 14 14 41 l0 54 q0 27 -14 41 q-14 14 -41 14 l-48 0 q-27 0 -41 -14 q-14 -14 -14 -41 l0 -54 ZM44 55 q0 -27 14 -41 q14 -14 41 -14 l48 0 q27 0 41 14 q14 14 14 41 l0 54 q0 27 -14 41 q-14 14 -41 14 l-48 0 q-27 0 -41 -14 q-14 -14 -14 -41 l0 -54 Z" /><glyph glyph-name="" unicode="&#x2030;" d="M215 382 q77 2 128 50 q51 48 53 122 q-2 73 -53 122 q-51 49 -128 51 q-78 -2 -128 -51 q-51 -49 -53 -122 q2 -74 53 -122 q50 -48 128 -50 l0 0 ZM126 67 q-21 -28 -12 -47 q9 -19 45 -20 l25 0 q22 0 38 8 q16 8 29 25 l475 615 q21 28 12 47 q-9 19 -45 20 l-25 0 q-22 0 -38 -8 q-16 -8 -29 -25 l-475 -615 ZM215 502 q-23 1 -39 15 q-15 15 -16 38 q1 22 16 37 q16 14 39 15 q23 -1 39 -15 q15 -15 16 -37 q-1 -23 -16 -38 q-16 -14 -39 -15 l0 0 ZM863 160 q2 -74 53 -122 q50 -48 128 -50 q77 2 128 50 q51 48 53 122 q-2 73 -53 122 q-51 49 -128 51 q-78 -2 -128 -51 q-51 -49 -53 -122 l0 0 ZM461 160 q2 -74 53 -122 q50 -48 128 -50 q77 2 128 50 q51 48 53 122 q-2 73 -53 122 q-51 49 -128 51 q-78 -2 -128 -51 q-51 -49 -53 -122 l0 0 ZM989 161 q1 22 16 37 q16 14 39 15 q23 -1 39 -15 q15 -15 16 -37 q-1 -23 -16 -38 q-16 -14 -39 -15 q-23 1 -39 15 q-15 15 -16 38 l0 0 ZM587 161 q1 22 16 37 q16 14 39 15 q23 -1 39 -15 q15 -15 16 -37 q-1 -23 -16 -38 q-16 -14 -39 -15 q-23 1 -39 15 q-15 15 -16 38 l0 0 Z" /><glyph glyph-name="" unicode="&#x2039;" d="M156 109 q13 -16 29 -24 q16 -8 38 -8 l38 0 q33 1 40 20 q7 19 -15 47 l-110 138 l110 139 q22 28 13 47 q-9 19 -45 20 l-31 0 q-22 0 -38 -8 q-16 -8 -29 -24 l-107 -135 q-31 -39 0 -78 l107 -134 Z" /><glyph glyph-name="" unicode="&#x203a;" d="M87 77 l31 0 q22 0 38 8 q16 8 29 24 l107 134 q32 39 0 78 l-107 135 q-13 16 -29 24 q-16 8 -38 8 l-38 0 q-33 -1 -40 -20 q-7 -19 15 -47 l110 -139 l-110 -138 q-21 -28 -12 -47 q8 -19 44 -20 l0 0 Z" /><glyph glyph-name="" unicode="&#x2044;" d="M8 41 l287 609 q13 30 6 47 q-7 18 -33 18 l-17 0 q-23 0 -39 -10 q-15 -10 -25 -31 l-287 -609 q-13 -30 -6 -47 q7 -18 33 -18 l17 0 q23 0 39 10 q15 10 25 31 l0 0 Z" /><glyph glyph-name="" unicode="&#x20ac;" d="M82 237 l25 0 q36 -113 125 -180 q90 -67 220 -69 q22 0 41 2 q19 2 35 5 q26 5 37 22 q10 17 5 43 l-10 53 q-5 27 -21 37 q-17 10 -43 6 q-20 -3 -41 -3 q-47 0 -87 22 q-39 22 -64 62 l105 0 q29 0 42 11 q13 11 18 37 q5 23 -7 36 q-12 12 -45 12 l-145 0 q-5 24 -2 48 l169 0 q29 0 42 11 q14 12 18 37 q5 24 -7 36 q-12 12 -45 12 l-154 0 q23 42 62 65 q40 23 92 23 q22 0 40 -3 q20 -2 33 8 q13 10 20 35 l14 52 q7 27 -3 45 q-11 17 -39 21 q-14 2 -29 3 q-15 1 -31 1 q-126 -2 -218 -70 q-93 -68 -129 -180 l-22 0 q-27 0 -39 -12 q-12 -13 -12 -36 q0 -23 12 -36 q12 -12 39 -12 l5 0 q-1 -13 -1 -25 q0 -12 2 -23 l-7 0 q-27 0 -39 -12 q-11 -13 -11 -36 q0 -23 11 -36 q12 -12 39 -12 l0 0 Z" /><glyph glyph-name="" unicode="&#x2122;" d="M468 325 q-1 -28 12 -42 q14 -15 41 -15 l17 0 q53 0 57 53 l8 121 q1 12 0 22 q-1 9 -1 10 l2 0 l34 -82 q9 -22 24 -33 q16 -10 39 -10 l6 0 q23 0 39 10 q15 11 24 33 l34 82 l2 0 q0 -1 -1 -10 q-1 -10 0 -22 l7 -121 q3 -53 56 -53 l17 0 q28 0 41 15 q13 14 12 42 l-25 337 q-4 53 -57 53 l-19 0 q-24 0 -39 -10 q-16 -10 -25 -32 l-55 -133 q-5 -13 -9 -28 q-4 -15 -4 -16 l-2 0 q0 1 -4 16 q-4 15 -9 28 l-55 133 q-9 22 -24 32 q-16 10 -40 10 l-19 0 q-52 0 -57 -53 l-27 -337 ZM234 268 l16 0 q27 0 41 14 q14 14 14 41 l0 283 l85 0 q27 0 41 13 q14 12 14 39 l0 6 q0 26 -14 39 q-14 12 -41 12 l-298 0 q-27 0 -41 -12 q-14 -13 -14 -39 l0 -6 q0 -27 14 -39 q14 -13 41 -13 l87 0 l0 -283 q0 -27 14 -41 q14 -14 41 -14 l0 0 Z" /><glyph glyph-name="" unicode="&#x2212;" d="M97 222 l436 0 q27 0 41 14 q14 14 14 41 l0 20 q0 27 -14 41 q-14 14 -41 14 l-436 0 q-27 0 -41 -14 q-14 -14 -14 -41 l0 -20 q0 -27 14 -41 q14 -14 41 -14 l0 0 Z" /><glyph glyph-name="" unicode="&#x221e;" d="M252 143 q88 2 145 61 q58 58 60 145 q-2 88 -60 145 q-57 58 -145 60 q-87 -2 -145 -60 q-59 -57 -61 -145 q2 -87 61 -145 q58 -59 145 -61 l0 0 Z" /><glyph glyph-name="" unicode="&#x2248;" d="M81 370 q15 -23 33 -25 q19 -2 42 13 q14 8 28 13 q15 5 30 5 q50 -4 90 -35 q41 -31 108 -35 q35 0 68 14 q32 13 59 34 q20 15 22 35 q3 19 -11 41 l-5 8 q-15 23 -33 24 q-18 2 -42 -13 q-14 -8 -28 -12 q-15 -5 -30 -5 q-50 4 -90 35 q-41 31 -108 35 q-35 0 -68 -14 q-32 -13 -59 -34 q-20 -15 -22 -35 q-3 -19 11 -41 l5 -8 ZM81 141 q15 -23 33 -25 q19 -2 42 13 q14 8 28 13 q15 5 30 5 q50 -4 90 -35 q41 -31 108 -35 q35 0 68 14 q32 13 59 34 q20 15 22 35 q3 19 -11 41 l-5 8 q-15 23 -33 24 q-18 2 -42 -13 q-14 -8 -28 -12 q-15 -5 -30 -5 q-50 4 -90 35 q-41 31 -108 35 q-35 0 -68 -14 q-32 -13 -59 -34 q-20 -15 -22 -35 q-3 -19 11 -41 l5 -8 Z" /><glyph glyph-name="" unicode="&#x2260;" d="M154 24 q19 -12 36 -6 q18 5 32 28 l39 61 l255 0 q27 0 41 14 q14 14 14 41 l0 20 q0 27 -14 41 q-14 14 -41 14 l-172 0 l64 100 l108 0 q27 0 41 14 q14 14 14 41 l0 20 q0 27 -14 41 q-14 14 -41 14 l-25 0 l19 30 q9 14 4 28 q-4 14 -23 26 q-38 23 -68 -22 l-39 -62 l-264 0 q-27 0 -41 -14 q-14 -14 -14 -41 l0 -20 q0 -27 14 -41 q14 -14 41 -14 l180 0 l-64 -100 l-116 0 q-27 0 -41 -14 q-14 -14 -14 -41 l0 -20 q0 -27 14 -41 q14 -14 41 -14 l33 0 l-8 -13 q-14 -23 -12 -41 q2 -18 21 -29 l0 0 Z" /><glyph glyph-name="" unicode="&#x2264;" d="M93 216 l398 -177 q29 -12 46 -1 q18 11 18 43 l0 29 q0 23 -11 39 q-10 15 -32 24 l-287 113 l0 2 l287 114 q22 9 32 24 q11 16 11 39 l0 29 q0 31 -18 42 q-17 11 -46 -1 l-398 -176 q-22 -9 -32 -24 q-10 -16 -10 -40 l0 -15 q0 -24 10 -39 q10 -16 32 -25 l0 0 ZM109 -70 q-27 0 -41 -14 q-14 -14 -14 -41 l0 -20 q0 -27 14 -41 q14 -14 41 -14 l391 0 q27 0 41 14 q14 14 14 41 l0 20 q0 27 -14 41 q-14 14 -41 14 l-391 0 Z" /><glyph glyph-name="" unicode="&#x2265;" d="M75 81 q0 -31 18 -42 q17 -11 46 1 l398 176 q22 9 32 25 q10 15 10 39 l0 15 q0 24 -10 40 q-10 15 -32 24 l-398 177 q-29 12 -46 1 q-18 -11 -18 -43 l0 -29 q0 -23 11 -39 q10 -15 32 -24 l287 -114 l0 -2 l-287 -113 q-22 -9 -32 -24 q-11 -16 -11 -39 l0 -29 ZM131 -70 q-27 0 -41 -14 q-14 -14 -14 -41 l0 -20 q0 -27 14 -41 q14 -14 41 -14 l391 0 q27 0 41 14 q14 14 14 41 l0 20 q0 27 -14 41 q-14 14 -41 14 l-391 0 Z" /><glyph glyph-name="" unicode="&#xfb00;" d="M86 55 q0 -27 14 -41 q14 -14 41 -14 l63 0 q27 0 41 14 q14 14 14 41 l0 325 l191 0 l0 -325 q0 -27 14 -41 q14 -14 41 -14 l63 0 q27 0 41 14 q14 14 14 41 l0 325 l48 0 q23 0 35 14 q12 14 12 41 l0 25 q0 27 -14 41 q-14 14 -41 14 l-40 0 l0 7 q2 32 22 41 q20 9 38 9 q27 2 41 15 q14 13 14 40 l0 37 q0 27 -14 41 q-14 14 -41 14 l-17 0 q-49 4 -128 -32 q-80 -37 -88 -156 l0 -16 l-191 0 l0 7 q2 32 22 41 q20 9 38 9 q27 2 41 15 q14 13 14 40 l0 37 q0 27 -14 41 q-14 14 -41 14 l-17 0 q-49 4 -128 -32 q-80 -37 -88 -156 l0 -16 l-13 0 q-27 0 -41 -14 q-14 -14 -14 -41 l0 -25 q0 -27 14 -41 q14 -14 41 -14 l13 0 l0 -325 Z" /><glyph glyph-name="" unicode="&#xfb01;" d="M86 55 q0 -27 14 -41 q14 -14 41 -14 l63 0 q27 0 41 14 q14 14 14 41 l0 325 l156 0 l0 -325 q0 -27 14 -41 q14 -14 41 -14 l63 0 q27 0 41 14 q14 14 14 41 l0 405 q0 27 -14 41 q-14 14 -41 14 l-274 0 l0 7 q2 32 22 41 q20 9 38 9 q27 2 41 15 q14 13 14 40 l0 37 q0 27 -14 41 q-14 14 -41 14 l-17 0 q-49 4 -128 -32 q-80 -37 -88 -156 l0 -16 l-13 0 q-27 0 -41 -14 q-14 -14 -14 -41 l0 -25 q0 -27 14 -41 q14 -14 41 -14 l13 0 l0 -325 ZM472 580 l59 0 q27 0 41 14 q14 14 14 41 l0 25 q0 27 -14 41 q-14 14 -41 14 l-59 0 q-27 0 -41 -14 q-14 -14 -14 -41 l0 -25 q0 -27 14 -41 q14 -14 41 -14 l0 0 Z" /><glyph glyph-name="" unicode="&#xfb02;" d="M86 55 q0 -27 14 -41 q14 -14 41 -14 l63 0 q27 0 41 14 q14 14 14 41 l0 316 l40 0 q27 0 41 14 q14 14 14 41 l0 25 q0 27 -14 41 q-14 14 -41 14 l-40 0 l0 16 q2 32 22 41 q20 9 38 9 q27 2 41 15 q14 13 14 40 l0 37 q0 27 -14 41 q-14 14 -41 14 l-17 0 q-49 4 -128 -32 q-80 -37 -88 -156 l0 -25 l-13 0 q-27 0 -41 -14 q-14 -14 -14 -41 l0 -25 q0 -27 14 -41 q14 -14 41 -14 l13 0 l0 -316 ZM413 190 q3 -126 60 -162 q56 -37 126 -33 q30 0 43 15 q13 15 13 41 l0 49 q0 22 -11 34 q-11 11 -29 13 q-12 1 -20 12 q-9 10 -9 39 l0 462 q0 27 -14 41 q-14 14 -41 14 l-63 0 q-27 0 -41 -14 q-14 -14 -14 -41 l0 -470 Z" /><glyph glyph-name="" unicode="&#xfb03;" d="M86 55 q0 -27 14 -41 q14 -14 41 -14 l63 0 q27 0 41 14 q14 14 14 41 l0 325 l191 0 l0 -325 q0 -27 14 -41 q14 -14 41 -14 l63 0 q27 0 41 14 q14 14 14 41 l0 325 l156 0 l0 -325 q0 -27 14 -41 q14 -14 41 -14 l63 0 q27 0 41 14 q14 14 14 41 l0 405 q0 27 -14 41 q-14 14 -41 14 l-274 0 l0 7 q2 32 22 41 q20 9 38 9 q27 2 41 15 q14 13 14 40 l0 37 q0 27 -14 41 q-14 14 -41 14 l-17 0 q-49 4 -128 -32 q-80 -37 -88 -156 l0 -16 l-191 0 l0 7 q2 32 22 41 q20 9 38 9 q27 2 41 15 q14 13 14 40 l0 37 q0 27 -14 41 q-14 14 -41 14 l-17 0 q-49 4 -128 -32 q-80 -37 -88 -156 l-5 -16 l-8 0 q-27 0 -41 -14 q-14 -14 -14 -41 l0 -25 q0 -27 14 -41 q14 -14 41 -14 l8 0 l5 -325 ZM781 635 q0 -27 14 -41 q14 -14 41 -14 l59 0 q27 0 41 14 q14 14 14 41 l0 25 q0 27 -14 41 q-14 14 -41 14 l-59 0 q-27 0 -41 -14 q-14 -14 -14 -41 l0 -25 Z" /><glyph glyph-name="" unicode="&#xfb04;" d="M86 55 q0 -27 14 -41 q14 -14 41 -14 l63 0 q27 0 41 14 q14 14 14 41 l0 325 l191 0 l0 -325 q0 -27 14 -41 q14 -14 41 -14 l63 0 q27 0 41 14 q14 14 14 41 l0 325 l48 0 q23 0 35 14 q12 14 12 41 l0 25 q0 27 -14 41 q-14 14 -41 14 l-40 0 l0 7 q2 32 22 41 q20 9 38 9 q27 2 41 15 q14 13 14 40 l0 37 q0 27 -14 41 q-14 14 -41 14 l-17 0 q-49 4 -128 -32 q-80 -37 -88 -156 l0 -16 l-191 0 l0 7 q2 32 22 41 q20 9 38 9 q27 2 41 15 q14 13 14 40 l0 37 q0 27 -14 41 q-14 14 -41 14 l-17 0 q-49 4 -128 -32 q-80 -37 -88 -156 l-5 -16 l-8 0 q-27 0 -41 -14 q-14 -14 -14 -41 l0 -25 q0 -27 14 -41 q14 -14 41 -14 l8 0 l5 -325 ZM777 190 q3 -126 60 -162 q56 -37 126 -33 q30 0 43 15 q13 15 13 41 l0 49 q0 22 -11 34 q-11 11 -29 13 q-12 1 -20 12 q-9 10 -9 39 l0 462 q0 27 -14 41 q-14 14 -41 14 l-63 0 q-27 0 -41 -14 q-14 -14 -14 -41 l0 -470 Z" /><glyph glyph-name="" unicode="&#xf6c3;" d="M113 -82 q0 -13 3 -25 q2 -13 2 -26 q-1 -21 -5 -36 q-5 -15 -6 -31 q0 -15 12 -22 q13 -8 36 -8 l15 0 q30 0 54 29 q23 29 24 83 q1 29 -13 49 q-13 19 -50 20 l-23 0 q-23 0 -36 -7 q-13 -7 -13 -26 l0 0 Z" /><glyph glyph-name="" unicode="&#x2070;" d="M200 413 q95 2 133 68 q38 65 37 163 q1 99 -37 163 q-38 65 -133 67 q-95 -2 -133 -67 q-38 -64 -37 -163 q-1 -98 37 -163 q38 -66 133 -68 l0 0 ZM200 528 q-24 1 -34 34 q-9 33 -9 82 q0 48 9 81 q10 32 34 33 q25 -1 34 -33 q10 -33 9 -81 q1 -49 -9 -82 q-9 -33 -34 -34 l0 0 Z" /><glyph glyph-name="" unicode="&#x2074;" d="M263 423 l14 0 q27 0 41 14 q14 14 14 41 l0 32 l12 0 q25 0 36 14 q10 13 10 37 l0 6 q0 23 -10 37 q-11 13 -36 13 l-12 0 l0 192 q0 27 -14 41 q-14 14 -41 14 l-52 0 q-22 0 -38 -9 q-16 -8 -28 -27 l-128 -203 q-11 -16 -16 -28 q-4 -12 -4 -31 l0 -14 q0 -20 14 -31 q14 -11 41 -11 l142 0 l0 -32 q0 -27 14 -41 q14 -14 41 -14 l0 0 ZM130 617 l0 2 l59 92 q9 15 15 30 q6 15 6 16 l2 0 q0 -1 -2 -16 q-2 -14 -2 -34 l0 -90 l-78 0 Z" /><glyph glyph-name="" unicode="&#x2075;" d="M174 413 q86 3 130 50 q44 48 44 110 q-1 60 -42 101 q-42 40 -114 42 q-20 0 -31 -2 q-12 -2 -12 -2 l-2 1 q0 0 1 4 q1 4 2 12 l2 28 l109 0 q27 0 41 13 q14 13 14 39 l0 4 q0 26 -14 39 q-14 12 -41 12 l-158 0 q-26 0 -41 -13 q-15 -13 -17 -39 l-11 -132 q-2 -24 5 -39 q7 -14 24 -21 q16 -6 32 -6 q17 1 37 5 q6 1 13 1 q7 1 15 1 q26 0 43 -12 q17 -12 18 -35 q-1 -23 -18 -34 q-18 -12 -39 -12 q-14 0 -27 3 q-12 4 -23 9 q-22 12 -39 10 q-18 -2 -31 -24 l-3 -5 q-14 -23 -12 -42 q2 -19 24 -33 q21 -13 52 -22 q30 -10 69 -11 l0 0 Z" /><glyph glyph-name="" unicode="&#x2076;" d="M211 413 q75 2 116 48 q41 45 41 106 q-1 60 -40 102 q-40 41 -113 43 q-13 0 -22 -1 q-10 -2 -19 -5 l-2 0 q9 26 28 39 q20 13 49 13 q13 0 21 -2 q7 -2 12 -3 q19 -5 28 5 q9 10 19 36 l2 5 q9 21 3 40 q-6 18 -33 27 q-7 2 -19 5 q-13 3 -35 3 q-112 -4 -166 -80 q-54 -76 -54 -173 q3 -107 58 -158 q54 -50 126 -50 l0 0 ZM209 528 q-25 2 -39 25 q-15 23 -15 45 q0 17 9 22 q9 5 21 5 q33 -1 46 -19 q13 -18 12 -37 q0 -18 -9 -29 q-8 -12 -25 -12 l0 0 Z" /><glyph glyph-name="" unicode="&#x2077;" d="M91 423 l17 0 q23 0 39 9 q16 10 26 29 l159 286 q10 17 14 31 q4 15 4 34 l0 10 q0 20 -14 31 q-14 11 -41 11 l-224 0 q-27 0 -41 -12 q-14 -13 -14 -39 l0 -6 q0 -27 14 -39 q14 -13 41 -13 l106 0 q10 0 20 1 q9 1 10 1 l0 -2 q0 0 -4 -5 q-4 -5 -12 -19 l-138 -242 q-16 -29 -6 -47 q11 -18 44 -19 l0 0 Z" /><glyph glyph-name="" unicode="&#x2078;" d="M201 413 q66 0 117 34 q50 33 53 99 q-1 36 -17 60 q-17 24 -42 39 q10 9 28 38 q19 28 21 62 q-3 64 -50 96 q-48 33 -109 33 q-62 0 -107 -32 q-46 -32 -48 -96 q0 -30 12 -51 q12 -21 31 -37 q-19 -14 -41 -41 q-21 -28 -23 -65 q3 -70 55 -104 q52 -35 120 -35 l0 0 ZM228 684 q-26 11 -43 24 q-17 13 -18 32 q0 15 10 22 q10 6 25 6 q16 0 29 -8 q13 -8 14 -23 q-1 -18 -7 -32 q-6 -15 -10 -21 l0 0 ZM200 519 q-21 0 -37 10 q-15 11 -16 31 q0 16 7 30 q7 14 15 23 q32 -14 53 -27 q22 -14 23 -33 q-1 -17 -14 -26 q-14 -8 -31 -8 l0 0 Z" /><glyph glyph-name="" unicode="&#x2079;" d="M89 421 q7 -2 20 -5 q12 -3 34 -3 q112 4 166 80 q54 76 54 173 q-3 107 -57 158 q-55 50 -127 50 q-75 -2 -116 -48 q-41 -45 -41 -106 q1 -60 41 -102 q39 -41 112 -43 q13 0 22 2 q10 1 19 4 l2 0 q-9 -26 -28 -39 q-20 -13 -49 -13 q-13 0 -21 2 q-7 2 -12 3 q-19 5 -28 -5 q-9 -10 -19 -36 l-2 -5 q-9 -21 -3 -39 q6 -19 33 -28 l0 0 ZM205 662 q-33 1 -46 19 q-13 18 -12 37 q0 18 9 29 q8 12 25 12 q25 -2 39 -25 q15 -23 15 -45 q0 -17 -9 -22 q-9 -5 -21 -5 l0 0 Z" /><glyph glyph-name="" unicode="&#x2080;" d="M200 -167 q95 2 133 68 q38 65 37 163 q1 99 -37 163 q-38 65 -133 67 q-95 -2 -133 -67 q-38 -64 -37 -163 q-1 -98 37 -163 q38 -66 133 -68 l0 0 ZM200 -52 q-24 1 -34 34 q-9 33 -9 82 q0 48 9 81 q10 32 34 33 q25 -1 34 -33 q10 -33 9 -81 q1 -49 -9 -82 q-9 -33 -34 -34 l0 0 Z" /><glyph glyph-name="" unicode="&#x2081;" d="M82 -157 l195 0 q27 0 41 12 q14 13 14 39 l0 6 q0 26 -14 39 q-14 12 -41 12 l-35 0 l0 278 q0 27 -14 41 q-14 14 -41 14 l-14 0 q-21 0 -37 -6 q-16 -7 -31 -21 l-55 -52 q-20 -18 -22 -37 q-3 -20 15 -38 l16 -16 q10 -10 22 -11 q11 -1 20 6 l7 6 q5 4 7 7 q2 4 2 4 l2 0 q0 0 -1 -9 q-2 -9 -2 -23 l0 -143 l-44 0 q-22 0 -33 -12 q-12 -13 -12 -39 l0 -6 q0 -26 14 -39 q14 -12 41 -12 l0 0 Z" /><glyph glyph-name="" unicode="&#x2082;" d="M77 -157 l222 0 q27 0 41 12 q14 13 14 39 l0 6 q0 26 -14 39 q-14 12 -41 12 l-136 0 q18 27 96 64 q78 36 89 136 q-3 75 -53 109 q-50 34 -110 34 q-44 -1 -76 -15 q-32 -15 -52 -33 q-19 -18 -18 -37 q1 -19 21 -37 l7 -6 q19 -16 36 -13 q18 2 39 16 q8 5 16 7 q9 3 18 3 q18 0 31 -8 q13 -9 14 -26 q-12 -42 -99 -84 q-88 -43 -100 -166 q0 -25 14 -38 q14 -14 41 -14 l0 0 Z" /><glyph glyph-name="" unicode="&#x2083;" d="M167 -167 q86 2 129 49 q44 46 44 106 q0 46 -23 79 q-23 34 -74 47 l57 62 q13 15 20 29 q6 14 6 33 l0 7 q0 19 -14 29 q-14 10 -41 10 l-184 0 q-27 0 -41 -12 q-14 -13 -14 -39 l0 -6 q0 -27 14 -39 q14 -13 41 -13 l55 0 q11 0 22 1 q11 1 12 1 l0 -2 q-1 -1 -9 -8 q-9 -8 -15 -15 l-32 -35 q-16 -17 -20 -32 q-4 -16 2 -30 q6 -15 18 -22 q12 -7 31 -7 l7 0 q22 0 38 -10 q16 -9 17 -26 q0 -18 -14 -30 q-14 -12 -40 -12 q-15 0 -27 3 q-13 4 -23 9 q-23 12 -40 10 q-17 -2 -31 -24 l-5 -8 q-14 -21 -11 -39 q2 -17 24 -31 q19 -14 50 -24 q30 -10 71 -11 l0 0 Z" /><glyph glyph-name="" unicode="&#x2084;" d="M263 -157 l14 0 q27 0 41 14 q14 14 14 41 l0 32 l12 0 q25 0 36 14 q10 13 10 37 l0 6 q0 23 -10 37 q-11 13 -36 13 l-12 0 l0 192 q0 27 -14 41 q-14 14 -41 14 l-52 0 q-22 0 -38 -9 q-16 -8 -28 -27 l-128 -203 q-11 -16 -16 -28 q-4 -12 -4 -31 l0 -14 q0 -20 14 -31 q14 -11 41 -11 l142 0 l0 -32 q0 -27 14 -41 q14 -14 41 -14 l0 0 ZM130 37 l0 2 l59 92 q9 15 15 30 q6 15 6 16 l2 0 q0 -1 -2 -16 q-2 -14 -2 -34 l0 -90 l-78 0 Z" /><glyph glyph-name="" unicode="&#x2085;" d="M174 -167 q86 3 130 50 q44 48 44 110 q-1 60 -42 101 q-42 40 -114 42 q-20 0 -31 -2 q-12 -2 -12 -2 l-2 1 q0 0 1 4 q1 4 2 12 l2 28 l109 0 q27 0 41 13 q14 13 14 39 l0 4 q0 26 -14 39 q-14 12 -41 12 l-158 0 q-26 0 -41 -13 q-15 -13 -17 -39 l-11 -132 q-2 -24 5 -39 q7 -14 24 -21 q16 -6 32 -6 q17 1 37 5 q6 1 13 1 q7 1 15 1 q26 0 43 -12 q17 -12 18 -35 q-1 -23 -18 -34 q-18 -12 -39 -12 q-14 0 -27 3 q-12 4 -23 9 q-22 12 -39 10 q-18 -2 -31 -24 l-3 -5 q-14 -23 -12 -42 q2 -19 24 -33 q21 -13 52 -22 q30 -10 69 -11 l0 0 Z" /><glyph glyph-name="" unicode="&#x2086;" d="M211 -167 q75 2 116 48 q41 45 41 106 q-1 60 -40 102 q-40 41 -113 43 q-13 0 -22 -1 q-10 -2 -19 -5 l-2 0 q9 26 28 39 q20 13 49 13 q13 0 21 -2 q7 -2 12 -3 q19 -5 28 5 q9 10 19 36 l2 5 q9 21 3 40 q-6 18 -33 27 q-7 2 -19 5 q-13 3 -35 3 q-112 -4 -166 -80 q-54 -76 -54 -173 q3 -107 58 -158 q54 -50 126 -50 l0 0 ZM209 -52 q-25 2 -39 25 q-15 23 -15 45 q0 17 9 22 q9 5 21 5 q33 -1 46 -19 q13 -18 12 -37 q0 -18 -9 -29 q-8 -12 -25 -12 l0 0 Z" /><glyph glyph-name="" unicode="&#x2087;" d="M91 -157 l17 0 q23 0 39 9 q16 10 26 29 l159 286 q10 17 14 31 q4 15 4 34 l0 10 q0 20 -14 31 q-14 11 -41 11 l-224 0 q-27 0 -41 -12 q-14 -13 -14 -39 l0 -6 q0 -27 14 -39 q14 -13 41 -13 l106 0 q10 0 20 1 q9 1 10 1 l0 -2 q0 0 -4 -5 q-4 -5 -12 -19 l-138 -242 q-16 -29 -6 -47 q11 -18 44 -19 l0 0 Z" /><glyph glyph-name="" unicode="&#x2088;" d="M201 -167 q66 0 117 34 q50 33 53 99 q-1 36 -17 60 q-17 24 -42 39 q10 9 28 38 q19 28 21 62 q-3 64 -50 96 q-48 33 -109 33 q-62 0 -107 -32 q-46 -32 -48 -96 q0 -30 12 -51 q12 -21 31 -37 q-19 -14 -41 -41 q-21 -28 -23 -65 q3 -70 55 -104 q52 -35 120 -35 l0 0 ZM228 104 q-26 11 -43 24 q-17 13 -18 32 q0 15 10 22 q10 6 25 6 q16 0 29 -8 q13 -8 14 -23 q-1 -18 -7 -32 q-6 -15 -10 -21 l0 0 ZM200 -61 q-21 0 -37 10 q-15 11 -16 31 q0 16 7 30 q7 14 15 23 q32 -14 53 -27 q22 -14 23 -33 q-1 -17 -14 -26 q-14 -8 -31 -8 l0 0 Z" /><glyph glyph-name="" unicode="&#x2089;" d="M89 -159 q7 -2 20 -5 q12 -3 34 -3 q112 4 166 80 q54 76 54 173 q-3 107 -57 158 q-55 50 -127 50 q-75 -2 -116 -48 q-41 -45 -41 -106 q1 -60 41 -102 q39 -41 112 -43 q13 0 22 2 q10 1 19 4 l2 0 q-9 -26 -28 -39 q-20 -13 -49 -13 q-13 0 -21 2 q-7 2 -12 3 q-19 5 -28 -5 q-9 -10 -19 -36 l-2 -5 q-9 -21 -3 -39 q6 -19 33 -28 l0 0 ZM205 82 q-33 1 -46 19 q-13 18 -12 37 q0 18 9 29 q8 12 25 12 q25 -2 39 -25 q15 -23 15 -45 q0 -17 -9 -22 q-9 -5 -21 -5 l0 0 Z" /><glyph glyph-name="" unicode="&#x2009;" d="" /><glyph glyph-name="" unicode=" " d="" /><glyph glyph-name="" unicode="­" d="M104 212 l204 0 q27 0 41 14 q14 14 14 41 l0 40 q0 27 -14 41 q-14 14 -41 14 l-204 0 q-27 0 -41 -14 q-14 -14 -14 -41 l0 -40 q0 -27 14 -41 q14 -14 41 -14 l0 0 Z" /><glyph glyph-name="" unicode="&#xf8ff;" d="M168 -5 l265 -141 l134 71 l132 -71 l265 141 l0 152 l124 72 l0 278 l-124 71 l0 151 l-265 142 l-132 -71 l-134 71 l-265 -142 l0 -151 l-126 -71 l0 -278 l126 -72 l0 -152 ZM208 30 l0 139 l-114 64 l0 249 l114 66 l0 136 l238 126 l121 -64 l118 64 l238 -126 l0 -136 l114 -66 l0 -249 l-114 -64 l0 -139 l-238 -126 l-118 66 l-121 -66 l-238 126 ZM242 64 l215 -114 l110 58 l107 -58 l214 114 l0 121 l100 60 l0 225 l-100 58 l0 123 l-214 114 l-107 -59 l-110 59 l-215 -114 l0 -123 l-99 -58 l0 -225 l99 -60 l0 -121 ZM426 91 l0 407 l-48 0 l0 108 l346 0 q27 0 37 -12 q11 -11 10 -36 l0 -102 l-115 0 l0 21 q0 11 -2 16 q-3 5 -14 5 l-85 0 l0 -128 l176 0 l0 -108 l-176 0 l0 -171 l-129 0 Z" /></font>
</defs>
</svg>
